M48
;GenerationSoftware,Autodesk,EAGLE,9.6.2*%
;CreationDate,2021-03-21T04:01:55Z*%
FMAT,2
ICI,OFF
METRIC,TZ,000.000
T9C0.350
T8C0.813
T7C0.991
T6C1.000
T5C1.016
T4C1.100
T3C1.118
T2C1.600
T1C3.000
%
G90
M71
T1
X8890Y38100
X8890Y176530
X64770Y176530
X64770Y38100
T2
X33700Y47580
X33700Y41320
X39960Y41320
X39960Y47580
T3
X10160Y85090
X10160Y87630
X10160Y90170
X10160Y92710
X10160Y95250
X10160Y97790
X10160Y100330
X10160Y102870
X10160Y105410
X10160Y107950
X10160Y110490
X10160Y113030
X17780Y97790
X17780Y95250
X17780Y92710
X17780Y90170
X17780Y87630
X17780Y85090
X17780Y115570
X17780Y113030
X17780Y82550
X17780Y107950
X17780Y105410
X17780Y110490
X10160Y115570
X10160Y82550
X17780Y100330
X17780Y102870
T4
X19530Y170080
X16030Y170080
X36830Y44450
T5
X45720Y170180
X48260Y170180
X48260Y161290
X43180Y170180
X25400Y161290
X27940Y161290
X15240Y161290
X17780Y161290
X35560Y161290
X38100Y161290
X45720Y161290
T6
X60960Y84455
X58420Y84455
X55880Y84455
X53340Y84455
X48260Y84455
X50800Y84455
X31750Y173180
X26950Y170180
X31750Y167080
T7
X53340Y62230
X53340Y67310
X53340Y69850
X53340Y72390
X53340Y64770
X53340Y59690
X53340Y74930
X15240Y74930
X15240Y72390
X15240Y69850
X15240Y67310
X15240Y64770
X15240Y62230
X15240Y59690
X22860Y59690
X22860Y62230
X22860Y64770
X22860Y67310
X22860Y69850
X22860Y72390
X22860Y74930
X34290Y74930
X34290Y69850
X34290Y67310
X34290Y64770
X34290Y62230
X34290Y59690
X60960Y72390
X41910Y62230
X41910Y64770
X41910Y67310
X41910Y69850
X41910Y72390
X41910Y74930
X41910Y59690
X60960Y69850
X60960Y67310
X60960Y64770
X60960Y62230
X60960Y59690
X60960Y74930
X34290Y72390
T8
X38100Y107950
X20320Y120777
X20320Y125603
X34290Y88900
X41910Y88900
X35560Y135890
X30480Y104140
X34290Y93980
X41910Y93980
X22860Y83820
X30480Y83820
X22860Y109220
X30480Y109220
X34290Y83820
X41910Y83820
X33020Y142240
X40640Y142240
X22860Y142240
X30480Y142240
X22860Y93980
X30480Y93980
X22860Y99060
X30480Y99060
X30480Y88900
X22860Y88900
X22860Y104140
X36830Y116840
X24130Y151130
X29210Y151130
X26670Y153670
X13970Y151130
X19050Y151130
X16510Y153670
X26670Y123190
X31750Y123190
X55880Y110490
X60960Y110490
X45720Y116840
X50800Y116840
X45720Y123190
X50800Y123190
X36830Y123190
X41910Y123190
X41910Y116840
X55880Y167640
X60960Y167640
X55880Y133350
X60960Y133350
X55880Y161290
X60960Y161290
X60960Y154940
X55880Y154940
X55880Y148590
X60960Y148590
X55880Y140970
X60960Y140970
X26670Y116840
X31750Y116840
X46990Y142240
X52070Y142240
X55880Y125730
X60960Y125730
X55880Y116840
X60960Y116840
X50800Y128270
X50800Y135890
X12700Y133350
X12700Y140970
X34290Y151130
X39370Y151130
X36830Y153670
X44450Y151130
X49530Y151130
X46990Y153670
X43180Y128270
X43180Y135890
X35560Y128270
X27940Y128270
X27940Y135890
X19050Y133350
X19050Y140970
X38100Y100330
T9
X50500Y152500
X61750Y83250
X20250Y98000
X46000Y55750
X29750Y143500
X48500Y139250
X50500Y155750
X26000Y134750
X27000Y108500
X21000Y97250
X21000Y87000
X28500Y88250
X52750Y82750
X37500Y86000
X19250Y78000
X39000Y76250
X18250Y80250
X37250Y78750
X64500Y115000
X14250Y83750
X63750Y146250
X42500Y106500
X33500Y102250
X25250Y135500
X37250Y76750
X20250Y96250
X11250Y81000
X62750Y109500
X15750Y95000
M30