G04 EAGLE Gerber RS-274X export*
G75*
%MOMM*%
%FSLAX34Y34*%
%LPD*%
%INTop Copper*%
%IPPOS*%
%AMOC8*
5,1,8,0,0,1.08239X$1,22.5*%
G01*
%ADD10P,1.429621X8X22.500000*%
%ADD11C,2.000000*%
%ADD12P,1.429621X8X202.500000*%
%ADD13C,1.320800*%
%ADD14C,1.508000*%
%ADD15R,1.508000X1.508000*%
%ADD16C,1.524000*%
%ADD17C,1.650000*%
%ADD18C,2.400000*%
%ADD19C,1.320800*%
%ADD20C,1.700000*%
%ADD21R,1.498600X1.498600*%
%ADD22C,1.498600*%
%ADD23R,1.676400X1.676400*%
%ADD24C,1.676400*%
%ADD25P,1.649562X8X22.500000*%
%ADD26C,0.406400*%
%ADD27C,0.756400*%
%ADD28C,0.762000*%


D10*
X241300Y1511300D03*
X292100Y1511300D03*
X266700Y1536700D03*
D11*
X307500Y1670800D02*
X327500Y1670800D01*
X327500Y1731800D02*
X307500Y1731800D01*
X269500Y1711800D02*
X269500Y1691800D01*
D10*
X139700Y1511300D03*
X190500Y1511300D03*
X165100Y1536700D03*
X266700Y1231900D03*
X317500Y1231900D03*
X558800Y1104900D03*
X609600Y1104900D03*
X457200Y1168400D03*
X508000Y1168400D03*
X457200Y1231900D03*
X508000Y1231900D03*
X368300Y1231900D03*
X419100Y1231900D03*
X368300Y1168400D03*
X419100Y1168400D03*
X558800Y1676400D03*
X609600Y1676400D03*
X558800Y1333500D03*
X609600Y1333500D03*
X558800Y1612900D03*
X609600Y1612900D03*
D12*
X609600Y1549400D03*
X558800Y1549400D03*
D10*
X558800Y1485900D03*
X609600Y1485900D03*
X558800Y1409700D03*
X609600Y1409700D03*
X266700Y1168400D03*
X317500Y1168400D03*
X469900Y1422400D03*
X520700Y1422400D03*
X558800Y1257300D03*
X609600Y1257300D03*
X558800Y1168400D03*
X609600Y1168400D03*
D13*
X508000Y1276096D02*
X508000Y1289304D01*
X508000Y1352296D02*
X508000Y1365504D01*
X127000Y1340104D02*
X127000Y1326896D01*
X127000Y1403096D02*
X127000Y1416304D01*
X431800Y1289304D02*
X431800Y1276096D01*
X431800Y1352296D02*
X431800Y1365504D01*
X355600Y1365504D02*
X355600Y1352296D01*
X355600Y1289304D02*
X355600Y1276096D01*
X279400Y1276096D02*
X279400Y1289304D01*
X279400Y1352296D02*
X279400Y1365504D01*
X190500Y1340104D02*
X190500Y1326896D01*
X190500Y1403096D02*
X190500Y1416304D01*
D14*
X508000Y844550D03*
D15*
X482600Y844550D03*
D14*
X533400Y844550D03*
X558800Y844550D03*
X584200Y844550D03*
X609600Y844550D03*
D16*
X431800Y1694180D02*
X431800Y1709420D01*
X457200Y1709420D02*
X457200Y1694180D01*
X482600Y1694180D02*
X482600Y1709420D01*
D17*
X368300Y444500D03*
D18*
X337000Y475800D03*
X399600Y475800D03*
X399600Y413200D03*
X337000Y413200D03*
D13*
X381000Y996696D02*
X381000Y1009904D01*
X381000Y1072896D02*
X381000Y1086104D01*
D19*
X203200Y1207770D03*
X203200Y1256030D03*
D10*
X342900Y889000D03*
X419100Y889000D03*
X228600Y1041400D03*
X304800Y1041400D03*
X342900Y939800D03*
X419100Y939800D03*
X228600Y838200D03*
X304800Y838200D03*
X228600Y1092200D03*
X304800Y1092200D03*
X342900Y838200D03*
X419100Y838200D03*
X330200Y1422400D03*
X406400Y1422400D03*
X228600Y1422400D03*
X304800Y1422400D03*
X228600Y939800D03*
X304800Y939800D03*
X228600Y990600D03*
X304800Y990600D03*
D12*
X304800Y889000D03*
X228600Y889000D03*
D20*
X160300Y1692300D02*
X160300Y1709300D01*
X195300Y1709300D02*
X195300Y1692300D01*
D21*
X533400Y749300D03*
D22*
X533400Y723900D03*
X533400Y698500D03*
X533400Y673100D03*
X533400Y647700D03*
X533400Y622300D03*
X533400Y596900D03*
X609600Y596900D03*
X609600Y622300D03*
X609600Y647700D03*
X609600Y673100D03*
X609600Y698500D03*
X609600Y723900D03*
X609600Y749300D03*
D23*
X101600Y1155700D03*
D24*
X101600Y1130300D03*
X101600Y1104900D03*
X101600Y1079500D03*
X101600Y1054100D03*
X101600Y1028700D03*
X101600Y1003300D03*
X101600Y977900D03*
X101600Y952500D03*
X101600Y927100D03*
X101600Y901700D03*
X101600Y876300D03*
X101600Y850900D03*
X101600Y825500D03*
X177800Y825500D03*
X177800Y850900D03*
X177800Y876300D03*
X177800Y901700D03*
X177800Y927100D03*
X177800Y952500D03*
X177800Y977900D03*
X177800Y1003300D03*
X177800Y1028700D03*
X177800Y1054100D03*
X177800Y1079500D03*
X177800Y1104900D03*
X177800Y1130300D03*
X177800Y1155700D03*
D21*
X152400Y749300D03*
D22*
X152400Y723900D03*
X152400Y698500D03*
X152400Y673100D03*
X152400Y647700D03*
X152400Y622300D03*
X152400Y596900D03*
X228600Y596900D03*
X228600Y622300D03*
X228600Y647700D03*
X228600Y673100D03*
X228600Y698500D03*
X228600Y723900D03*
X228600Y749300D03*
D21*
X342900Y749300D03*
D22*
X342900Y723900D03*
X342900Y698500D03*
X342900Y673100D03*
X342900Y647700D03*
X342900Y622300D03*
X342900Y596900D03*
X419100Y596900D03*
X419100Y622300D03*
X419100Y647700D03*
X419100Y673100D03*
X419100Y698500D03*
X419100Y723900D03*
X419100Y749300D03*
D10*
X342900Y1511300D03*
X393700Y1511300D03*
X368300Y1536700D03*
X444500Y1511300D03*
X495300Y1511300D03*
X469900Y1536700D03*
D16*
X254000Y1605280D02*
X254000Y1620520D01*
X279400Y1620520D02*
X279400Y1605280D01*
X152400Y1605280D02*
X152400Y1620520D01*
X177800Y1620520D02*
X177800Y1605280D01*
X355600Y1605280D02*
X355600Y1620520D01*
X381000Y1620520D02*
X381000Y1605280D01*
X457200Y1605280D02*
X457200Y1620520D01*
X482600Y1620520D02*
X482600Y1605280D01*
D10*
X562129Y1747345D03*
X587529Y1747345D03*
X443605Y1073466D03*
X519805Y1073466D03*
X443605Y1120875D03*
X519805Y1120875D03*
X524880Y440223D03*
X550280Y440223D03*
D25*
X166774Y433449D03*
X166774Y458849D03*
X192174Y433449D03*
X192174Y458849D03*
X217574Y433449D03*
X217574Y458849D03*
D26*
X101600Y952500D02*
X88900Y965200D01*
X88900Y1009650D01*
X95250Y1016000D01*
X146050Y1016000D01*
X146050Y1196975D01*
X203200Y1254125D01*
X203200Y1256030D01*
X152400Y977900D02*
X133350Y958850D01*
X152400Y977900D02*
X152400Y1155700D01*
X203200Y1206500D01*
X203200Y1207770D01*
D27*
X133350Y958850D03*
D26*
X190500Y1082675D02*
X219075Y1111250D01*
X190500Y1082675D02*
X190500Y990600D01*
X177800Y977900D01*
D27*
X219075Y1111250D03*
D28*
X609600Y749300D02*
X609600Y723900D01*
X609600Y819150D02*
X584200Y844550D01*
X609600Y819150D02*
X609600Y749300D01*
X558800Y1168400D02*
X558800Y1257300D01*
X508000Y1282700D02*
X484188Y1258888D01*
X457200Y1231900D01*
X485775Y1257300D02*
X558800Y1257300D01*
X485775Y1257300D02*
X484188Y1258888D01*
X571500Y860425D02*
X584200Y847725D01*
X571500Y860425D02*
X571500Y1152525D01*
X558800Y1165225D01*
X584200Y847725D02*
X584200Y844550D01*
X558800Y1165225D02*
X558800Y1168400D01*
X123825Y701675D02*
X152400Y673100D01*
X123825Y701675D02*
X123825Y981075D01*
X101600Y1003300D01*
X327025Y838200D02*
X342900Y838200D01*
X327025Y838200D02*
X304800Y838200D01*
X342900Y838200D02*
X342900Y889000D01*
X327025Y688975D02*
X342900Y673100D01*
X327025Y688975D02*
X327025Y838200D01*
X190500Y1333500D02*
X177800Y1346200D01*
X177800Y1428750D02*
X177800Y1498600D01*
X177800Y1428750D02*
X177800Y1346200D01*
X177800Y1498600D02*
X190500Y1511300D01*
X514350Y1698625D02*
X561975Y1746250D01*
X514350Y1698625D02*
X482600Y1698625D01*
X482600Y1701800D01*
X561975Y1746250D02*
X562129Y1747345D01*
X295275Y1298575D02*
X279400Y1282700D01*
X295275Y1397000D02*
X295275Y1412875D01*
X295275Y1397000D02*
X295275Y1298575D01*
X295275Y1412875D02*
X292100Y1416050D01*
X292100Y1473200D02*
X292100Y1511300D01*
X292100Y1473200D02*
X292100Y1416050D01*
X355600Y1473200D02*
X357188Y1474788D01*
X393700Y1511300D01*
X355600Y1473200D02*
X292100Y1473200D01*
X457200Y1473200D02*
X495300Y1511300D01*
X457200Y1473200D02*
X358775Y1473200D01*
X357188Y1474788D01*
X571500Y1587500D02*
X609600Y1549400D01*
X514350Y1587500D02*
X495300Y1587500D01*
X514350Y1587500D02*
X571500Y1587500D01*
X495300Y1587500D02*
X495300Y1511300D01*
X514350Y1587500D02*
X514350Y1698625D01*
X209550Y1428750D02*
X177800Y1428750D01*
X209550Y1428750D02*
X209550Y1422400D01*
X234950Y1397000D01*
X295275Y1397000D01*
X285750Y854075D02*
X301625Y838200D01*
X285750Y854075D02*
X285750Y1285875D01*
X301625Y838200D02*
X304800Y838200D01*
X279400Y1282700D02*
X285750Y1285875D01*
X136525Y1073150D02*
X127000Y1063625D01*
X136525Y1073150D02*
X136525Y1276350D01*
X190500Y1330325D01*
X190500Y1333500D01*
X495300Y1298575D02*
X508000Y1285875D01*
X495300Y1298575D02*
X495300Y1511300D01*
X508000Y1285875D02*
X508000Y1282700D01*
D27*
X127000Y1063625D03*
D26*
X228600Y1377950D02*
X285750Y1377950D01*
X228600Y1377950D02*
X228600Y1108075D01*
X196850Y1076325D01*
X196850Y971550D01*
X177800Y952500D01*
D27*
X285750Y1377950D03*
D26*
X114300Y1063625D02*
X136525Y1041400D01*
X114300Y1063625D02*
X114300Y1143000D01*
X101600Y1155700D01*
D27*
X136525Y1041400D03*
D26*
X508000Y1358900D02*
X609600Y1358900D01*
X609600Y1409700D01*
X609600Y1435100D02*
X558800Y1485900D01*
X609600Y1435100D02*
X609600Y1409700D01*
X317500Y1003300D02*
X304800Y990600D01*
X317500Y1003300D02*
X317500Y1152525D01*
X304800Y1165225D01*
X304800Y1422400D01*
X330200Y1422400D01*
X368300Y1346200D02*
X431800Y1282700D01*
X368300Y1346200D02*
X368300Y1384300D01*
X330200Y1422400D01*
X196850Y742950D02*
X152400Y698500D01*
X196850Y742950D02*
X196850Y857250D01*
X298450Y857250D02*
X317500Y876300D01*
X317500Y1003300D01*
D27*
X196850Y857250D03*
X298450Y857250D03*
D26*
X152400Y749300D02*
X152400Y739775D01*
X152400Y723900D01*
X152400Y739775D02*
X158750Y746125D01*
X187325Y774700D01*
X215900Y1384300D02*
X190500Y1409700D01*
X215900Y1384300D02*
X215900Y1123950D01*
X184150Y1092200D01*
X158750Y1092200D01*
X158750Y746125D01*
X152400Y749300D01*
D27*
X187325Y774700D03*
D26*
X228600Y1092200D02*
X254000Y1117600D01*
X254000Y1333500D01*
X279400Y1358900D01*
X215900Y609600D02*
X228600Y596900D01*
X215900Y635000D02*
X215900Y942975D01*
X215900Y635000D02*
X215900Y609600D01*
X215900Y942975D02*
X209550Y949325D01*
X209550Y1073150D01*
X228600Y1092200D01*
X533400Y723900D02*
X444500Y635000D01*
X365125Y635000D01*
X365125Y603250D01*
X333375Y571500D01*
X139700Y571500D01*
X139700Y625475D01*
X149225Y635000D01*
X215900Y635000D01*
X342900Y939800D02*
X406400Y939800D01*
X406400Y936625D01*
X460375Y882650D01*
X508000Y882650D01*
X508000Y844550D01*
X368300Y457200D02*
X219075Y457200D01*
X368300Y457200D02*
X368300Y444500D01*
X219075Y457200D02*
X217574Y458849D01*
X368300Y444500D02*
X511175Y444500D01*
X511175Y438150D01*
X520700Y428625D01*
X539750Y428625D01*
X539750Y476250D01*
X644525Y581025D01*
X644525Y1447800D01*
X647700Y1450975D01*
D27*
X647700Y1450975D03*
D26*
X206375Y917575D02*
X206375Y854075D01*
X206375Y917575D02*
X184150Y939800D01*
X165100Y939800D01*
X165100Y1066800D01*
X177800Y1079500D01*
D27*
X206375Y854075D03*
D28*
X673100Y1085850D02*
X679450Y1092200D01*
X679450Y1774825D01*
X657225Y1797050D01*
X431800Y1797050D01*
X431800Y1758950D02*
X431800Y1701800D01*
X431800Y1758950D02*
X431800Y1797050D01*
X254000Y1758950D02*
X196850Y1701800D01*
X254000Y1758950D02*
X431800Y1758950D01*
X196850Y1701800D02*
X195300Y1700800D01*
D27*
X673100Y1085850D03*
D26*
X584200Y673100D02*
X609600Y647700D01*
X584200Y673100D02*
X584200Y768350D01*
X533400Y819150D01*
X377825Y819150D01*
X377825Y835025D01*
D27*
X377825Y835025D03*
D26*
X552450Y679450D02*
X609600Y622300D01*
X552450Y679450D02*
X552450Y755650D01*
D27*
X552450Y755650D03*
D26*
X590550Y692150D02*
X609600Y673100D01*
X590550Y692150D02*
X590550Y771525D01*
X536575Y825500D01*
X390525Y825500D01*
X390525Y866775D01*
D27*
X390525Y866775D03*
D28*
X187325Y1673225D02*
X161925Y1698625D01*
X187325Y1673225D02*
X317500Y1673225D01*
X161925Y1698625D02*
X160300Y1700800D01*
X317500Y1673225D02*
X317500Y1670800D01*
D26*
X304800Y939800D02*
X304800Y889000D01*
X203200Y596900D02*
X152400Y596900D01*
X203200Y596900D02*
X222250Y577850D01*
X254000Y577850D01*
X254000Y844550D01*
X276225Y866775D01*
D27*
X276225Y866775D03*
D26*
X250825Y895350D02*
X247650Y898525D01*
X247650Y971550D01*
X228600Y990600D01*
X209550Y622300D02*
X152400Y622300D01*
X209550Y622300D02*
X209550Y600075D01*
X225425Y584200D01*
X247650Y584200D01*
X247650Y898525D01*
D27*
X250825Y895350D03*
D26*
X241300Y927100D02*
X228600Y939800D01*
X241300Y927100D02*
X241300Y635000D01*
X228600Y622300D01*
X241300Y1047750D02*
X276225Y1082675D01*
X241300Y1047750D02*
X241300Y1019175D01*
X215900Y993775D01*
X215900Y952500D01*
X228600Y939800D01*
D27*
X276225Y1082675D03*
D26*
X266700Y1536700D02*
X266700Y1625600D01*
X260350Y1631950D01*
X69850Y1631950D01*
X69850Y806450D01*
X104775Y771525D01*
D27*
X104775Y771525D03*
D26*
X76200Y1536700D02*
X165100Y1536700D01*
X76200Y1536700D02*
X76200Y809625D01*
X85725Y800100D01*
X104775Y800100D01*
X263525Y784225D02*
X317500Y730250D01*
X317500Y673100D01*
X342900Y647700D01*
D27*
X104775Y800100D03*
X263525Y784225D03*
D26*
X368300Y1536700D02*
X292100Y1612900D01*
X292100Y1625600D01*
X276225Y1641475D01*
X63500Y1641475D01*
X63500Y606425D01*
X114300Y555625D01*
X330200Y555625D01*
D27*
X330200Y555625D03*
D26*
X393700Y1206500D02*
X419100Y1231900D01*
X393700Y1206500D02*
X393700Y1038225D01*
X330200Y974725D01*
X330200Y917575D01*
X355600Y892175D01*
X355600Y762000D01*
X342900Y749300D01*
X342900Y723900D01*
X254000Y1438275D02*
X254000Y1612900D01*
X254000Y1438275D02*
X285750Y1406525D01*
X314325Y1377950D02*
X419100Y1273175D01*
X419100Y1231900D01*
D27*
X285750Y1406525D03*
X314325Y1377950D03*
D26*
X228600Y1422400D02*
X209550Y1441450D01*
X209550Y1555750D01*
X152400Y1612900D01*
X342900Y622300D02*
X342900Y596900D01*
X419100Y1168400D02*
X444500Y1193800D01*
X444500Y1349375D01*
X485775Y1390650D01*
X368300Y647700D02*
X342900Y622300D01*
X368300Y647700D02*
X368300Y869950D01*
X374650Y876300D01*
X495300Y876300D01*
X495300Y841375D01*
X504825Y831850D01*
X520700Y831850D01*
X520700Y1028700D01*
X419100Y1130300D01*
X419100Y1168400D01*
X485775Y1435100D02*
X301625Y1435100D01*
X485775Y1435100D02*
X485775Y1390650D01*
D27*
X485775Y1390650D03*
X301625Y1435100D03*
D26*
X419100Y622300D02*
X419100Y609600D01*
X419100Y596900D01*
X419100Y609600D02*
X546100Y609600D01*
X571500Y584200D01*
X638175Y584200D01*
X638175Y1628775D01*
D27*
X638175Y1628775D03*
D26*
X419100Y749300D02*
X419100Y723900D01*
X609600Y1333500D02*
X622300Y1346200D01*
X622300Y1441450D01*
X504825Y1558925D01*
X419100Y723900D02*
X406400Y711200D01*
X406400Y695325D01*
X415925Y685800D01*
X485775Y685800D01*
X485775Y692150D01*
X530225Y736600D01*
X546100Y736600D01*
X546100Y619125D01*
X555625Y609600D01*
X622300Y609600D01*
X622300Y1047750D01*
X596900Y1073150D01*
X596900Y1320800D01*
X609600Y1333500D01*
D27*
X504825Y1558925D03*
D26*
X469900Y1536700D02*
X469900Y1714500D01*
X514350Y1758950D01*
X619125Y1758950D01*
X619125Y1714500D01*
X663575Y1670050D01*
X663575Y854075D01*
X574675Y765175D02*
X431800Y765175D01*
X431800Y711200D01*
X419100Y698500D01*
D27*
X663575Y854075D03*
X574675Y765175D03*
D26*
X606425Y1076325D02*
X628650Y1098550D01*
X628650Y1695450D01*
X590550Y1733550D01*
X590550Y1746250D01*
X587529Y1747345D01*
D27*
X606425Y1076325D03*
D26*
X654050Y441325D02*
X552450Y441325D01*
X654050Y441325D02*
X654050Y835025D01*
X650875Y838200D01*
X650875Y1123950D01*
X654050Y1127125D01*
X552450Y441325D02*
X550280Y440223D01*
D27*
X654050Y1127125D03*
D26*
X400050Y565150D02*
X523875Y441325D01*
X400050Y565150D02*
X114300Y565150D01*
X114300Y803275D01*
X104775Y812800D01*
X82550Y812800D01*
X82550Y1012825D01*
X98425Y1028700D01*
X101600Y1028700D01*
X523875Y441325D02*
X524880Y440223D01*
M02*
