G04 EAGLE Gerber RS-274X export*
G75*
%MOMM*%
%FSLAX34Y34*%
%LPD*%
%INSoldermask Top*%
%IPPOS*%
%AMOC8*
5,1,8,0,0,1.08239X$1,22.5*%
G01*
%ADD10C,3.203200*%
%ADD11P,1.649562X8X22.500000*%
%ADD12C,2.203200*%
%ADD13P,1.649562X8X202.500000*%
%ADD14C,1.524000*%
%ADD15C,1.711200*%
%ADD16R,1.711200X1.711200*%
%ADD17C,1.727200*%
%ADD18C,1.853200*%
%ADD19C,2.603200*%
%ADD20C,1.524000*%
%ADD21C,1.903200*%
%ADD22R,1.701800X1.701800*%
%ADD23C,1.701800*%
%ADD24R,1.879600X1.879600*%
%ADD25C,1.879600*%
%ADD26P,1.869504X8X22.500000*%
%ADD27C,0.959600*%


D10*
X88900Y381000D03*
X647700Y381000D03*
X647700Y1765300D03*
X88900Y1765300D03*
D11*
X241300Y1511300D03*
X292100Y1511300D03*
X266700Y1536700D03*
D12*
X307500Y1670800D02*
X327500Y1670800D01*
X327500Y1731800D02*
X307500Y1731800D01*
X269500Y1711800D02*
X269500Y1691800D01*
D11*
X139700Y1511300D03*
X190500Y1511300D03*
X165100Y1536700D03*
X266700Y1231900D03*
X317500Y1231900D03*
X558800Y1104900D03*
X609600Y1104900D03*
X457200Y1168400D03*
X508000Y1168400D03*
X457200Y1231900D03*
X508000Y1231900D03*
X368300Y1231900D03*
X419100Y1231900D03*
X368300Y1168400D03*
X419100Y1168400D03*
X558800Y1676400D03*
X609600Y1676400D03*
X558800Y1333500D03*
X609600Y1333500D03*
X558800Y1612900D03*
X609600Y1612900D03*
D13*
X609600Y1549400D03*
X558800Y1549400D03*
D11*
X558800Y1485900D03*
X609600Y1485900D03*
X558800Y1409700D03*
X609600Y1409700D03*
X266700Y1168400D03*
X317500Y1168400D03*
X469900Y1422400D03*
X520700Y1422400D03*
X558800Y1257300D03*
X609600Y1257300D03*
X558800Y1168400D03*
X609600Y1168400D03*
D14*
X508000Y1276096D02*
X508000Y1289304D01*
X508000Y1352296D02*
X508000Y1365504D01*
X127000Y1340104D02*
X127000Y1326896D01*
X127000Y1403096D02*
X127000Y1416304D01*
X431800Y1289304D02*
X431800Y1276096D01*
X431800Y1352296D02*
X431800Y1365504D01*
X355600Y1365504D02*
X355600Y1352296D01*
X355600Y1289304D02*
X355600Y1276096D01*
X279400Y1276096D02*
X279400Y1289304D01*
X279400Y1352296D02*
X279400Y1365504D01*
X190500Y1340104D02*
X190500Y1326896D01*
X190500Y1403096D02*
X190500Y1416304D01*
D15*
X508000Y844550D03*
D16*
X482600Y844550D03*
D15*
X533400Y844550D03*
X558800Y844550D03*
X584200Y844550D03*
X609600Y844550D03*
D17*
X431800Y1694180D02*
X431800Y1709420D01*
X457200Y1709420D02*
X457200Y1694180D01*
X482600Y1694180D02*
X482600Y1709420D01*
D18*
X368300Y444500D03*
D19*
X337000Y475800D03*
X399600Y475800D03*
X399600Y413200D03*
X337000Y413200D03*
D14*
X381000Y996696D02*
X381000Y1009904D01*
X381000Y1072896D02*
X381000Y1086104D01*
D20*
X203200Y1207770D03*
X203200Y1256030D03*
D11*
X342900Y889000D03*
X419100Y889000D03*
X228600Y1041400D03*
X304800Y1041400D03*
X342900Y939800D03*
X419100Y939800D03*
X228600Y838200D03*
X304800Y838200D03*
X228600Y1092200D03*
X304800Y1092200D03*
X342900Y838200D03*
X419100Y838200D03*
X330200Y1422400D03*
X406400Y1422400D03*
X228600Y1422400D03*
X304800Y1422400D03*
X228600Y939800D03*
X304800Y939800D03*
X228600Y990600D03*
X304800Y990600D03*
D13*
X304800Y889000D03*
X228600Y889000D03*
D21*
X160300Y1692300D02*
X160300Y1709300D01*
X195300Y1709300D02*
X195300Y1692300D01*
D22*
X533400Y749300D03*
D23*
X533400Y723900D03*
X533400Y698500D03*
X533400Y673100D03*
X533400Y647700D03*
X533400Y622300D03*
X533400Y596900D03*
X609600Y596900D03*
X609600Y622300D03*
X609600Y647700D03*
X609600Y673100D03*
X609600Y698500D03*
X609600Y723900D03*
X609600Y749300D03*
D24*
X101600Y1155700D03*
D25*
X101600Y1130300D03*
X101600Y1104900D03*
X101600Y1079500D03*
X101600Y1054100D03*
X101600Y1028700D03*
X101600Y1003300D03*
X101600Y977900D03*
X101600Y952500D03*
X101600Y927100D03*
X101600Y901700D03*
X101600Y876300D03*
X101600Y850900D03*
X101600Y825500D03*
X177800Y825500D03*
X177800Y850900D03*
X177800Y876300D03*
X177800Y901700D03*
X177800Y927100D03*
X177800Y952500D03*
X177800Y977900D03*
X177800Y1003300D03*
X177800Y1028700D03*
X177800Y1054100D03*
X177800Y1079500D03*
X177800Y1104900D03*
X177800Y1130300D03*
X177800Y1155700D03*
D22*
X152400Y749300D03*
D23*
X152400Y723900D03*
X152400Y698500D03*
X152400Y673100D03*
X152400Y647700D03*
X152400Y622300D03*
X152400Y596900D03*
X228600Y596900D03*
X228600Y622300D03*
X228600Y647700D03*
X228600Y673100D03*
X228600Y698500D03*
X228600Y723900D03*
X228600Y749300D03*
D22*
X342900Y749300D03*
D23*
X342900Y723900D03*
X342900Y698500D03*
X342900Y673100D03*
X342900Y647700D03*
X342900Y622300D03*
X342900Y596900D03*
X419100Y596900D03*
X419100Y622300D03*
X419100Y647700D03*
X419100Y673100D03*
X419100Y698500D03*
X419100Y723900D03*
X419100Y749300D03*
D11*
X342900Y1511300D03*
X393700Y1511300D03*
X368300Y1536700D03*
X444500Y1511300D03*
X495300Y1511300D03*
X469900Y1536700D03*
D17*
X254000Y1605280D02*
X254000Y1620520D01*
X279400Y1620520D02*
X279400Y1605280D01*
X152400Y1605280D02*
X152400Y1620520D01*
X177800Y1620520D02*
X177800Y1605280D01*
X355600Y1605280D02*
X355600Y1620520D01*
X381000Y1620520D02*
X381000Y1605280D01*
X457200Y1605280D02*
X457200Y1620520D01*
X482600Y1620520D02*
X482600Y1605280D01*
D11*
X562129Y1747345D03*
X587529Y1747345D03*
X443605Y1073466D03*
X519805Y1073466D03*
X443605Y1120875D03*
X519805Y1120875D03*
X524880Y440223D03*
X550280Y440223D03*
D26*
X166774Y433449D03*
X166774Y458849D03*
X192174Y433449D03*
X192174Y458849D03*
X217574Y433449D03*
X217574Y458849D03*
D27*
X133350Y958850D03*
X219075Y1111250D03*
X127000Y1063625D03*
X285750Y1377950D03*
X136525Y1041400D03*
X196850Y857250D03*
X298450Y857250D03*
X187325Y774700D03*
X647700Y1450975D03*
X206375Y854075D03*
X673100Y1085850D03*
X377825Y835025D03*
X552450Y755650D03*
X390525Y866775D03*
X276225Y866775D03*
X250825Y895350D03*
X276225Y1082675D03*
X104775Y771525D03*
X104775Y800100D03*
X263525Y784225D03*
X330200Y555625D03*
X285750Y1406525D03*
X314325Y1377950D03*
X485775Y1390650D03*
X301625Y1435100D03*
X638175Y1628775D03*
X504825Y1558925D03*
X663575Y854075D03*
X574675Y765175D03*
X606425Y1076325D03*
X654050Y1127125D03*
M02*
