G04 EAGLE Gerber RS-274X export*
G75*
%MOMM*%
%FSLAX34Y34*%
%LPD*%
%INBottom Copper*%
%IPPOS*%
%AMOC8*
5,1,8,0,0,1.08239X$1,22.5*%
G01*
%ADD10P,1.429621X8X22.500000*%
%ADD11C,2.000000*%
%ADD12P,1.429621X8X202.500000*%
%ADD13C,1.320800*%
%ADD14C,1.508000*%
%ADD15R,1.508000X1.508000*%
%ADD16C,1.524000*%
%ADD17C,1.650000*%
%ADD18C,2.400000*%
%ADD19C,1.320800*%
%ADD20C,1.700000*%
%ADD21R,1.498600X1.498600*%
%ADD22C,1.498600*%
%ADD23R,1.676400X1.676400*%
%ADD24C,1.676400*%
%ADD25C,0.406400*%
%ADD26C,0.756400*%
%ADD27C,0.762000*%

G36*
X700098Y327664D02*
X700098Y327664D01*
X700117Y327662D01*
X700219Y327684D01*
X700321Y327700D01*
X700338Y327710D01*
X700358Y327714D01*
X700447Y327767D01*
X700538Y327816D01*
X700552Y327830D01*
X700569Y327840D01*
X700636Y327919D01*
X700708Y327994D01*
X700716Y328012D01*
X700729Y328027D01*
X700768Y328123D01*
X700811Y328217D01*
X700813Y328237D01*
X700821Y328255D01*
X700839Y328422D01*
X700839Y1809078D01*
X700838Y1809088D01*
X700838Y1809093D01*
X700836Y1809101D01*
X700838Y1809117D01*
X700816Y1809219D01*
X700800Y1809321D01*
X700790Y1809338D01*
X700786Y1809358D01*
X700733Y1809447D01*
X700684Y1809538D01*
X700670Y1809552D01*
X700660Y1809569D01*
X700581Y1809636D01*
X700506Y1809708D01*
X700488Y1809716D01*
X700473Y1809729D01*
X700377Y1809768D01*
X700283Y1809811D01*
X700263Y1809813D01*
X700245Y1809821D01*
X700078Y1809839D01*
X36322Y1809839D01*
X36302Y1809836D01*
X36283Y1809838D01*
X36181Y1809816D01*
X36079Y1809800D01*
X36062Y1809790D01*
X36042Y1809786D01*
X35953Y1809733D01*
X35862Y1809684D01*
X35848Y1809670D01*
X35831Y1809660D01*
X35764Y1809581D01*
X35692Y1809506D01*
X35684Y1809488D01*
X35671Y1809473D01*
X35632Y1809377D01*
X35589Y1809283D01*
X35587Y1809263D01*
X35579Y1809245D01*
X35561Y1809078D01*
X35561Y328422D01*
X35564Y328402D01*
X35562Y328383D01*
X35584Y328281D01*
X35600Y328179D01*
X35610Y328162D01*
X35614Y328142D01*
X35667Y328053D01*
X35716Y327962D01*
X35730Y327948D01*
X35740Y327931D01*
X35819Y327864D01*
X35894Y327792D01*
X35912Y327784D01*
X35927Y327771D01*
X36023Y327732D01*
X36117Y327689D01*
X36137Y327687D01*
X36155Y327679D01*
X36322Y327661D01*
X700078Y327661D01*
X700098Y327664D01*
G37*
%LPC*%
G36*
X415733Y880871D02*
X415733Y880871D01*
X410971Y885633D01*
X410971Y891183D01*
X410957Y891274D01*
X410949Y891364D01*
X410937Y891394D01*
X410932Y891426D01*
X410889Y891507D01*
X410853Y891591D01*
X410827Y891623D01*
X410816Y891644D01*
X410793Y891666D01*
X410748Y891722D01*
X351250Y951220D01*
X351176Y951273D01*
X351106Y951333D01*
X351076Y951345D01*
X351050Y951364D01*
X350963Y951391D01*
X350878Y951425D01*
X350837Y951429D01*
X350815Y951436D01*
X350783Y951435D01*
X350711Y951443D01*
X188468Y951443D01*
X188448Y951440D01*
X188429Y951442D01*
X188327Y951420D01*
X188225Y951404D01*
X188208Y951394D01*
X188188Y951390D01*
X188099Y951337D01*
X188008Y951288D01*
X187994Y951274D01*
X187977Y951264D01*
X187910Y951185D01*
X187838Y951110D01*
X187830Y951092D01*
X187817Y951077D01*
X187778Y950981D01*
X187735Y950887D01*
X187733Y950867D01*
X187725Y950849D01*
X187707Y950682D01*
X187707Y950529D01*
X186199Y946888D01*
X183412Y944101D01*
X179771Y942593D01*
X175829Y942593D01*
X172188Y944101D01*
X169401Y946888D01*
X167893Y950529D01*
X167893Y954471D01*
X169401Y958112D01*
X171434Y960144D01*
X171475Y960202D01*
X171525Y960254D01*
X171547Y960301D01*
X171577Y960343D01*
X171598Y960412D01*
X171628Y960477D01*
X171634Y960529D01*
X171649Y960579D01*
X171648Y960650D01*
X171655Y960721D01*
X171644Y960772D01*
X171643Y960824D01*
X171618Y960892D01*
X171603Y960962D01*
X171576Y961007D01*
X171559Y961055D01*
X171514Y961111D01*
X171477Y961173D01*
X171437Y961207D01*
X171405Y961247D01*
X171345Y961286D01*
X171290Y961333D01*
X171242Y961352D01*
X171198Y961380D01*
X171129Y961398D01*
X171062Y961425D01*
X170991Y961433D01*
X170959Y961441D01*
X170936Y961439D01*
X170895Y961443D01*
X116789Y961443D01*
X116698Y961429D01*
X116608Y961421D01*
X116578Y961409D01*
X116546Y961404D01*
X116465Y961361D01*
X116381Y961325D01*
X116349Y961299D01*
X116328Y961288D01*
X116306Y961265D01*
X116250Y961220D01*
X111279Y956249D01*
X111210Y956154D01*
X111141Y956060D01*
X111139Y956054D01*
X111135Y956049D01*
X111101Y955937D01*
X111065Y955826D01*
X111065Y955820D01*
X111063Y955814D01*
X111066Y955697D01*
X111066Y955667D01*
X111065Y955653D01*
X111066Y955644D01*
X111067Y955580D01*
X111069Y955573D01*
X111069Y955568D01*
X111076Y955551D01*
X111114Y955419D01*
X111507Y954471D01*
X111507Y950529D01*
X109999Y946888D01*
X107212Y944101D01*
X103571Y942593D01*
X99629Y942593D01*
X95988Y944101D01*
X93201Y946888D01*
X91693Y950529D01*
X91693Y954471D01*
X93201Y958112D01*
X95988Y960899D01*
X99629Y962407D01*
X103571Y962407D01*
X105792Y961487D01*
X105906Y961460D01*
X106019Y961431D01*
X106025Y961432D01*
X106031Y961430D01*
X106148Y961441D01*
X106264Y961450D01*
X106270Y961453D01*
X106276Y961453D01*
X106384Y961501D01*
X106491Y961547D01*
X106496Y961551D01*
X106501Y961553D01*
X106515Y961566D01*
X106622Y961652D01*
X111220Y966250D01*
X113527Y968557D01*
X171295Y968557D01*
X171366Y968568D01*
X171438Y968570D01*
X171487Y968588D01*
X171538Y968596D01*
X171601Y968630D01*
X171669Y968655D01*
X171709Y968687D01*
X171755Y968712D01*
X171805Y968764D01*
X171861Y968808D01*
X171889Y968852D01*
X171925Y968890D01*
X171955Y968955D01*
X171994Y969015D01*
X172006Y969066D01*
X172028Y969113D01*
X172036Y969184D01*
X172054Y969254D01*
X172050Y969306D01*
X172055Y969357D01*
X172040Y969428D01*
X172035Y969499D01*
X172014Y969547D01*
X172003Y969598D01*
X171966Y969659D01*
X171938Y969725D01*
X171894Y969781D01*
X171877Y969809D01*
X171859Y969824D01*
X171834Y969856D01*
X169401Y972288D01*
X167893Y975929D01*
X167893Y979871D01*
X169401Y983512D01*
X172188Y986299D01*
X175829Y987807D01*
X179771Y987807D01*
X181426Y987121D01*
X181540Y987094D01*
X181653Y987066D01*
X181660Y987066D01*
X181666Y987065D01*
X181782Y987076D01*
X181899Y987085D01*
X181904Y987087D01*
X181911Y987088D01*
X182018Y987136D01*
X182125Y987181D01*
X182131Y987186D01*
X182135Y987188D01*
X182149Y987201D01*
X182256Y987286D01*
X203527Y1008557D01*
X328211Y1008557D01*
X328302Y1008571D01*
X328392Y1008579D01*
X328422Y1008591D01*
X328454Y1008596D01*
X328535Y1008639D01*
X328619Y1008675D01*
X328651Y1008701D01*
X328672Y1008712D01*
X328694Y1008735D01*
X328750Y1008780D01*
X335864Y1015894D01*
X335906Y1015952D01*
X335955Y1016004D01*
X335977Y1016051D01*
X336007Y1016093D01*
X336028Y1016162D01*
X336059Y1016227D01*
X336064Y1016279D01*
X336080Y1016329D01*
X336078Y1016400D01*
X336086Y1016471D01*
X336075Y1016522D01*
X336073Y1016574D01*
X336049Y1016642D01*
X336033Y1016712D01*
X336007Y1016757D01*
X335989Y1016805D01*
X335944Y1016861D01*
X335907Y1016923D01*
X335868Y1016957D01*
X335835Y1016997D01*
X335775Y1017036D01*
X335720Y1017083D01*
X335672Y1017102D01*
X335628Y1017130D01*
X335559Y1017148D01*
X335492Y1017175D01*
X335421Y1017183D01*
X335390Y1017191D01*
X335366Y1017189D01*
X335325Y1017193D01*
X332802Y1017193D01*
X331275Y1018720D01*
X331201Y1018773D01*
X331131Y1018833D01*
X331101Y1018845D01*
X331075Y1018864D01*
X330988Y1018891D01*
X330903Y1018925D01*
X330862Y1018929D01*
X330840Y1018936D01*
X330808Y1018935D01*
X330737Y1018943D01*
X246027Y1018943D01*
X243720Y1021250D01*
X231922Y1033048D01*
X231848Y1033101D01*
X231778Y1033161D01*
X231748Y1033173D01*
X231722Y1033192D01*
X231635Y1033219D01*
X231550Y1033253D01*
X231509Y1033257D01*
X231487Y1033264D01*
X231455Y1033263D01*
X231383Y1033271D01*
X225233Y1033271D01*
X220471Y1038033D01*
X220471Y1044767D01*
X225233Y1049529D01*
X231967Y1049529D01*
X236729Y1044767D01*
X236729Y1038617D01*
X236743Y1038526D01*
X236751Y1038436D01*
X236763Y1038406D01*
X236768Y1038374D01*
X236811Y1038293D01*
X236847Y1038209D01*
X236873Y1038177D01*
X236884Y1038156D01*
X236907Y1038134D01*
X236952Y1038078D01*
X248750Y1026280D01*
X248824Y1026227D01*
X248894Y1026167D01*
X248924Y1026155D01*
X248950Y1026136D01*
X249037Y1026109D01*
X249122Y1026075D01*
X249163Y1026071D01*
X249185Y1026064D01*
X249217Y1026065D01*
X249289Y1026057D01*
X330737Y1026057D01*
X330827Y1026071D01*
X330918Y1026079D01*
X330947Y1026091D01*
X330979Y1026096D01*
X331060Y1026139D01*
X331144Y1026175D01*
X331176Y1026201D01*
X331197Y1026212D01*
X331219Y1026235D01*
X331275Y1026280D01*
X332802Y1027807D01*
X337198Y1027807D01*
X340307Y1024698D01*
X340307Y1022175D01*
X340318Y1022104D01*
X340320Y1022032D01*
X340338Y1021983D01*
X340346Y1021932D01*
X340380Y1021868D01*
X340405Y1021801D01*
X340437Y1021760D01*
X340462Y1021714D01*
X340514Y1021665D01*
X340558Y1021609D01*
X340602Y1021581D01*
X340640Y1021545D01*
X340705Y1021515D01*
X340765Y1021476D01*
X340816Y1021463D01*
X340863Y1021441D01*
X340934Y1021433D01*
X341004Y1021416D01*
X341056Y1021420D01*
X341107Y1021414D01*
X341178Y1021430D01*
X341249Y1021435D01*
X341297Y1021455D01*
X341348Y1021467D01*
X341409Y1021503D01*
X341475Y1021531D01*
X341531Y1021576D01*
X341559Y1021593D01*
X341574Y1021611D01*
X341606Y1021636D01*
X348527Y1028557D01*
X428182Y1028557D01*
X428202Y1028560D01*
X428221Y1028558D01*
X428323Y1028580D01*
X428425Y1028596D01*
X428442Y1028606D01*
X428462Y1028610D01*
X428551Y1028663D01*
X428642Y1028712D01*
X428656Y1028726D01*
X428673Y1028736D01*
X428740Y1028815D01*
X428812Y1028890D01*
X428820Y1028908D01*
X428833Y1028923D01*
X428872Y1029019D01*
X428915Y1029113D01*
X428917Y1029133D01*
X428925Y1029151D01*
X428943Y1029318D01*
X428943Y1059601D01*
X428932Y1059671D01*
X428930Y1059743D01*
X428912Y1059792D01*
X428904Y1059843D01*
X428870Y1059907D01*
X428845Y1059974D01*
X428813Y1060015D01*
X428788Y1060061D01*
X428737Y1060110D01*
X428692Y1060166D01*
X428648Y1060194D01*
X428610Y1060230D01*
X428545Y1060260D01*
X428485Y1060299D01*
X428434Y1060312D01*
X428387Y1060334D01*
X428316Y1060342D01*
X428246Y1060359D01*
X428194Y1060355D01*
X428143Y1060361D01*
X428072Y1060346D01*
X428001Y1060340D01*
X427953Y1060320D01*
X427902Y1060309D01*
X427841Y1060272D01*
X427775Y1060244D01*
X427719Y1060199D01*
X427691Y1060182D01*
X427676Y1060165D01*
X427644Y1060139D01*
X427198Y1059693D01*
X422802Y1059693D01*
X419693Y1062802D01*
X419693Y1064961D01*
X419679Y1065052D01*
X419671Y1065142D01*
X419659Y1065172D01*
X419654Y1065204D01*
X419611Y1065285D01*
X419575Y1065369D01*
X419549Y1065401D01*
X419538Y1065422D01*
X419515Y1065444D01*
X419470Y1065500D01*
X336250Y1148720D01*
X336176Y1148773D01*
X336106Y1148833D01*
X336076Y1148845D01*
X336050Y1148864D01*
X335963Y1148891D01*
X335878Y1148925D01*
X335837Y1148929D01*
X335815Y1148936D01*
X335783Y1148935D01*
X335711Y1148943D01*
X203527Y1148943D01*
X183750Y1168720D01*
X183676Y1168773D01*
X183606Y1168833D01*
X183576Y1168845D01*
X183550Y1168864D01*
X183463Y1168891D01*
X183378Y1168925D01*
X183337Y1168929D01*
X183315Y1168936D01*
X183283Y1168935D01*
X183211Y1168943D01*
X149289Y1168943D01*
X149198Y1168929D01*
X149108Y1168921D01*
X149078Y1168909D01*
X149046Y1168904D01*
X148965Y1168861D01*
X148881Y1168825D01*
X148849Y1168799D01*
X148828Y1168788D01*
X148806Y1168765D01*
X148750Y1168720D01*
X111730Y1131700D01*
X111677Y1131626D01*
X111617Y1131556D01*
X111605Y1131526D01*
X111586Y1131500D01*
X111559Y1131413D01*
X111525Y1131328D01*
X111521Y1131287D01*
X111514Y1131265D01*
X111515Y1131233D01*
X111507Y1131161D01*
X111507Y1128329D01*
X109999Y1124688D01*
X107212Y1121901D01*
X103571Y1120393D01*
X99629Y1120393D01*
X95988Y1121901D01*
X93201Y1124688D01*
X91693Y1128329D01*
X91693Y1132271D01*
X93201Y1135912D01*
X95988Y1138699D01*
X99629Y1140207D01*
X103571Y1140207D01*
X107212Y1138699D01*
X107402Y1138508D01*
X107418Y1138497D01*
X107430Y1138481D01*
X107518Y1138425D01*
X107602Y1138365D01*
X107621Y1138359D01*
X107637Y1138348D01*
X107738Y1138323D01*
X107837Y1138292D01*
X107857Y1138293D01*
X107876Y1138288D01*
X107979Y1138296D01*
X108083Y1138299D01*
X108101Y1138306D01*
X108121Y1138307D01*
X108216Y1138348D01*
X108314Y1138383D01*
X108329Y1138396D01*
X108347Y1138404D01*
X108478Y1138508D01*
X146027Y1176057D01*
X186473Y1176057D01*
X206250Y1156280D01*
X206324Y1156227D01*
X206394Y1156167D01*
X206424Y1156155D01*
X206450Y1156136D01*
X206537Y1156109D01*
X206622Y1156075D01*
X206663Y1156071D01*
X206685Y1156064D01*
X206717Y1156065D01*
X206789Y1156057D01*
X338973Y1156057D01*
X341280Y1153750D01*
X424500Y1070530D01*
X424574Y1070477D01*
X424644Y1070417D01*
X424674Y1070405D01*
X424700Y1070386D01*
X424787Y1070359D01*
X424872Y1070325D01*
X424913Y1070321D01*
X424935Y1070314D01*
X424967Y1070315D01*
X425039Y1070307D01*
X427198Y1070307D01*
X427644Y1069861D01*
X427702Y1069819D01*
X427754Y1069770D01*
X427801Y1069748D01*
X427843Y1069718D01*
X427912Y1069696D01*
X427977Y1069666D01*
X428029Y1069661D01*
X428079Y1069645D01*
X428150Y1069647D01*
X428221Y1069639D01*
X428272Y1069650D01*
X428324Y1069652D01*
X428392Y1069676D01*
X428462Y1069691D01*
X428507Y1069718D01*
X428555Y1069736D01*
X428611Y1069781D01*
X428673Y1069818D01*
X428707Y1069857D01*
X428747Y1069890D01*
X428786Y1069950D01*
X428833Y1070005D01*
X428852Y1070053D01*
X428880Y1070097D01*
X428898Y1070166D01*
X428925Y1070233D01*
X428933Y1070304D01*
X428941Y1070335D01*
X428939Y1070358D01*
X428943Y1070399D01*
X428943Y1093973D01*
X499648Y1164678D01*
X499701Y1164752D01*
X499761Y1164822D01*
X499773Y1164852D01*
X499792Y1164878D01*
X499818Y1164965D01*
X499853Y1165050D01*
X499857Y1165091D01*
X499864Y1165113D01*
X499863Y1165145D01*
X499871Y1165217D01*
X499871Y1171767D01*
X504633Y1176529D01*
X511367Y1176529D01*
X516129Y1171767D01*
X516129Y1165033D01*
X511367Y1160271D01*
X505617Y1160271D01*
X505526Y1160257D01*
X505436Y1160249D01*
X505406Y1160237D01*
X505374Y1160232D01*
X505293Y1160189D01*
X505209Y1160153D01*
X505177Y1160127D01*
X505156Y1160116D01*
X505134Y1160093D01*
X505078Y1160048D01*
X436280Y1091250D01*
X436227Y1091176D01*
X436167Y1091106D01*
X436155Y1091076D01*
X436136Y1091050D01*
X436109Y1090963D01*
X436075Y1090878D01*
X436071Y1090837D01*
X436064Y1090815D01*
X436065Y1090783D01*
X436057Y1090711D01*
X436057Y1023527D01*
X433973Y1021443D01*
X351789Y1021443D01*
X351698Y1021429D01*
X351608Y1021421D01*
X351578Y1021409D01*
X351546Y1021404D01*
X351465Y1021361D01*
X351381Y1021325D01*
X351349Y1021299D01*
X351328Y1021288D01*
X351306Y1021265D01*
X351250Y1021220D01*
X331473Y1001443D01*
X206789Y1001443D01*
X206698Y1001429D01*
X206608Y1001421D01*
X206578Y1001409D01*
X206546Y1001404D01*
X206465Y1001361D01*
X206381Y1001325D01*
X206349Y1001299D01*
X206328Y1001288D01*
X206306Y1001265D01*
X206250Y1001220D01*
X187244Y982215D01*
X187176Y982120D01*
X187107Y982026D01*
X187105Y982020D01*
X187101Y982015D01*
X187067Y981904D01*
X187030Y981792D01*
X187030Y981786D01*
X187029Y981780D01*
X187032Y981663D01*
X187033Y981546D01*
X187035Y981539D01*
X187035Y981534D01*
X187041Y981516D01*
X187079Y981385D01*
X187707Y979871D01*
X187707Y975929D01*
X186199Y972288D01*
X183766Y969856D01*
X183725Y969798D01*
X183675Y969746D01*
X183653Y969699D01*
X183623Y969657D01*
X183602Y969588D01*
X183572Y969523D01*
X183566Y969471D01*
X183551Y969421D01*
X183552Y969350D01*
X183545Y969279D01*
X183556Y969228D01*
X183557Y969176D01*
X183582Y969108D01*
X183597Y969038D01*
X183624Y968993D01*
X183641Y968945D01*
X183686Y968889D01*
X183723Y968827D01*
X183763Y968793D01*
X183795Y968753D01*
X183855Y968714D01*
X183910Y968667D01*
X183958Y968648D01*
X184002Y968620D01*
X184071Y968602D01*
X184138Y968575D01*
X184209Y968567D01*
X184241Y968559D01*
X184264Y968561D01*
X184305Y968557D01*
X185711Y968557D01*
X185802Y968571D01*
X185892Y968579D01*
X185922Y968591D01*
X185954Y968596D01*
X186035Y968639D01*
X186119Y968675D01*
X186151Y968701D01*
X186172Y968712D01*
X186194Y968735D01*
X186250Y968780D01*
X196970Y979500D01*
X197023Y979574D01*
X197083Y979644D01*
X197095Y979674D01*
X197114Y979700D01*
X197141Y979787D01*
X197162Y979841D01*
X197165Y979847D01*
X197165Y979848D01*
X197175Y979872D01*
X197179Y979913D01*
X197186Y979935D01*
X197185Y979967D01*
X197193Y980039D01*
X197193Y982198D01*
X200302Y985307D01*
X204698Y985307D01*
X207807Y982198D01*
X207807Y978568D01*
X207810Y978548D01*
X207808Y978529D01*
X207830Y978427D01*
X207846Y978325D01*
X207856Y978308D01*
X207860Y978288D01*
X207913Y978199D01*
X207962Y978108D01*
X207976Y978094D01*
X207986Y978077D01*
X208065Y978010D01*
X208140Y977938D01*
X208158Y977930D01*
X208173Y977917D01*
X208269Y977878D01*
X208363Y977835D01*
X208383Y977833D01*
X208401Y977825D01*
X208568Y977807D01*
X209961Y977807D01*
X210052Y977821D01*
X210142Y977829D01*
X210172Y977841D01*
X210204Y977846D01*
X210285Y977889D01*
X210369Y977925D01*
X210401Y977951D01*
X210422Y977962D01*
X210444Y977985D01*
X210500Y978030D01*
X220248Y987778D01*
X220301Y987852D01*
X220361Y987922D01*
X220373Y987952D01*
X220392Y987978D01*
X220419Y988065D01*
X220453Y988150D01*
X220457Y988191D01*
X220464Y988213D01*
X220463Y988245D01*
X220471Y988317D01*
X220471Y993967D01*
X225233Y998729D01*
X231967Y998729D01*
X236729Y993967D01*
X236729Y987233D01*
X231967Y982471D01*
X225317Y982471D01*
X225226Y982457D01*
X225136Y982449D01*
X225106Y982437D01*
X225074Y982432D01*
X224993Y982389D01*
X224909Y982353D01*
X224877Y982327D01*
X224856Y982316D01*
X224834Y982293D01*
X224778Y982248D01*
X215530Y973000D01*
X215477Y972926D01*
X215417Y972856D01*
X215405Y972826D01*
X215386Y972800D01*
X215359Y972713D01*
X215325Y972628D01*
X215321Y972587D01*
X215314Y972565D01*
X215315Y972533D01*
X215307Y972461D01*
X215307Y970302D01*
X214861Y969856D01*
X214819Y969798D01*
X214770Y969746D01*
X214748Y969699D01*
X214718Y969657D01*
X214696Y969588D01*
X214666Y969523D01*
X214661Y969471D01*
X214645Y969421D01*
X214647Y969350D01*
X214639Y969279D01*
X214650Y969228D01*
X214652Y969176D01*
X214676Y969108D01*
X214691Y969038D01*
X214718Y968993D01*
X214736Y968945D01*
X214781Y968889D01*
X214818Y968827D01*
X214857Y968793D01*
X214890Y968753D01*
X214950Y968714D01*
X215005Y968667D01*
X215053Y968648D01*
X215097Y968620D01*
X215166Y968602D01*
X215233Y968575D01*
X215304Y968567D01*
X215335Y968559D01*
X215358Y968561D01*
X215399Y968557D01*
X273211Y968557D01*
X273302Y968571D01*
X273392Y968579D01*
X273422Y968591D01*
X273454Y968596D01*
X273535Y968639D01*
X273619Y968675D01*
X273651Y968701D01*
X273672Y968712D01*
X273694Y968735D01*
X273750Y968780D01*
X296220Y991250D01*
X296448Y991478D01*
X296501Y991552D01*
X296561Y991622D01*
X296573Y991652D01*
X296592Y991678D01*
X296619Y991765D01*
X296653Y991850D01*
X296657Y991891D01*
X296664Y991913D01*
X296663Y991945D01*
X296671Y992017D01*
X296671Y993967D01*
X301433Y998729D01*
X308167Y998729D01*
X312929Y993967D01*
X312929Y987233D01*
X308167Y982471D01*
X301433Y982471D01*
X300005Y983899D01*
X299989Y983910D01*
X299977Y983926D01*
X299890Y983982D01*
X299806Y984042D01*
X299787Y984048D01*
X299770Y984059D01*
X299669Y984084D01*
X299571Y984115D01*
X299551Y984114D01*
X299531Y984119D01*
X299428Y984111D01*
X299325Y984108D01*
X299306Y984102D01*
X299286Y984100D01*
X299191Y984060D01*
X299094Y984024D01*
X299078Y984011D01*
X299060Y984004D01*
X298929Y983899D01*
X276473Y961443D01*
X208568Y961443D01*
X208548Y961440D01*
X208529Y961442D01*
X208427Y961420D01*
X208325Y961404D01*
X208308Y961394D01*
X208288Y961390D01*
X208199Y961337D01*
X208108Y961288D01*
X208094Y961274D01*
X208077Y961264D01*
X208010Y961185D01*
X207938Y961110D01*
X207930Y961092D01*
X207917Y961077D01*
X207878Y960981D01*
X207835Y960887D01*
X207833Y960867D01*
X207825Y960849D01*
X207807Y960682D01*
X207807Y960302D01*
X207361Y959856D01*
X207319Y959798D01*
X207270Y959746D01*
X207248Y959699D01*
X207218Y959657D01*
X207196Y959588D01*
X207166Y959523D01*
X207161Y959471D01*
X207145Y959421D01*
X207147Y959350D01*
X207139Y959279D01*
X207150Y959228D01*
X207152Y959176D01*
X207176Y959108D01*
X207191Y959038D01*
X207218Y958993D01*
X207236Y958945D01*
X207281Y958889D01*
X207318Y958827D01*
X207357Y958793D01*
X207390Y958753D01*
X207450Y958714D01*
X207505Y958667D01*
X207553Y958648D01*
X207597Y958620D01*
X207666Y958602D01*
X207733Y958575D01*
X207804Y958567D01*
X207835Y958559D01*
X207858Y958561D01*
X207899Y958557D01*
X353973Y958557D01*
X415178Y897352D01*
X415252Y897299D01*
X415322Y897239D01*
X415352Y897227D01*
X415378Y897208D01*
X415465Y897181D01*
X415550Y897147D01*
X415591Y897143D01*
X415613Y897136D01*
X415645Y897137D01*
X415717Y897129D01*
X422467Y897129D01*
X422995Y896601D01*
X423011Y896590D01*
X423023Y896574D01*
X423110Y896518D01*
X423194Y896458D01*
X423213Y896452D01*
X423230Y896441D01*
X423331Y896416D01*
X423429Y896385D01*
X423449Y896386D01*
X423469Y896381D01*
X423572Y896389D01*
X423675Y896392D01*
X423694Y896398D01*
X423714Y896400D01*
X423809Y896440D01*
X423906Y896476D01*
X423922Y896489D01*
X423940Y896496D01*
X424071Y896601D01*
X621970Y1094500D01*
X622018Y1094567D01*
X622024Y1094573D01*
X622026Y1094577D01*
X622083Y1094644D01*
X622095Y1094674D01*
X622114Y1094700D01*
X622141Y1094787D01*
X622175Y1094872D01*
X622179Y1094913D01*
X622186Y1094935D01*
X622185Y1094967D01*
X622193Y1095039D01*
X622193Y1097198D01*
X625302Y1100307D01*
X629698Y1100307D01*
X632807Y1097198D01*
X632807Y1092802D01*
X629698Y1089693D01*
X627539Y1089693D01*
X627448Y1089679D01*
X627358Y1089671D01*
X627328Y1089659D01*
X627296Y1089654D01*
X627215Y1089611D01*
X627131Y1089575D01*
X627099Y1089549D01*
X627078Y1089538D01*
X627059Y1089518D01*
X627057Y1089517D01*
X627052Y1089512D01*
X627000Y1089470D01*
X427452Y889922D01*
X427399Y889848D01*
X427339Y889778D01*
X427327Y889748D01*
X427308Y889722D01*
X427281Y889635D01*
X427247Y889550D01*
X427243Y889509D01*
X427236Y889487D01*
X427237Y889455D01*
X427229Y889383D01*
X427229Y885633D01*
X422467Y880871D01*
X415733Y880871D01*
G37*
%LPD*%
%LPC*%
G36*
X417306Y740282D02*
X417306Y740282D01*
X413992Y741655D01*
X411455Y744192D01*
X410082Y747506D01*
X410082Y751094D01*
X411455Y754408D01*
X413992Y756945D01*
X417306Y758318D01*
X420894Y758318D01*
X422117Y757811D01*
X422183Y757796D01*
X422208Y757785D01*
X422241Y757782D01*
X422344Y757756D01*
X422350Y757756D01*
X422356Y757755D01*
X422473Y757766D01*
X422589Y757775D01*
X422595Y757778D01*
X422601Y757778D01*
X422709Y757826D01*
X422815Y757871D01*
X422821Y757876D01*
X422826Y757878D01*
X422839Y757891D01*
X422871Y757916D01*
X422882Y757922D01*
X422893Y757934D01*
X422946Y757976D01*
X488527Y823557D01*
X522101Y823557D01*
X522171Y823568D01*
X522243Y823570D01*
X522292Y823588D01*
X522343Y823596D01*
X522407Y823630D01*
X522474Y823655D01*
X522515Y823687D01*
X522561Y823712D01*
X522610Y823763D01*
X522666Y823808D01*
X522694Y823852D01*
X522730Y823890D01*
X522760Y823955D01*
X522799Y824015D01*
X522812Y824066D01*
X522834Y824113D01*
X522842Y824184D01*
X522859Y824254D01*
X522855Y824306D01*
X522861Y824357D01*
X522846Y824428D01*
X522840Y824499D01*
X522820Y824547D01*
X522809Y824598D01*
X522772Y824659D01*
X522744Y824725D01*
X522699Y824781D01*
X522682Y824809D01*
X522665Y824824D01*
X522639Y824856D01*
X522193Y825302D01*
X522193Y825682D01*
X522190Y825702D01*
X522192Y825721D01*
X522170Y825823D01*
X522154Y825925D01*
X522144Y825942D01*
X522140Y825962D01*
X522087Y826051D01*
X522038Y826142D01*
X522024Y826156D01*
X522014Y826173D01*
X521935Y826240D01*
X521860Y826312D01*
X521842Y826320D01*
X521827Y826333D01*
X521731Y826372D01*
X521637Y826415D01*
X521617Y826417D01*
X521599Y826425D01*
X521432Y826443D01*
X446027Y826443D01*
X423750Y848720D01*
X423676Y848773D01*
X423606Y848833D01*
X423576Y848845D01*
X423550Y848864D01*
X423463Y848891D01*
X423378Y848925D01*
X423337Y848929D01*
X423315Y848936D01*
X423283Y848935D01*
X423211Y848943D01*
X188221Y848943D01*
X188106Y848924D01*
X187990Y848907D01*
X187985Y848905D01*
X187978Y848904D01*
X187876Y848849D01*
X187771Y848796D01*
X187766Y848791D01*
X187761Y848788D01*
X187681Y848704D01*
X187599Y848620D01*
X187595Y848614D01*
X187592Y848610D01*
X187584Y848593D01*
X187518Y848473D01*
X186199Y845288D01*
X183386Y842476D01*
X183377Y842470D01*
X183291Y842424D01*
X183273Y842406D01*
X183251Y842392D01*
X183188Y842317D01*
X183121Y842246D01*
X183110Y842222D01*
X183094Y842202D01*
X183059Y842111D01*
X183018Y842023D01*
X183015Y841997D01*
X183005Y841973D01*
X183001Y841875D01*
X182991Y841779D01*
X182996Y841753D01*
X182995Y841727D01*
X183022Y841634D01*
X183043Y841538D01*
X183056Y841516D01*
X183064Y841491D01*
X183119Y841411D01*
X183169Y841327D01*
X183189Y841310D01*
X183204Y841289D01*
X183282Y841230D01*
X183356Y841167D01*
X183380Y841157D01*
X183401Y841142D01*
X183494Y841112D01*
X183584Y841075D01*
X183616Y841072D01*
X183635Y841066D01*
X183668Y841066D01*
X183751Y841057D01*
X219710Y841057D01*
X219730Y841060D01*
X219749Y841058D01*
X219851Y841080D01*
X219953Y841096D01*
X219970Y841106D01*
X219990Y841110D01*
X220079Y841163D01*
X220170Y841212D01*
X220184Y841226D01*
X220201Y841236D01*
X220268Y841315D01*
X220340Y841390D01*
X220348Y841408D01*
X220361Y841423D01*
X220383Y841479D01*
X225233Y846329D01*
X231967Y846329D01*
X236729Y841567D01*
X236729Y834833D01*
X231967Y830071D01*
X225233Y830071D01*
X221584Y833720D01*
X221510Y833773D01*
X221441Y833833D01*
X221410Y833845D01*
X221384Y833864D01*
X221297Y833891D01*
X221212Y833925D01*
X221171Y833929D01*
X221149Y833936D01*
X221117Y833935D01*
X221046Y833943D01*
X185205Y833943D01*
X185134Y833932D01*
X185062Y833930D01*
X185013Y833912D01*
X184962Y833904D01*
X184899Y833870D01*
X184831Y833845D01*
X184791Y833813D01*
X184745Y833788D01*
X184695Y833736D01*
X184639Y833692D01*
X184611Y833648D01*
X184575Y833610D01*
X184545Y833545D01*
X184506Y833485D01*
X184494Y833434D01*
X184472Y833387D01*
X184464Y833316D01*
X184446Y833246D01*
X184450Y833194D01*
X184445Y833143D01*
X184460Y833072D01*
X184465Y833001D01*
X184486Y832953D01*
X184497Y832902D01*
X184534Y832841D01*
X184562Y832775D01*
X184606Y832719D01*
X184623Y832691D01*
X184641Y832676D01*
X184666Y832644D01*
X186199Y831112D01*
X187707Y827471D01*
X187707Y823529D01*
X186199Y819888D01*
X183412Y817101D01*
X179771Y815593D01*
X175829Y815593D01*
X172188Y817101D01*
X169401Y819888D01*
X167893Y823529D01*
X167893Y827471D01*
X169401Y831112D01*
X170934Y832644D01*
X170975Y832702D01*
X171025Y832754D01*
X171047Y832801D01*
X171077Y832843D01*
X171098Y832912D01*
X171128Y832977D01*
X171134Y833029D01*
X171149Y833079D01*
X171148Y833150D01*
X171155Y833221D01*
X171144Y833272D01*
X171143Y833324D01*
X171118Y833392D01*
X171103Y833462D01*
X171076Y833507D01*
X171059Y833555D01*
X171014Y833611D01*
X170977Y833673D01*
X170937Y833707D01*
X170905Y833747D01*
X170845Y833786D01*
X170790Y833833D01*
X170742Y833852D01*
X170698Y833880D01*
X170629Y833898D01*
X170562Y833925D01*
X170491Y833933D01*
X170459Y833941D01*
X170436Y833939D01*
X170395Y833943D01*
X146763Y833943D01*
X146673Y833929D01*
X146582Y833921D01*
X146553Y833909D01*
X146521Y833904D01*
X146440Y833861D01*
X146356Y833825D01*
X146324Y833799D01*
X146303Y833788D01*
X146281Y833765D01*
X146225Y833720D01*
X144698Y832193D01*
X140302Y832193D01*
X137193Y835302D01*
X137193Y839698D01*
X140302Y842807D01*
X144698Y842807D01*
X146225Y841280D01*
X146299Y841227D01*
X146369Y841167D01*
X146399Y841155D01*
X146425Y841136D01*
X146512Y841109D01*
X146597Y841075D01*
X146638Y841071D01*
X146660Y841064D01*
X146692Y841065D01*
X146763Y841057D01*
X171849Y841057D01*
X171945Y841072D01*
X172042Y841082D01*
X172066Y841092D01*
X172092Y841096D01*
X172178Y841142D01*
X172267Y841182D01*
X172286Y841199D01*
X172309Y841212D01*
X172376Y841282D01*
X172448Y841348D01*
X172461Y841371D01*
X172479Y841390D01*
X172520Y841478D01*
X172567Y841564D01*
X172571Y841589D01*
X172582Y841613D01*
X172593Y841709D01*
X172610Y841806D01*
X172607Y841832D01*
X172609Y841857D01*
X172589Y841953D01*
X172574Y842049D01*
X172563Y842072D01*
X172557Y842098D01*
X172507Y842181D01*
X172463Y842268D01*
X172444Y842287D01*
X172431Y842309D01*
X172357Y842372D01*
X172287Y842440D01*
X172259Y842456D01*
X172244Y842469D01*
X172213Y842481D01*
X172203Y842487D01*
X169401Y845288D01*
X167893Y848929D01*
X167893Y852871D01*
X169401Y856512D01*
X172188Y859299D01*
X175829Y860807D01*
X179771Y860807D01*
X183412Y859299D01*
X186207Y856504D01*
X186254Y856427D01*
X186314Y856327D01*
X186319Y856323D01*
X186322Y856318D01*
X186412Y856243D01*
X186501Y856167D01*
X186507Y856165D01*
X186511Y856161D01*
X186620Y856119D01*
X186729Y856075D01*
X186736Y856074D01*
X186741Y856073D01*
X186759Y856072D01*
X186896Y856057D01*
X369601Y856057D01*
X369671Y856068D01*
X369743Y856070D01*
X369792Y856088D01*
X369843Y856096D01*
X369907Y856130D01*
X369974Y856155D01*
X370015Y856187D01*
X370061Y856212D01*
X370110Y856263D01*
X370166Y856308D01*
X370194Y856352D01*
X370230Y856390D01*
X370260Y856455D01*
X370299Y856515D01*
X370312Y856566D01*
X370334Y856613D01*
X370342Y856684D01*
X370359Y856754D01*
X370355Y856806D01*
X370361Y856857D01*
X370346Y856928D01*
X370340Y856999D01*
X370320Y857047D01*
X370309Y857098D01*
X370272Y857159D01*
X370244Y857225D01*
X370199Y857281D01*
X370182Y857309D01*
X370165Y857324D01*
X370139Y857356D01*
X369693Y857802D01*
X369693Y859961D01*
X369679Y860052D01*
X369671Y860142D01*
X369659Y860172D01*
X369654Y860204D01*
X369611Y860285D01*
X369575Y860369D01*
X369549Y860401D01*
X369538Y860422D01*
X369515Y860444D01*
X369470Y860500D01*
X358750Y871220D01*
X358676Y871273D01*
X358606Y871333D01*
X358576Y871345D01*
X358550Y871364D01*
X358463Y871391D01*
X358378Y871425D01*
X358337Y871429D01*
X358315Y871436D01*
X358283Y871435D01*
X358211Y871443D01*
X261027Y871443D01*
X213750Y918720D01*
X213676Y918773D01*
X213606Y918833D01*
X213576Y918845D01*
X213550Y918864D01*
X213463Y918891D01*
X213378Y918925D01*
X213337Y918929D01*
X213315Y918936D01*
X213283Y918935D01*
X213211Y918943D01*
X183969Y918943D01*
X183879Y918929D01*
X183788Y918921D01*
X183758Y918909D01*
X183726Y918904D01*
X183645Y918861D01*
X183562Y918825D01*
X183529Y918799D01*
X183509Y918788D01*
X183487Y918765D01*
X183431Y918720D01*
X183412Y918701D01*
X179771Y917193D01*
X175829Y917193D01*
X172188Y918701D01*
X169401Y921488D01*
X167893Y925129D01*
X167893Y929071D01*
X169401Y932712D01*
X172188Y935499D01*
X175829Y937007D01*
X179771Y937007D01*
X183412Y935499D01*
X186199Y932712D01*
X187707Y929071D01*
X187707Y926818D01*
X187710Y926798D01*
X187708Y926779D01*
X187730Y926677D01*
X187746Y926575D01*
X187756Y926558D01*
X187760Y926538D01*
X187813Y926449D01*
X187862Y926358D01*
X187876Y926344D01*
X187886Y926327D01*
X187965Y926260D01*
X188040Y926188D01*
X188058Y926180D01*
X188073Y926167D01*
X188169Y926128D01*
X188263Y926085D01*
X188283Y926083D01*
X188301Y926075D01*
X188468Y926057D01*
X216473Y926057D01*
X263750Y878780D01*
X263824Y878727D01*
X263894Y878667D01*
X263924Y878655D01*
X263950Y878636D01*
X264037Y878609D01*
X264122Y878575D01*
X264163Y878571D01*
X264185Y878564D01*
X264217Y878565D01*
X264289Y878557D01*
X279601Y878557D01*
X279671Y878568D01*
X279743Y878570D01*
X279792Y878588D01*
X279843Y878596D01*
X279907Y878630D01*
X279974Y878655D01*
X280015Y878687D01*
X280061Y878712D01*
X280110Y878763D01*
X280166Y878808D01*
X280194Y878852D01*
X280230Y878890D01*
X280260Y878955D01*
X280299Y879015D01*
X280312Y879066D01*
X280334Y879113D01*
X280342Y879184D01*
X280359Y879254D01*
X280355Y879306D01*
X280361Y879357D01*
X280346Y879428D01*
X280340Y879499D01*
X280320Y879547D01*
X280309Y879598D01*
X280272Y879659D01*
X280244Y879725D01*
X280199Y879781D01*
X280182Y879809D01*
X280165Y879824D01*
X280139Y879856D01*
X279693Y880302D01*
X279693Y884698D01*
X282802Y887807D01*
X284961Y887807D01*
X285052Y887821D01*
X285142Y887829D01*
X285172Y887841D01*
X285204Y887846D01*
X285285Y887889D01*
X285369Y887925D01*
X285401Y887951D01*
X285422Y887962D01*
X285444Y887985D01*
X285500Y888030D01*
X288527Y891057D01*
X295910Y891057D01*
X295930Y891060D01*
X295949Y891058D01*
X296051Y891080D01*
X296153Y891096D01*
X296170Y891106D01*
X296190Y891110D01*
X296279Y891163D01*
X296370Y891212D01*
X296384Y891226D01*
X296401Y891236D01*
X296468Y891315D01*
X296540Y891390D01*
X296548Y891408D01*
X296561Y891423D01*
X296600Y891519D01*
X296643Y891613D01*
X296645Y891633D01*
X296653Y891651D01*
X296671Y891818D01*
X296671Y892367D01*
X301433Y897129D01*
X308167Y897129D01*
X312929Y892367D01*
X312929Y885633D01*
X308167Y880871D01*
X301433Y880871D01*
X298584Y883720D01*
X298510Y883773D01*
X298441Y883833D01*
X298410Y883845D01*
X298384Y883864D01*
X298297Y883891D01*
X298212Y883925D01*
X298171Y883929D01*
X298149Y883936D01*
X298117Y883935D01*
X298046Y883943D01*
X291789Y883943D01*
X291698Y883929D01*
X291608Y883921D01*
X291578Y883909D01*
X291546Y883904D01*
X291465Y883861D01*
X291381Y883825D01*
X291349Y883799D01*
X291328Y883788D01*
X291306Y883765D01*
X291250Y883720D01*
X290530Y883000D01*
X290477Y882926D01*
X290417Y882856D01*
X290405Y882826D01*
X290386Y882800D01*
X290359Y882713D01*
X290325Y882628D01*
X290321Y882587D01*
X290314Y882565D01*
X290315Y882533D01*
X290307Y882461D01*
X290307Y880302D01*
X289861Y879856D01*
X289819Y879798D01*
X289770Y879746D01*
X289748Y879699D01*
X289718Y879657D01*
X289696Y879588D01*
X289666Y879523D01*
X289661Y879471D01*
X289645Y879421D01*
X289647Y879350D01*
X289639Y879279D01*
X289650Y879228D01*
X289652Y879176D01*
X289676Y879108D01*
X289691Y879038D01*
X289718Y878993D01*
X289736Y878945D01*
X289781Y878889D01*
X289818Y878827D01*
X289857Y878793D01*
X289890Y878753D01*
X289950Y878714D01*
X290005Y878667D01*
X290053Y878648D01*
X290097Y878620D01*
X290166Y878602D01*
X290233Y878575D01*
X290304Y878567D01*
X290335Y878559D01*
X290358Y878561D01*
X290399Y878557D01*
X361473Y878557D01*
X363780Y876250D01*
X374500Y865530D01*
X374574Y865477D01*
X374644Y865417D01*
X374674Y865405D01*
X374700Y865386D01*
X374787Y865359D01*
X374872Y865325D01*
X374913Y865321D01*
X374935Y865314D01*
X374967Y865315D01*
X375039Y865307D01*
X377198Y865307D01*
X380307Y862198D01*
X380307Y857802D01*
X379861Y857356D01*
X379819Y857298D01*
X379770Y857246D01*
X379748Y857199D01*
X379718Y857157D01*
X379696Y857088D01*
X379666Y857023D01*
X379661Y856971D01*
X379645Y856921D01*
X379647Y856850D01*
X379639Y856779D01*
X379650Y856728D01*
X379652Y856676D01*
X379676Y856608D01*
X379691Y856538D01*
X379718Y856493D01*
X379736Y856445D01*
X379781Y856389D01*
X379818Y856327D01*
X379857Y856293D01*
X379890Y856253D01*
X379950Y856214D01*
X380005Y856167D01*
X380053Y856148D01*
X380097Y856120D01*
X380166Y856102D01*
X380233Y856075D01*
X380304Y856067D01*
X380335Y856059D01*
X380358Y856061D01*
X380399Y856057D01*
X426473Y856057D01*
X448750Y833780D01*
X448824Y833727D01*
X448894Y833667D01*
X448924Y833655D01*
X448950Y833636D01*
X449037Y833609D01*
X449122Y833575D01*
X449163Y833571D01*
X449185Y833564D01*
X449217Y833565D01*
X449289Y833557D01*
X526473Y833557D01*
X527000Y833030D01*
X527074Y832977D01*
X527144Y832917D01*
X527174Y832905D01*
X527200Y832886D01*
X527287Y832859D01*
X527372Y832825D01*
X527413Y832821D01*
X527435Y832814D01*
X527467Y832815D01*
X527539Y832807D01*
X529698Y832807D01*
X532807Y829698D01*
X532807Y825302D01*
X532361Y824856D01*
X532319Y824798D01*
X532270Y824746D01*
X532248Y824699D01*
X532218Y824657D01*
X532196Y824588D01*
X532166Y824523D01*
X532161Y824471D01*
X532145Y824421D01*
X532147Y824350D01*
X532139Y824279D01*
X532150Y824228D01*
X532152Y824176D01*
X532176Y824108D01*
X532191Y824038D01*
X532218Y823993D01*
X532236Y823945D01*
X532281Y823889D01*
X532318Y823827D01*
X532357Y823793D01*
X532390Y823753D01*
X532450Y823714D01*
X532505Y823667D01*
X532553Y823648D01*
X532597Y823620D01*
X532666Y823602D01*
X532733Y823575D01*
X532804Y823567D01*
X532835Y823559D01*
X532858Y823561D01*
X532899Y823557D01*
X603211Y823557D01*
X603302Y823571D01*
X603392Y823579D01*
X603422Y823591D01*
X603454Y823596D01*
X603535Y823639D01*
X603619Y823675D01*
X603651Y823701D01*
X603672Y823712D01*
X603694Y823735D01*
X603750Y823780D01*
X611970Y832000D01*
X612023Y832074D01*
X612083Y832144D01*
X612095Y832174D01*
X612114Y832200D01*
X612141Y832287D01*
X612175Y832372D01*
X612179Y832413D01*
X612186Y832435D01*
X612185Y832467D01*
X612193Y832539D01*
X612193Y834724D01*
X612190Y834744D01*
X612192Y834763D01*
X612170Y834865D01*
X612154Y834967D01*
X612144Y834984D01*
X612140Y835004D01*
X612087Y835093D01*
X612038Y835184D01*
X612024Y835198D01*
X612014Y835215D01*
X611935Y835282D01*
X611860Y835354D01*
X611842Y835362D01*
X611827Y835375D01*
X611731Y835414D01*
X611637Y835457D01*
X611617Y835459D01*
X611599Y835467D01*
X611432Y835485D01*
X607797Y835485D01*
X604465Y836865D01*
X601915Y839415D01*
X600535Y842747D01*
X600535Y846353D01*
X601915Y849685D01*
X604465Y852235D01*
X607797Y853615D01*
X611403Y853615D01*
X614735Y852235D01*
X617285Y849685D01*
X618665Y846353D01*
X618665Y842747D01*
X617285Y839415D01*
X616976Y839106D01*
X616934Y839048D01*
X616885Y838996D01*
X616863Y838949D01*
X616832Y838907D01*
X616811Y838838D01*
X616781Y838773D01*
X616775Y838721D01*
X616760Y838671D01*
X616762Y838600D01*
X616754Y838529D01*
X616765Y838478D01*
X616766Y838426D01*
X616791Y838358D01*
X616806Y838288D01*
X616833Y838243D01*
X616851Y838195D01*
X616895Y838139D01*
X616932Y838077D01*
X616972Y838043D01*
X617004Y838003D01*
X617065Y837964D01*
X617119Y837917D01*
X617168Y837898D01*
X617211Y837870D01*
X617281Y837852D01*
X617347Y837825D01*
X617419Y837817D01*
X617450Y837809D01*
X617473Y837811D01*
X617514Y837807D01*
X619698Y837807D01*
X622807Y834698D01*
X622807Y830302D01*
X619698Y827193D01*
X617539Y827193D01*
X617448Y827179D01*
X617358Y827171D01*
X617328Y827159D01*
X617296Y827154D01*
X617215Y827111D01*
X617131Y827075D01*
X617099Y827049D01*
X617078Y827038D01*
X617056Y827015D01*
X617000Y826970D01*
X606473Y816443D01*
X491789Y816443D01*
X491698Y816429D01*
X491608Y816421D01*
X491578Y816409D01*
X491546Y816404D01*
X491465Y816361D01*
X491381Y816325D01*
X491349Y816299D01*
X491328Y816288D01*
X491306Y816265D01*
X491250Y816220D01*
X427893Y752863D01*
X427825Y752768D01*
X427755Y752675D01*
X427753Y752669D01*
X427750Y752664D01*
X427716Y752552D01*
X427679Y752441D01*
X427679Y752435D01*
X427677Y752429D01*
X427680Y752312D01*
X427682Y752195D01*
X427684Y752188D01*
X427684Y752183D01*
X427690Y752165D01*
X427728Y752034D01*
X428118Y751094D01*
X428118Y747506D01*
X426745Y744192D01*
X424208Y741655D01*
X420894Y740282D01*
X417306Y740282D01*
G37*
%LPD*%
%LPC*%
G36*
X144275Y740282D02*
X144275Y740282D01*
X143382Y741175D01*
X143382Y757425D01*
X144275Y758318D01*
X160525Y758318D01*
X161418Y757425D01*
X161418Y755786D01*
X161429Y755715D01*
X161431Y755643D01*
X161449Y755594D01*
X161457Y755543D01*
X161491Y755479D01*
X161516Y755412D01*
X161548Y755371D01*
X161573Y755325D01*
X161625Y755276D01*
X161669Y755220D01*
X161713Y755192D01*
X161751Y755156D01*
X161816Y755126D01*
X161876Y755087D01*
X161927Y755074D01*
X161974Y755052D01*
X162045Y755044D01*
X162115Y755027D01*
X162167Y755031D01*
X162218Y755025D01*
X162289Y755041D01*
X162360Y755046D01*
X162408Y755066D01*
X162459Y755078D01*
X162520Y755114D01*
X162586Y755142D01*
X162642Y755187D01*
X162670Y755204D01*
X162685Y755222D01*
X162717Y755247D01*
X176027Y768557D01*
X366432Y768557D01*
X366452Y768560D01*
X366471Y768558D01*
X366573Y768580D01*
X366675Y768596D01*
X366692Y768606D01*
X366712Y768610D01*
X366801Y768663D01*
X366892Y768712D01*
X366906Y768726D01*
X366923Y768736D01*
X366990Y768815D01*
X367062Y768890D01*
X367070Y768908D01*
X367083Y768923D01*
X367122Y769019D01*
X367165Y769113D01*
X367167Y769133D01*
X367175Y769151D01*
X367193Y769318D01*
X367193Y769698D01*
X370302Y772807D01*
X372825Y772807D01*
X372896Y772818D01*
X372968Y772820D01*
X373017Y772838D01*
X373068Y772846D01*
X373132Y772880D01*
X373199Y772905D01*
X373240Y772937D01*
X373286Y772962D01*
X373335Y773014D01*
X373391Y773058D01*
X373419Y773102D01*
X373455Y773140D01*
X373485Y773205D01*
X373524Y773265D01*
X373537Y773316D01*
X373559Y773363D01*
X373567Y773434D01*
X373584Y773504D01*
X373580Y773556D01*
X373586Y773607D01*
X373570Y773678D01*
X373565Y773749D01*
X373545Y773797D01*
X373533Y773848D01*
X373497Y773909D01*
X373469Y773975D01*
X373424Y774031D01*
X373407Y774059D01*
X373389Y774074D01*
X373364Y774106D01*
X371250Y776220D01*
X371176Y776273D01*
X371106Y776333D01*
X371076Y776345D01*
X371050Y776364D01*
X370963Y776391D01*
X370878Y776425D01*
X370837Y776429D01*
X370815Y776436D01*
X370783Y776435D01*
X370711Y776443D01*
X196763Y776443D01*
X196673Y776429D01*
X196582Y776421D01*
X196553Y776409D01*
X196521Y776404D01*
X196440Y776361D01*
X196356Y776325D01*
X196324Y776299D01*
X196303Y776288D01*
X196281Y776265D01*
X196225Y776220D01*
X194698Y774693D01*
X190302Y774693D01*
X187193Y777802D01*
X187193Y782198D01*
X190302Y785307D01*
X194698Y785307D01*
X196225Y783780D01*
X196299Y783727D01*
X196369Y783667D01*
X196399Y783655D01*
X196425Y783636D01*
X196512Y783609D01*
X196597Y783575D01*
X196638Y783571D01*
X196660Y783564D01*
X196692Y783565D01*
X196763Y783557D01*
X367101Y783557D01*
X367171Y783568D01*
X367243Y783570D01*
X367292Y783588D01*
X367343Y783596D01*
X367407Y783630D01*
X367474Y783655D01*
X367515Y783687D01*
X367561Y783712D01*
X367610Y783763D01*
X367666Y783808D01*
X367694Y783852D01*
X367730Y783890D01*
X367760Y783955D01*
X367799Y784015D01*
X367812Y784066D01*
X367834Y784113D01*
X367842Y784184D01*
X367859Y784254D01*
X367855Y784306D01*
X367861Y784357D01*
X367846Y784428D01*
X367840Y784499D01*
X367820Y784547D01*
X367809Y784598D01*
X367772Y784659D01*
X367744Y784725D01*
X367699Y784781D01*
X367682Y784809D01*
X367665Y784824D01*
X367639Y784856D01*
X367193Y785302D01*
X367193Y787461D01*
X367190Y787479D01*
X367192Y787495D01*
X367178Y787562D01*
X367171Y787642D01*
X367159Y787672D01*
X367154Y787704D01*
X367142Y787726D01*
X367140Y787736D01*
X367113Y787780D01*
X367111Y787785D01*
X367075Y787869D01*
X367049Y787901D01*
X367038Y787922D01*
X367016Y787943D01*
X367014Y787947D01*
X367011Y787949D01*
X366970Y788000D01*
X356250Y798720D01*
X356176Y798773D01*
X356106Y798833D01*
X356076Y798845D01*
X356050Y798864D01*
X355963Y798891D01*
X355878Y798925D01*
X355837Y798929D01*
X355815Y798936D01*
X355783Y798935D01*
X355711Y798943D01*
X186763Y798943D01*
X186673Y798929D01*
X186582Y798921D01*
X186553Y798909D01*
X186521Y798904D01*
X186440Y798861D01*
X186356Y798825D01*
X186324Y798799D01*
X186303Y798788D01*
X186281Y798765D01*
X186225Y798720D01*
X184698Y797193D01*
X180302Y797193D01*
X177193Y800302D01*
X177193Y804698D01*
X177639Y805144D01*
X177681Y805202D01*
X177730Y805254D01*
X177752Y805301D01*
X177782Y805343D01*
X177804Y805412D01*
X177834Y805477D01*
X177839Y805529D01*
X177855Y805579D01*
X177853Y805650D01*
X177861Y805721D01*
X177850Y805772D01*
X177848Y805824D01*
X177824Y805892D01*
X177809Y805962D01*
X177782Y806007D01*
X177764Y806055D01*
X177719Y806111D01*
X177682Y806173D01*
X177643Y806207D01*
X177610Y806247D01*
X177550Y806286D01*
X177495Y806333D01*
X177447Y806352D01*
X177403Y806380D01*
X177334Y806398D01*
X177267Y806425D01*
X177196Y806433D01*
X177165Y806441D01*
X177142Y806439D01*
X177101Y806443D01*
X116763Y806443D01*
X116673Y806429D01*
X116582Y806421D01*
X116553Y806409D01*
X116521Y806404D01*
X116440Y806361D01*
X116356Y806325D01*
X116324Y806299D01*
X116303Y806288D01*
X116281Y806265D01*
X116225Y806220D01*
X114698Y804693D01*
X110302Y804693D01*
X107193Y807802D01*
X107193Y812198D01*
X110302Y815307D01*
X114698Y815307D01*
X116225Y813780D01*
X116299Y813727D01*
X116369Y813667D01*
X116399Y813655D01*
X116425Y813636D01*
X116512Y813609D01*
X116597Y813575D01*
X116638Y813571D01*
X116660Y813564D01*
X116692Y813565D01*
X116763Y813557D01*
X388211Y813557D01*
X388302Y813571D01*
X388392Y813579D01*
X388422Y813591D01*
X388454Y813596D01*
X388535Y813639D01*
X388619Y813675D01*
X388651Y813701D01*
X388672Y813712D01*
X388694Y813735D01*
X388750Y813780D01*
X410748Y835778D01*
X410801Y835852D01*
X410861Y835922D01*
X410873Y835952D01*
X410892Y835978D01*
X410919Y836065D01*
X410953Y836150D01*
X410957Y836191D01*
X410964Y836213D01*
X410963Y836245D01*
X410971Y836317D01*
X410971Y841567D01*
X415733Y846329D01*
X422467Y846329D01*
X427229Y841567D01*
X427229Y834833D01*
X422467Y830071D01*
X415418Y830071D01*
X415361Y830062D01*
X415296Y830062D01*
X415267Y830052D01*
X415236Y830050D01*
X415204Y830036D01*
X415175Y830032D01*
X415125Y830005D01*
X415063Y829984D01*
X415038Y829966D01*
X415010Y829954D01*
X414975Y829925D01*
X414958Y829916D01*
X414939Y829897D01*
X414879Y829849D01*
X393780Y808750D01*
X391473Y806443D01*
X360425Y806443D01*
X360354Y806432D01*
X360282Y806430D01*
X360233Y806412D01*
X360182Y806404D01*
X360118Y806370D01*
X360051Y806345D01*
X360010Y806313D01*
X359964Y806288D01*
X359915Y806236D01*
X359859Y806192D01*
X359831Y806148D01*
X359795Y806110D01*
X359765Y806045D01*
X359726Y805985D01*
X359713Y805934D01*
X359691Y805887D01*
X359683Y805816D01*
X359666Y805746D01*
X359670Y805694D01*
X359664Y805643D01*
X359680Y805572D01*
X359685Y805501D01*
X359705Y805453D01*
X359717Y805402D01*
X359753Y805341D01*
X359781Y805275D01*
X359826Y805219D01*
X359843Y805191D01*
X359861Y805176D01*
X359886Y805144D01*
X361280Y803750D01*
X372000Y793030D01*
X372074Y792977D01*
X372144Y792917D01*
X372174Y792905D01*
X372200Y792886D01*
X372287Y792859D01*
X372372Y792825D01*
X372413Y792821D01*
X372435Y792814D01*
X372467Y792815D01*
X372539Y792807D01*
X374698Y792807D01*
X377807Y789698D01*
X377807Y785302D01*
X375556Y783051D01*
X375544Y783035D01*
X375529Y783022D01*
X375472Y782935D01*
X375412Y782851D01*
X375406Y782832D01*
X375396Y782815D01*
X375370Y782715D01*
X375340Y782616D01*
X375340Y782596D01*
X375335Y782577D01*
X375343Y782474D01*
X375346Y782370D01*
X375353Y782351D01*
X375355Y782332D01*
X375395Y782237D01*
X375431Y782139D01*
X375443Y782123D01*
X375451Y782105D01*
X375556Y781974D01*
X389500Y768030D01*
X389574Y767977D01*
X389644Y767917D01*
X389674Y767905D01*
X389700Y767886D01*
X389787Y767859D01*
X389872Y767825D01*
X389913Y767821D01*
X389935Y767814D01*
X389967Y767815D01*
X390039Y767807D01*
X392198Y767807D01*
X395307Y764698D01*
X395307Y760302D01*
X392198Y757193D01*
X387802Y757193D01*
X384693Y760302D01*
X384693Y762461D01*
X384679Y762552D01*
X384671Y762642D01*
X384659Y762672D01*
X384654Y762704D01*
X384611Y762785D01*
X384575Y762869D01*
X384549Y762901D01*
X384538Y762922D01*
X384515Y762944D01*
X384470Y763000D01*
X379106Y768364D01*
X379048Y768406D01*
X378996Y768455D01*
X378949Y768477D01*
X378907Y768507D01*
X378838Y768528D01*
X378773Y768559D01*
X378721Y768564D01*
X378671Y768580D01*
X378600Y768578D01*
X378529Y768586D01*
X378478Y768575D01*
X378426Y768573D01*
X378358Y768549D01*
X378288Y768533D01*
X378243Y768507D01*
X378195Y768489D01*
X378139Y768444D01*
X378077Y768407D01*
X378043Y768368D01*
X378003Y768335D01*
X377964Y768275D01*
X377917Y768220D01*
X377898Y768172D01*
X377870Y768128D01*
X377852Y768059D01*
X377825Y767992D01*
X377817Y767921D01*
X377809Y767890D01*
X377811Y767866D01*
X377807Y767825D01*
X377807Y765302D01*
X374698Y762193D01*
X372539Y762193D01*
X372448Y762179D01*
X372358Y762171D01*
X372328Y762159D01*
X372296Y762154D01*
X372215Y762111D01*
X372131Y762075D01*
X372099Y762049D01*
X372078Y762038D01*
X372056Y762015D01*
X372000Y761970D01*
X371473Y761443D01*
X179289Y761443D01*
X179198Y761429D01*
X179108Y761421D01*
X179078Y761409D01*
X179046Y761404D01*
X178965Y761361D01*
X178881Y761325D01*
X178849Y761299D01*
X178828Y761288D01*
X178806Y761265D01*
X178750Y761220D01*
X163973Y746443D01*
X162179Y746443D01*
X162159Y746440D01*
X162140Y746442D01*
X162038Y746420D01*
X161936Y746404D01*
X161919Y746394D01*
X161899Y746390D01*
X161810Y746337D01*
X161719Y746288D01*
X161705Y746274D01*
X161688Y746264D01*
X161621Y746185D01*
X161549Y746110D01*
X161541Y746092D01*
X161528Y746077D01*
X161489Y745981D01*
X161446Y745887D01*
X161444Y745867D01*
X161436Y745849D01*
X161418Y745682D01*
X161418Y741175D01*
X160525Y740282D01*
X144275Y740282D01*
G37*
%LPD*%
%LPC*%
G36*
X301433Y1033271D02*
X301433Y1033271D01*
X296671Y1038033D01*
X296671Y1042983D01*
X296657Y1043074D01*
X296649Y1043164D01*
X296637Y1043194D01*
X296632Y1043226D01*
X296589Y1043307D01*
X296553Y1043391D01*
X296527Y1043423D01*
X296516Y1043444D01*
X296493Y1043466D01*
X296448Y1043522D01*
X276250Y1063720D01*
X276176Y1063773D01*
X276106Y1063833D01*
X276076Y1063845D01*
X276050Y1063864D01*
X275963Y1063891D01*
X275878Y1063925D01*
X275837Y1063929D01*
X275815Y1063936D01*
X275783Y1063935D01*
X275711Y1063943D01*
X183751Y1063943D01*
X183655Y1063928D01*
X183558Y1063918D01*
X183534Y1063908D01*
X183508Y1063904D01*
X183422Y1063858D01*
X183333Y1063818D01*
X183314Y1063801D01*
X183291Y1063788D01*
X183224Y1063718D01*
X183152Y1063652D01*
X183139Y1063629D01*
X183121Y1063610D01*
X183080Y1063522D01*
X183033Y1063436D01*
X183029Y1063411D01*
X183018Y1063387D01*
X183007Y1063290D01*
X182990Y1063194D01*
X182993Y1063168D01*
X182991Y1063143D01*
X183011Y1063047D01*
X183026Y1062951D01*
X183037Y1062928D01*
X183043Y1062902D01*
X183093Y1062819D01*
X183137Y1062732D01*
X183156Y1062713D01*
X183169Y1062691D01*
X183243Y1062628D01*
X183313Y1062560D01*
X183341Y1062544D01*
X183356Y1062531D01*
X183387Y1062519D01*
X183397Y1062513D01*
X186199Y1059712D01*
X187707Y1056071D01*
X187707Y1052129D01*
X186199Y1048488D01*
X183412Y1045701D01*
X179771Y1044193D01*
X175829Y1044193D01*
X172188Y1045701D01*
X169401Y1048488D01*
X167893Y1052129D01*
X167893Y1056071D01*
X169401Y1059712D01*
X172214Y1062524D01*
X172223Y1062530D01*
X172309Y1062576D01*
X172327Y1062594D01*
X172349Y1062608D01*
X172412Y1062683D01*
X172479Y1062754D01*
X172490Y1062778D01*
X172506Y1062798D01*
X172541Y1062889D01*
X172582Y1062977D01*
X172585Y1063003D01*
X172595Y1063027D01*
X172599Y1063125D01*
X172609Y1063221D01*
X172604Y1063247D01*
X172605Y1063273D01*
X172578Y1063366D01*
X172557Y1063462D01*
X172544Y1063484D01*
X172536Y1063509D01*
X172481Y1063589D01*
X172431Y1063673D01*
X172411Y1063690D01*
X172396Y1063711D01*
X172318Y1063770D01*
X172244Y1063833D01*
X172220Y1063843D01*
X172199Y1063858D01*
X172106Y1063888D01*
X172016Y1063925D01*
X171984Y1063928D01*
X171965Y1063934D01*
X171932Y1063934D01*
X171849Y1063943D01*
X141027Y1063943D01*
X108378Y1096592D01*
X108362Y1096603D01*
X108350Y1096619D01*
X108262Y1096675D01*
X108179Y1096735D01*
X108160Y1096741D01*
X108143Y1096752D01*
X108042Y1096777D01*
X107944Y1096808D01*
X107924Y1096807D01*
X107904Y1096812D01*
X107801Y1096804D01*
X107698Y1096801D01*
X107679Y1096794D01*
X107659Y1096793D01*
X107564Y1096752D01*
X107467Y1096717D01*
X107451Y1096704D01*
X107433Y1096696D01*
X107302Y1096592D01*
X107212Y1096501D01*
X103571Y1094993D01*
X99629Y1094993D01*
X95988Y1096501D01*
X93201Y1099288D01*
X91693Y1102929D01*
X91693Y1106871D01*
X93201Y1110512D01*
X95988Y1113299D01*
X99629Y1114807D01*
X103571Y1114807D01*
X107212Y1113299D01*
X109999Y1110512D01*
X111507Y1106871D01*
X111507Y1103839D01*
X111521Y1103748D01*
X111529Y1103658D01*
X111541Y1103628D01*
X111546Y1103596D01*
X111589Y1103515D01*
X111625Y1103431D01*
X111651Y1103399D01*
X111662Y1103378D01*
X111685Y1103356D01*
X111730Y1103300D01*
X143750Y1071280D01*
X143824Y1071227D01*
X143894Y1071167D01*
X143924Y1071155D01*
X143950Y1071136D01*
X144037Y1071109D01*
X144122Y1071075D01*
X144163Y1071071D01*
X144185Y1071064D01*
X144217Y1071065D01*
X144289Y1071057D01*
X170395Y1071057D01*
X170466Y1071068D01*
X170538Y1071070D01*
X170587Y1071088D01*
X170638Y1071096D01*
X170701Y1071130D01*
X170769Y1071155D01*
X170809Y1071187D01*
X170855Y1071212D01*
X170905Y1071264D01*
X170961Y1071308D01*
X170989Y1071352D01*
X171025Y1071390D01*
X171055Y1071455D01*
X171094Y1071515D01*
X171106Y1071566D01*
X171128Y1071613D01*
X171136Y1071684D01*
X171154Y1071754D01*
X171150Y1071806D01*
X171155Y1071857D01*
X171140Y1071928D01*
X171135Y1071999D01*
X171114Y1072047D01*
X171103Y1072098D01*
X171066Y1072159D01*
X171038Y1072225D01*
X170994Y1072281D01*
X170977Y1072309D01*
X170959Y1072324D01*
X170934Y1072356D01*
X169401Y1073888D01*
X167893Y1077529D01*
X167893Y1081471D01*
X169401Y1085112D01*
X172188Y1087899D01*
X175829Y1089407D01*
X179771Y1089407D01*
X183412Y1087899D01*
X186199Y1085112D01*
X187683Y1081527D01*
X187745Y1081427D01*
X187805Y1081327D01*
X187810Y1081323D01*
X187813Y1081318D01*
X187903Y1081243D01*
X187992Y1081167D01*
X187998Y1081165D01*
X188003Y1081161D01*
X188111Y1081119D01*
X188220Y1081075D01*
X188228Y1081074D01*
X188232Y1081073D01*
X188250Y1081072D01*
X188387Y1081057D01*
X264601Y1081057D01*
X264671Y1081068D01*
X264743Y1081070D01*
X264792Y1081088D01*
X264843Y1081096D01*
X264907Y1081130D01*
X264974Y1081155D01*
X265015Y1081187D01*
X265061Y1081212D01*
X265110Y1081263D01*
X265166Y1081308D01*
X265194Y1081352D01*
X265230Y1081390D01*
X265260Y1081455D01*
X265299Y1081515D01*
X265312Y1081566D01*
X265334Y1081613D01*
X265342Y1081684D01*
X265359Y1081754D01*
X265355Y1081806D01*
X265361Y1081857D01*
X265346Y1081928D01*
X265340Y1081999D01*
X265320Y1082047D01*
X265309Y1082098D01*
X265272Y1082159D01*
X265244Y1082225D01*
X265199Y1082281D01*
X265182Y1082309D01*
X265165Y1082324D01*
X265139Y1082356D01*
X264693Y1082802D01*
X264693Y1087198D01*
X267802Y1090307D01*
X272198Y1090307D01*
X273725Y1088780D01*
X273799Y1088727D01*
X273869Y1088667D01*
X273899Y1088655D01*
X273925Y1088636D01*
X274012Y1088609D01*
X274097Y1088575D01*
X274138Y1088571D01*
X274160Y1088564D01*
X274192Y1088565D01*
X274263Y1088557D01*
X295711Y1088557D01*
X295802Y1088571D01*
X295892Y1088579D01*
X295922Y1088591D01*
X295954Y1088596D01*
X296035Y1088639D01*
X296119Y1088675D01*
X296151Y1088701D01*
X296172Y1088712D01*
X296194Y1088735D01*
X296250Y1088780D01*
X296448Y1088978D01*
X296501Y1089052D01*
X296561Y1089122D01*
X296573Y1089152D01*
X296592Y1089178D01*
X296619Y1089265D01*
X296653Y1089350D01*
X296657Y1089391D01*
X296664Y1089413D01*
X296663Y1089445D01*
X296671Y1089517D01*
X296671Y1095567D01*
X301433Y1100329D01*
X308167Y1100329D01*
X312929Y1095567D01*
X312929Y1088833D01*
X308167Y1084071D01*
X301917Y1084071D01*
X301826Y1084057D01*
X301736Y1084049D01*
X301706Y1084037D01*
X301674Y1084032D01*
X301593Y1083989D01*
X301509Y1083953D01*
X301477Y1083927D01*
X301456Y1083916D01*
X301434Y1083893D01*
X301378Y1083848D01*
X299886Y1082356D01*
X299844Y1082298D01*
X299795Y1082246D01*
X299773Y1082199D01*
X299743Y1082157D01*
X299722Y1082088D01*
X299691Y1082023D01*
X299686Y1081971D01*
X299670Y1081921D01*
X299672Y1081850D01*
X299664Y1081779D01*
X299675Y1081728D01*
X299677Y1081676D01*
X299701Y1081608D01*
X299717Y1081538D01*
X299743Y1081493D01*
X299761Y1081445D01*
X299806Y1081389D01*
X299843Y1081327D01*
X299882Y1081293D01*
X299915Y1081253D01*
X299975Y1081214D01*
X300030Y1081167D01*
X300078Y1081148D01*
X300122Y1081120D01*
X300191Y1081102D01*
X300258Y1081075D01*
X300329Y1081067D01*
X300360Y1081059D01*
X300384Y1081061D01*
X300425Y1081057D01*
X372110Y1081057D01*
X372130Y1081060D01*
X372149Y1081058D01*
X372251Y1081080D01*
X372353Y1081096D01*
X372370Y1081106D01*
X372390Y1081110D01*
X372479Y1081163D01*
X372570Y1081212D01*
X372584Y1081226D01*
X372601Y1081236D01*
X372668Y1081315D01*
X372740Y1081390D01*
X372748Y1081408D01*
X372761Y1081423D01*
X372800Y1081519D01*
X372843Y1081613D01*
X372845Y1081633D01*
X372853Y1081651D01*
X372871Y1081818D01*
X372871Y1087721D01*
X374109Y1090709D01*
X376395Y1092995D01*
X379383Y1094233D01*
X382617Y1094233D01*
X385605Y1092995D01*
X387891Y1090709D01*
X389129Y1087721D01*
X389129Y1071279D01*
X387891Y1068291D01*
X385605Y1066005D01*
X382617Y1064767D01*
X379383Y1064767D01*
X376395Y1066005D01*
X374109Y1068291D01*
X372871Y1071279D01*
X372871Y1073182D01*
X372868Y1073202D01*
X372870Y1073221D01*
X372848Y1073323D01*
X372832Y1073425D01*
X372822Y1073442D01*
X372818Y1073462D01*
X372765Y1073551D01*
X372716Y1073642D01*
X372702Y1073656D01*
X372692Y1073673D01*
X372613Y1073740D01*
X372538Y1073812D01*
X372520Y1073820D01*
X372505Y1073833D01*
X372409Y1073872D01*
X372315Y1073915D01*
X372295Y1073917D01*
X372277Y1073925D01*
X372110Y1073943D01*
X186569Y1073943D01*
X186479Y1073929D01*
X186388Y1073921D01*
X186358Y1073909D01*
X186326Y1073904D01*
X186245Y1073861D01*
X186161Y1073825D01*
X186129Y1073799D01*
X186109Y1073788D01*
X186086Y1073765D01*
X186031Y1073720D01*
X184666Y1072356D01*
X184625Y1072298D01*
X184575Y1072246D01*
X184553Y1072199D01*
X184523Y1072157D01*
X184502Y1072088D01*
X184472Y1072023D01*
X184466Y1071971D01*
X184451Y1071921D01*
X184452Y1071850D01*
X184445Y1071779D01*
X184456Y1071728D01*
X184457Y1071676D01*
X184482Y1071608D01*
X184497Y1071538D01*
X184523Y1071494D01*
X184541Y1071445D01*
X184586Y1071389D01*
X184623Y1071327D01*
X184663Y1071293D01*
X184695Y1071253D01*
X184755Y1071214D01*
X184810Y1071167D01*
X184858Y1071148D01*
X184902Y1071120D01*
X184971Y1071102D01*
X185038Y1071075D01*
X185109Y1071067D01*
X185141Y1071059D01*
X185164Y1071061D01*
X185205Y1071057D01*
X278973Y1071057D01*
X281280Y1068750D01*
X300429Y1049601D01*
X300445Y1049590D01*
X300458Y1049574D01*
X300545Y1049518D01*
X300629Y1049458D01*
X300648Y1049452D01*
X300664Y1049441D01*
X300765Y1049416D01*
X300864Y1049385D01*
X300884Y1049386D01*
X300903Y1049381D01*
X301006Y1049389D01*
X301110Y1049392D01*
X301128Y1049398D01*
X301148Y1049400D01*
X301243Y1049440D01*
X301341Y1049476D01*
X301356Y1049489D01*
X301375Y1049496D01*
X301415Y1049529D01*
X308167Y1049529D01*
X312929Y1044767D01*
X312929Y1038033D01*
X308167Y1033271D01*
X301433Y1033271D01*
G37*
%LPD*%
%LPC*%
G36*
X241027Y578943D02*
X241027Y578943D01*
X231951Y588019D01*
X231856Y588087D01*
X231763Y588157D01*
X231757Y588159D01*
X231752Y588162D01*
X231640Y588197D01*
X231529Y588233D01*
X231522Y588233D01*
X231516Y588235D01*
X231400Y588232D01*
X231283Y588231D01*
X231276Y588228D01*
X231271Y588228D01*
X231253Y588222D01*
X231122Y588184D01*
X230394Y587882D01*
X226806Y587882D01*
X223492Y589255D01*
X220955Y591792D01*
X219582Y595106D01*
X219582Y598694D01*
X220955Y602008D01*
X223492Y604545D01*
X226806Y605918D01*
X230394Y605918D01*
X233708Y604545D01*
X236245Y602008D01*
X237618Y598694D01*
X237618Y595106D01*
X237023Y593671D01*
X236997Y593558D01*
X236968Y593444D01*
X236969Y593438D01*
X236967Y593432D01*
X236978Y593315D01*
X236987Y593199D01*
X236990Y593193D01*
X236990Y593187D01*
X237038Y593079D01*
X237084Y592973D01*
X237088Y592967D01*
X237090Y592962D01*
X237103Y592948D01*
X237188Y592842D01*
X243750Y586280D01*
X243824Y586227D01*
X243894Y586167D01*
X243924Y586155D01*
X243950Y586136D01*
X244037Y586109D01*
X244122Y586075D01*
X244163Y586071D01*
X244185Y586064D01*
X244217Y586065D01*
X244289Y586057D01*
X348211Y586057D01*
X348302Y586071D01*
X348392Y586079D01*
X348422Y586091D01*
X348454Y586096D01*
X348535Y586139D01*
X348619Y586175D01*
X348651Y586201D01*
X348672Y586212D01*
X348694Y586235D01*
X348750Y586280D01*
X401027Y638557D01*
X413782Y638557D01*
X413878Y638572D01*
X413975Y638582D01*
X413999Y638592D01*
X414025Y638596D01*
X414111Y638642D01*
X414200Y638682D01*
X414219Y638699D01*
X414242Y638712D01*
X414309Y638782D01*
X414381Y638848D01*
X414394Y638871D01*
X414412Y638890D01*
X414453Y638978D01*
X414500Y639064D01*
X414504Y639089D01*
X414515Y639113D01*
X414526Y639210D01*
X414543Y639306D01*
X414540Y639332D01*
X414542Y639357D01*
X414522Y639453D01*
X414508Y639549D01*
X414496Y639572D01*
X414490Y639598D01*
X414440Y639681D01*
X414396Y639768D01*
X414377Y639787D01*
X414364Y639809D01*
X414290Y639872D01*
X414220Y639940D01*
X414192Y639956D01*
X414177Y639969D01*
X414146Y639981D01*
X414074Y640021D01*
X413992Y640055D01*
X411455Y642592D01*
X410082Y645906D01*
X410082Y649494D01*
X411455Y652808D01*
X413992Y655345D01*
X417306Y656718D01*
X420894Y656718D01*
X424208Y655345D01*
X426745Y652808D01*
X428118Y649494D01*
X428118Y645906D01*
X426745Y642592D01*
X424208Y640055D01*
X424126Y640021D01*
X424043Y639970D01*
X423958Y639924D01*
X423940Y639906D01*
X423917Y639892D01*
X423855Y639817D01*
X423788Y639746D01*
X423777Y639722D01*
X423761Y639702D01*
X423726Y639611D01*
X423685Y639523D01*
X423682Y639497D01*
X423672Y639473D01*
X423668Y639375D01*
X423658Y639279D01*
X423663Y639253D01*
X423662Y639227D01*
X423689Y639133D01*
X423710Y639038D01*
X423723Y639016D01*
X423730Y638991D01*
X423786Y638911D01*
X423836Y638827D01*
X423856Y638810D01*
X423871Y638789D01*
X423949Y638730D01*
X424023Y638667D01*
X424047Y638657D01*
X424068Y638642D01*
X424161Y638612D01*
X424251Y638575D01*
X424283Y638572D01*
X424302Y638566D01*
X424335Y638566D01*
X424418Y638557D01*
X443211Y638557D01*
X443302Y638571D01*
X443392Y638579D01*
X443422Y638591D01*
X443454Y638596D01*
X443535Y638639D01*
X443619Y638675D01*
X443651Y638701D01*
X443672Y638712D01*
X443694Y638735D01*
X443750Y638780D01*
X524812Y719842D01*
X524880Y719937D01*
X524950Y720030D01*
X524952Y720036D01*
X524955Y720041D01*
X524990Y720153D01*
X525026Y720264D01*
X525026Y720270D01*
X525028Y720276D01*
X525025Y720393D01*
X525023Y720510D01*
X525021Y720517D01*
X525021Y720522D01*
X525015Y720540D01*
X524977Y720671D01*
X524382Y722106D01*
X524382Y725694D01*
X525755Y729008D01*
X528292Y731545D01*
X531606Y732918D01*
X535194Y732918D01*
X538508Y731545D01*
X541045Y729008D01*
X542418Y725694D01*
X542418Y722106D01*
X541045Y718792D01*
X538508Y716255D01*
X535194Y714882D01*
X531606Y714882D01*
X530878Y715184D01*
X530765Y715210D01*
X530651Y715239D01*
X530645Y715239D01*
X530639Y715240D01*
X530522Y715229D01*
X530406Y715220D01*
X530400Y715217D01*
X530394Y715217D01*
X530286Y715169D01*
X530180Y715124D01*
X530174Y715119D01*
X530169Y715117D01*
X530155Y715104D01*
X530049Y715019D01*
X448780Y633750D01*
X446473Y631443D01*
X424418Y631443D01*
X424322Y631428D01*
X424225Y631418D01*
X424201Y631408D01*
X424175Y631404D01*
X424089Y631358D01*
X424000Y631318D01*
X423981Y631301D01*
X423958Y631288D01*
X423891Y631218D01*
X423819Y631152D01*
X423806Y631129D01*
X423788Y631110D01*
X423747Y631022D01*
X423700Y630936D01*
X423696Y630911D01*
X423685Y630887D01*
X423674Y630790D01*
X423657Y630694D01*
X423660Y630668D01*
X423658Y630643D01*
X423678Y630547D01*
X423692Y630451D01*
X423704Y630428D01*
X423710Y630402D01*
X423760Y630319D01*
X423804Y630232D01*
X423823Y630213D01*
X423836Y630191D01*
X423910Y630128D01*
X423980Y630060D01*
X424008Y630044D01*
X424023Y630031D01*
X424054Y630019D01*
X424126Y629979D01*
X424208Y629945D01*
X426745Y627408D01*
X428118Y624094D01*
X428118Y620506D01*
X426745Y617192D01*
X424208Y614655D01*
X420894Y613282D01*
X417306Y613282D01*
X413992Y614655D01*
X411455Y617192D01*
X410082Y620506D01*
X410082Y624094D01*
X411455Y627408D01*
X413992Y629945D01*
X414074Y629979D01*
X414157Y630030D01*
X414242Y630076D01*
X414260Y630094D01*
X414283Y630108D01*
X414345Y630183D01*
X414412Y630254D01*
X414423Y630278D01*
X414439Y630298D01*
X414474Y630389D01*
X414515Y630477D01*
X414518Y630503D01*
X414528Y630527D01*
X414532Y630625D01*
X414542Y630721D01*
X414537Y630747D01*
X414538Y630773D01*
X414511Y630867D01*
X414490Y630962D01*
X414477Y630984D01*
X414470Y631009D01*
X414414Y631089D01*
X414364Y631173D01*
X414344Y631190D01*
X414329Y631211D01*
X414251Y631270D01*
X414177Y631333D01*
X414153Y631343D01*
X414132Y631358D01*
X414039Y631388D01*
X413949Y631425D01*
X413917Y631428D01*
X413898Y631434D01*
X413865Y631434D01*
X413782Y631443D01*
X404289Y631443D01*
X404198Y631429D01*
X404108Y631421D01*
X404078Y631409D01*
X404046Y631404D01*
X403965Y631361D01*
X403881Y631325D01*
X403849Y631299D01*
X403828Y631288D01*
X403806Y631265D01*
X403750Y631220D01*
X351473Y578943D01*
X241027Y578943D01*
G37*
%LPD*%
%LPC*%
G36*
X415733Y1223771D02*
X415733Y1223771D01*
X410971Y1228533D01*
X410971Y1233683D01*
X410957Y1233774D01*
X410949Y1233864D01*
X410937Y1233894D01*
X410932Y1233926D01*
X410889Y1234007D01*
X410853Y1234091D01*
X410827Y1234123D01*
X410816Y1234144D01*
X410793Y1234166D01*
X410748Y1234222D01*
X401250Y1243720D01*
X401176Y1243773D01*
X401106Y1243833D01*
X401076Y1243845D01*
X401050Y1243864D01*
X400963Y1243891D01*
X400878Y1243925D01*
X400837Y1243929D01*
X400815Y1243936D01*
X400783Y1243935D01*
X400711Y1243943D01*
X358527Y1243943D01*
X260500Y1341970D01*
X260426Y1342023D01*
X260356Y1342083D01*
X260326Y1342095D01*
X260300Y1342114D01*
X260213Y1342141D01*
X260128Y1342175D01*
X260087Y1342179D01*
X260065Y1342186D01*
X260033Y1342185D01*
X259961Y1342193D01*
X257802Y1342193D01*
X254693Y1345302D01*
X254693Y1348932D01*
X254690Y1348952D01*
X254692Y1348971D01*
X254670Y1349073D01*
X254654Y1349175D01*
X254644Y1349192D01*
X254640Y1349212D01*
X254587Y1349301D01*
X254538Y1349392D01*
X254524Y1349406D01*
X254514Y1349423D01*
X254435Y1349490D01*
X254360Y1349562D01*
X254342Y1349570D01*
X254327Y1349583D01*
X254231Y1349622D01*
X254137Y1349665D01*
X254117Y1349667D01*
X254099Y1349675D01*
X253932Y1349693D01*
X250302Y1349693D01*
X247193Y1352802D01*
X247193Y1357198D01*
X250302Y1360307D01*
X254698Y1360307D01*
X256225Y1358780D01*
X256299Y1358726D01*
X256369Y1358667D01*
X256399Y1358655D01*
X256425Y1358636D01*
X256512Y1358609D01*
X256597Y1358575D01*
X256638Y1358571D01*
X256660Y1358564D01*
X256692Y1358565D01*
X256763Y1358557D01*
X270510Y1358557D01*
X270530Y1358560D01*
X270549Y1358558D01*
X270651Y1358580D01*
X270753Y1358596D01*
X270770Y1358606D01*
X270790Y1358610D01*
X270879Y1358663D01*
X270970Y1358712D01*
X270984Y1358726D01*
X271001Y1358736D01*
X271068Y1358815D01*
X271140Y1358890D01*
X271148Y1358908D01*
X271161Y1358923D01*
X271200Y1359019D01*
X271243Y1359113D01*
X271245Y1359133D01*
X271253Y1359151D01*
X271271Y1359318D01*
X271271Y1367121D01*
X272509Y1370109D01*
X274795Y1372395D01*
X277783Y1373633D01*
X281017Y1373633D01*
X284005Y1372395D01*
X286291Y1370109D01*
X287529Y1367121D01*
X287529Y1364318D01*
X287532Y1364298D01*
X287530Y1364279D01*
X287552Y1364177D01*
X287568Y1364075D01*
X287578Y1364058D01*
X287582Y1364038D01*
X287635Y1363949D01*
X287684Y1363858D01*
X287698Y1363844D01*
X287708Y1363827D01*
X287787Y1363760D01*
X287862Y1363688D01*
X287880Y1363680D01*
X287895Y1363667D01*
X287991Y1363628D01*
X288085Y1363585D01*
X288105Y1363583D01*
X288123Y1363575D01*
X288290Y1363557D01*
X346710Y1363557D01*
X346730Y1363560D01*
X346749Y1363558D01*
X346851Y1363580D01*
X346953Y1363596D01*
X346970Y1363606D01*
X346990Y1363610D01*
X347079Y1363663D01*
X347170Y1363712D01*
X347184Y1363726D01*
X347201Y1363736D01*
X347268Y1363815D01*
X347340Y1363890D01*
X347348Y1363908D01*
X347361Y1363923D01*
X347400Y1364019D01*
X347443Y1364113D01*
X347445Y1364133D01*
X347453Y1364151D01*
X347471Y1364318D01*
X347471Y1367121D01*
X348709Y1370109D01*
X350995Y1372395D01*
X353983Y1373633D01*
X357217Y1373633D01*
X360205Y1372395D01*
X362491Y1370109D01*
X363729Y1367121D01*
X363729Y1350679D01*
X362491Y1347691D01*
X360205Y1345405D01*
X357217Y1344167D01*
X353983Y1344167D01*
X350995Y1345405D01*
X348709Y1347691D01*
X347471Y1350679D01*
X347471Y1355682D01*
X347468Y1355702D01*
X347470Y1355721D01*
X347448Y1355823D01*
X347432Y1355925D01*
X347422Y1355942D01*
X347418Y1355962D01*
X347365Y1356051D01*
X347316Y1356142D01*
X347302Y1356156D01*
X347292Y1356173D01*
X347213Y1356240D01*
X347138Y1356312D01*
X347120Y1356320D01*
X347105Y1356333D01*
X347009Y1356372D01*
X346915Y1356415D01*
X346895Y1356417D01*
X346877Y1356425D01*
X346710Y1356443D01*
X288290Y1356443D01*
X288270Y1356440D01*
X288251Y1356442D01*
X288149Y1356420D01*
X288047Y1356404D01*
X288030Y1356394D01*
X288010Y1356390D01*
X287921Y1356337D01*
X287830Y1356288D01*
X287816Y1356274D01*
X287799Y1356264D01*
X287732Y1356185D01*
X287660Y1356110D01*
X287652Y1356092D01*
X287639Y1356077D01*
X287600Y1355981D01*
X287557Y1355887D01*
X287555Y1355867D01*
X287547Y1355849D01*
X287529Y1355682D01*
X287529Y1350679D01*
X286291Y1347691D01*
X284005Y1345405D01*
X281017Y1344167D01*
X277783Y1344167D01*
X274795Y1345405D01*
X272509Y1347691D01*
X271271Y1350679D01*
X271271Y1350682D01*
X271268Y1350702D01*
X271270Y1350721D01*
X271248Y1350823D01*
X271232Y1350925D01*
X271222Y1350942D01*
X271218Y1350962D01*
X271165Y1351051D01*
X271116Y1351142D01*
X271102Y1351156D01*
X271092Y1351173D01*
X271013Y1351240D01*
X270938Y1351312D01*
X270920Y1351320D01*
X270905Y1351333D01*
X270809Y1351372D01*
X270715Y1351415D01*
X270695Y1351417D01*
X270677Y1351425D01*
X270510Y1351443D01*
X265399Y1351443D01*
X265329Y1351432D01*
X265257Y1351430D01*
X265208Y1351412D01*
X265157Y1351404D01*
X265093Y1351370D01*
X265026Y1351345D01*
X264985Y1351313D01*
X264939Y1351288D01*
X264890Y1351237D01*
X264834Y1351192D01*
X264806Y1351148D01*
X264770Y1351110D01*
X264740Y1351045D01*
X264701Y1350985D01*
X264688Y1350934D01*
X264666Y1350887D01*
X264658Y1350816D01*
X264641Y1350746D01*
X264645Y1350694D01*
X264639Y1350643D01*
X264654Y1350572D01*
X264660Y1350501D01*
X264680Y1350453D01*
X264691Y1350402D01*
X264728Y1350341D01*
X264756Y1350275D01*
X264801Y1350219D01*
X264818Y1350191D01*
X264835Y1350176D01*
X264861Y1350144D01*
X265307Y1349698D01*
X265307Y1347539D01*
X265321Y1347448D01*
X265329Y1347358D01*
X265341Y1347328D01*
X265346Y1347296D01*
X265389Y1347215D01*
X265425Y1347131D01*
X265451Y1347099D01*
X265462Y1347078D01*
X265485Y1347056D01*
X265530Y1347000D01*
X361250Y1251280D01*
X361324Y1251227D01*
X361394Y1251167D01*
X361424Y1251155D01*
X361450Y1251136D01*
X361537Y1251109D01*
X361622Y1251075D01*
X361663Y1251071D01*
X361685Y1251064D01*
X361717Y1251065D01*
X361789Y1251057D01*
X403973Y1251057D01*
X414829Y1240201D01*
X414845Y1240189D01*
X414858Y1240174D01*
X414945Y1240118D01*
X415029Y1240058D01*
X415048Y1240052D01*
X415065Y1240041D01*
X415165Y1240016D01*
X415264Y1239985D01*
X415284Y1239986D01*
X415303Y1239981D01*
X415406Y1239989D01*
X415510Y1239992D01*
X415528Y1239998D01*
X415548Y1240000D01*
X415616Y1240029D01*
X422467Y1240029D01*
X427229Y1235267D01*
X427229Y1228533D01*
X422467Y1223771D01*
X415733Y1223771D01*
G37*
%LPD*%
%LPC*%
G36*
X150606Y638682D02*
X150606Y638682D01*
X147292Y640055D01*
X144755Y642592D01*
X143382Y645906D01*
X143382Y649494D01*
X144755Y652808D01*
X147292Y655345D01*
X150606Y656718D01*
X153872Y656718D01*
X153963Y656732D01*
X154053Y656740D01*
X154083Y656752D01*
X154115Y656757D01*
X154196Y656800D01*
X154280Y656836D01*
X154312Y656862D01*
X154333Y656873D01*
X154355Y656896D01*
X154411Y656941D01*
X211220Y713750D01*
X213527Y716057D01*
X221852Y716057D01*
X221923Y716068D01*
X221995Y716070D01*
X222044Y716088D01*
X222095Y716096D01*
X222159Y716130D01*
X222226Y716155D01*
X222267Y716187D01*
X222313Y716212D01*
X222362Y716264D01*
X222418Y716308D01*
X222446Y716352D01*
X222482Y716390D01*
X222512Y716455D01*
X222551Y716515D01*
X222564Y716566D01*
X222586Y716613D01*
X222593Y716684D01*
X222611Y716754D01*
X222607Y716806D01*
X222613Y716857D01*
X222597Y716928D01*
X222592Y716999D01*
X222572Y717047D01*
X222560Y717098D01*
X222524Y717159D01*
X222496Y717225D01*
X222451Y717281D01*
X222434Y717309D01*
X222416Y717324D01*
X222391Y717356D01*
X220955Y718792D01*
X219582Y722106D01*
X219582Y725694D01*
X220955Y729008D01*
X223492Y731545D01*
X226806Y732918D01*
X230394Y732918D01*
X233708Y731545D01*
X236245Y729008D01*
X237618Y725694D01*
X237618Y722106D01*
X236245Y718792D01*
X234809Y717356D01*
X234767Y717298D01*
X234718Y717246D01*
X234696Y717199D01*
X234666Y717157D01*
X234645Y717088D01*
X234614Y717023D01*
X234609Y716971D01*
X234593Y716921D01*
X234595Y716850D01*
X234587Y716779D01*
X234598Y716728D01*
X234600Y716676D01*
X234624Y716608D01*
X234640Y716538D01*
X234666Y716493D01*
X234684Y716445D01*
X234729Y716389D01*
X234766Y716327D01*
X234805Y716293D01*
X234838Y716253D01*
X234898Y716214D01*
X234953Y716167D01*
X235001Y716148D01*
X235045Y716120D01*
X235114Y716102D01*
X235181Y716075D01*
X235252Y716067D01*
X235283Y716059D01*
X235307Y716061D01*
X235348Y716057D01*
X295711Y716057D01*
X295802Y716071D01*
X295892Y716079D01*
X295922Y716091D01*
X295954Y716096D01*
X296035Y716139D01*
X296119Y716175D01*
X296151Y716201D01*
X296172Y716212D01*
X296194Y716235D01*
X296250Y716280D01*
X331027Y751057D01*
X333121Y751057D01*
X333141Y751060D01*
X333160Y751058D01*
X333262Y751080D01*
X333364Y751096D01*
X333381Y751106D01*
X333401Y751110D01*
X333490Y751163D01*
X333581Y751212D01*
X333595Y751226D01*
X333612Y751236D01*
X333679Y751315D01*
X333751Y751390D01*
X333759Y751408D01*
X333772Y751423D01*
X333811Y751519D01*
X333854Y751613D01*
X333856Y751633D01*
X333864Y751651D01*
X333882Y751818D01*
X333882Y757425D01*
X334775Y758318D01*
X351025Y758318D01*
X351918Y757425D01*
X351918Y741175D01*
X351025Y740282D01*
X334775Y740282D01*
X333882Y741175D01*
X333882Y742014D01*
X333871Y742085D01*
X333869Y742157D01*
X333851Y742206D01*
X333843Y742257D01*
X333809Y742321D01*
X333784Y742388D01*
X333752Y742429D01*
X333727Y742475D01*
X333675Y742524D01*
X333631Y742580D01*
X333587Y742608D01*
X333549Y742644D01*
X333484Y742674D01*
X333424Y742713D01*
X333373Y742726D01*
X333326Y742748D01*
X333255Y742756D01*
X333185Y742773D01*
X333133Y742769D01*
X333082Y742775D01*
X333011Y742759D01*
X332940Y742754D01*
X332892Y742734D01*
X332841Y742722D01*
X332780Y742686D01*
X332714Y742658D01*
X332658Y742613D01*
X332630Y742596D01*
X332615Y742578D01*
X332583Y742553D01*
X298973Y708943D01*
X230779Y708943D01*
X230683Y708928D01*
X230586Y708918D01*
X230562Y708908D01*
X230536Y708904D01*
X230450Y708858D01*
X230361Y708818D01*
X230342Y708801D01*
X230319Y708788D01*
X230252Y708718D01*
X230180Y708652D01*
X230168Y708629D01*
X230150Y708610D01*
X230109Y708522D01*
X230062Y708436D01*
X230057Y708411D01*
X230046Y708387D01*
X230035Y708290D01*
X230018Y708194D01*
X230022Y708168D01*
X230019Y708143D01*
X230040Y708047D01*
X230054Y707951D01*
X230066Y707928D01*
X230071Y707902D01*
X230121Y707819D01*
X230165Y707732D01*
X230184Y707713D01*
X230197Y707691D01*
X230271Y707628D01*
X230341Y707560D01*
X230370Y707544D01*
X230384Y707531D01*
X230415Y707519D01*
X230488Y707479D01*
X233708Y706145D01*
X236245Y703608D01*
X237618Y700294D01*
X237618Y696706D01*
X236245Y693392D01*
X233708Y690855D01*
X230394Y689482D01*
X226806Y689482D01*
X223492Y690855D01*
X220955Y693392D01*
X219582Y696706D01*
X219582Y700294D01*
X220955Y703608D01*
X223492Y706145D01*
X226712Y707479D01*
X226795Y707530D01*
X226881Y707576D01*
X226899Y707594D01*
X226921Y707608D01*
X226983Y707684D01*
X227050Y707754D01*
X227061Y707778D01*
X227078Y707798D01*
X227113Y707889D01*
X227154Y707977D01*
X227157Y708003D01*
X227166Y708027D01*
X227170Y708124D01*
X227181Y708221D01*
X227175Y708247D01*
X227177Y708273D01*
X227149Y708367D01*
X227129Y708462D01*
X227115Y708484D01*
X227108Y708509D01*
X227053Y708589D01*
X227003Y708673D01*
X226983Y708690D01*
X226968Y708711D01*
X226890Y708770D01*
X226816Y708833D01*
X226791Y708843D01*
X226770Y708858D01*
X226678Y708888D01*
X226588Y708925D01*
X226555Y708928D01*
X226537Y708934D01*
X226504Y708934D01*
X226421Y708943D01*
X216789Y708943D01*
X216698Y708929D01*
X216608Y708921D01*
X216578Y708909D01*
X216546Y708904D01*
X216465Y708861D01*
X216381Y708825D01*
X216349Y708799D01*
X216328Y708788D01*
X216306Y708765D01*
X216250Y708720D01*
X160490Y652960D01*
X160422Y652866D01*
X160352Y652772D01*
X160351Y652766D01*
X160347Y652761D01*
X160313Y652650D01*
X160276Y652538D01*
X160276Y652532D01*
X160275Y652526D01*
X160278Y652409D01*
X160279Y652292D01*
X160281Y652285D01*
X160281Y652280D01*
X160287Y652262D01*
X160325Y652131D01*
X161418Y649494D01*
X161418Y645906D01*
X160045Y642592D01*
X157508Y640055D01*
X154194Y638682D01*
X150606Y638682D01*
G37*
%LPD*%
%LPC*%
G36*
X430183Y1267967D02*
X430183Y1267967D01*
X427195Y1269205D01*
X424909Y1271491D01*
X423671Y1274479D01*
X423671Y1290921D01*
X424909Y1293909D01*
X427195Y1296195D01*
X430183Y1297433D01*
X433417Y1297433D01*
X436405Y1296195D01*
X438247Y1294353D01*
X438263Y1294342D01*
X438275Y1294326D01*
X438362Y1294270D01*
X438446Y1294210D01*
X438465Y1294204D01*
X438482Y1294193D01*
X438583Y1294168D01*
X438681Y1294137D01*
X438701Y1294138D01*
X438721Y1294133D01*
X438824Y1294141D01*
X438927Y1294144D01*
X438946Y1294150D01*
X438966Y1294152D01*
X439061Y1294192D01*
X439158Y1294228D01*
X439174Y1294241D01*
X439192Y1294248D01*
X439323Y1294353D01*
X499648Y1354678D01*
X499701Y1354752D01*
X499761Y1354822D01*
X499773Y1354852D01*
X499792Y1354878D01*
X499819Y1354965D01*
X499853Y1355050D01*
X499857Y1355091D01*
X499864Y1355113D01*
X499863Y1355145D01*
X499871Y1355217D01*
X499871Y1367121D01*
X501109Y1370109D01*
X503395Y1372395D01*
X506383Y1373633D01*
X509617Y1373633D01*
X512605Y1372395D01*
X514891Y1370109D01*
X516129Y1367121D01*
X516129Y1364318D01*
X516132Y1364298D01*
X516130Y1364279D01*
X516152Y1364177D01*
X516168Y1364075D01*
X516178Y1364058D01*
X516182Y1364038D01*
X516235Y1363949D01*
X516284Y1363858D01*
X516298Y1363844D01*
X516308Y1363827D01*
X516387Y1363760D01*
X516462Y1363688D01*
X516480Y1363680D01*
X516495Y1363667D01*
X516591Y1363628D01*
X516685Y1363585D01*
X516705Y1363583D01*
X516723Y1363575D01*
X516890Y1363557D01*
X558211Y1363557D01*
X558302Y1363571D01*
X558392Y1363579D01*
X558422Y1363591D01*
X558454Y1363596D01*
X558535Y1363639D01*
X558619Y1363675D01*
X558651Y1363701D01*
X558672Y1363712D01*
X558694Y1363735D01*
X558750Y1363780D01*
X601248Y1406278D01*
X601301Y1406352D01*
X601361Y1406422D01*
X601373Y1406452D01*
X601392Y1406478D01*
X601419Y1406565D01*
X601453Y1406650D01*
X601457Y1406691D01*
X601464Y1406713D01*
X601463Y1406745D01*
X601471Y1406817D01*
X601471Y1413067D01*
X606233Y1417829D01*
X612967Y1417829D01*
X617729Y1413067D01*
X617729Y1406333D01*
X612967Y1401571D01*
X606917Y1401571D01*
X606826Y1401557D01*
X606736Y1401549D01*
X606706Y1401537D01*
X606674Y1401532D01*
X606593Y1401489D01*
X606509Y1401453D01*
X606477Y1401427D01*
X606456Y1401416D01*
X606434Y1401393D01*
X606378Y1401348D01*
X563780Y1358750D01*
X561473Y1356443D01*
X516890Y1356443D01*
X516870Y1356440D01*
X516851Y1356442D01*
X516749Y1356420D01*
X516647Y1356404D01*
X516630Y1356394D01*
X516610Y1356390D01*
X516521Y1356337D01*
X516430Y1356288D01*
X516416Y1356274D01*
X516399Y1356264D01*
X516332Y1356185D01*
X516260Y1356110D01*
X516252Y1356092D01*
X516239Y1356077D01*
X516200Y1355981D01*
X516157Y1355887D01*
X516155Y1355867D01*
X516147Y1355849D01*
X516129Y1355682D01*
X516129Y1350679D01*
X514891Y1347691D01*
X512605Y1345405D01*
X509617Y1344167D01*
X506383Y1344167D01*
X503395Y1345405D01*
X502453Y1346347D01*
X502437Y1346358D01*
X502425Y1346374D01*
X502338Y1346430D01*
X502254Y1346490D01*
X502235Y1346496D01*
X502218Y1346507D01*
X502117Y1346532D01*
X502019Y1346563D01*
X501999Y1346562D01*
X501979Y1346567D01*
X501876Y1346559D01*
X501773Y1346556D01*
X501754Y1346550D01*
X501734Y1346548D01*
X501639Y1346508D01*
X501542Y1346472D01*
X501526Y1346459D01*
X501508Y1346452D01*
X501377Y1346347D01*
X440152Y1285122D01*
X440099Y1285048D01*
X440039Y1284978D01*
X440027Y1284948D01*
X440008Y1284922D01*
X439981Y1284835D01*
X439947Y1284750D01*
X439943Y1284709D01*
X439936Y1284687D01*
X439937Y1284655D01*
X439929Y1284583D01*
X439929Y1274479D01*
X438691Y1271491D01*
X436405Y1269205D01*
X433417Y1267967D01*
X430183Y1267967D01*
G37*
%LPD*%
%LPC*%
G36*
X403033Y1414271D02*
X403033Y1414271D01*
X398271Y1419033D01*
X398271Y1425767D01*
X403033Y1430529D01*
X409879Y1430529D01*
X409930Y1430516D01*
X410029Y1430485D01*
X410049Y1430486D01*
X410069Y1430481D01*
X410172Y1430489D01*
X410275Y1430492D01*
X410294Y1430498D01*
X410314Y1430500D01*
X410409Y1430540D01*
X410506Y1430576D01*
X410522Y1430588D01*
X410540Y1430596D01*
X410671Y1430701D01*
X453720Y1473750D01*
X456027Y1476057D01*
X590711Y1476057D01*
X590802Y1476071D01*
X590892Y1476079D01*
X590922Y1476091D01*
X590954Y1476096D01*
X591035Y1476139D01*
X591119Y1476175D01*
X591151Y1476201D01*
X591172Y1476212D01*
X591194Y1476235D01*
X591250Y1476280D01*
X601248Y1486278D01*
X601301Y1486352D01*
X601361Y1486422D01*
X601373Y1486452D01*
X601392Y1486478D01*
X601419Y1486565D01*
X601453Y1486650D01*
X601457Y1486691D01*
X601464Y1486713D01*
X601463Y1486745D01*
X601471Y1486817D01*
X601471Y1489267D01*
X606233Y1494029D01*
X612967Y1494029D01*
X617729Y1489267D01*
X617729Y1487617D01*
X617743Y1487526D01*
X617751Y1487436D01*
X617763Y1487406D01*
X617768Y1487374D01*
X617811Y1487293D01*
X617847Y1487209D01*
X617873Y1487177D01*
X617884Y1487156D01*
X617907Y1487134D01*
X617952Y1487078D01*
X637000Y1468030D01*
X637074Y1467977D01*
X637144Y1467917D01*
X637174Y1467905D01*
X637200Y1467886D01*
X637287Y1467859D01*
X637372Y1467825D01*
X637413Y1467821D01*
X637435Y1467814D01*
X637467Y1467815D01*
X637539Y1467807D01*
X639698Y1467807D01*
X642807Y1464698D01*
X642807Y1460302D01*
X639698Y1457193D01*
X635302Y1457193D01*
X632193Y1460302D01*
X632193Y1462461D01*
X632179Y1462552D01*
X632171Y1462642D01*
X632159Y1462672D01*
X632154Y1462704D01*
X632111Y1462785D01*
X632075Y1462869D01*
X632049Y1462901D01*
X632038Y1462922D01*
X632015Y1462944D01*
X631970Y1463000D01*
X615621Y1479349D01*
X615605Y1479360D01*
X615593Y1479376D01*
X615505Y1479432D01*
X615421Y1479492D01*
X615402Y1479498D01*
X615386Y1479509D01*
X615285Y1479534D01*
X615186Y1479565D01*
X615166Y1479564D01*
X615147Y1479569D01*
X615044Y1479561D01*
X614940Y1479558D01*
X614922Y1479552D01*
X614902Y1479550D01*
X614807Y1479510D01*
X614709Y1479474D01*
X614694Y1479461D01*
X614676Y1479454D01*
X614545Y1479349D01*
X612967Y1477771D01*
X606233Y1477771D01*
X605055Y1478949D01*
X605039Y1478960D01*
X605027Y1478976D01*
X604940Y1479032D01*
X604856Y1479092D01*
X604837Y1479098D01*
X604820Y1479109D01*
X604719Y1479134D01*
X604621Y1479165D01*
X604601Y1479164D01*
X604581Y1479169D01*
X604478Y1479161D01*
X604375Y1479158D01*
X604356Y1479152D01*
X604336Y1479150D01*
X604241Y1479110D01*
X604144Y1479074D01*
X604128Y1479061D01*
X604110Y1479054D01*
X603979Y1478949D01*
X593973Y1468943D01*
X459289Y1468943D01*
X459198Y1468929D01*
X459108Y1468921D01*
X459078Y1468909D01*
X459046Y1468904D01*
X458965Y1468861D01*
X458881Y1468825D01*
X458849Y1468799D01*
X458828Y1468788D01*
X458806Y1468765D01*
X458750Y1468720D01*
X414752Y1424722D01*
X414699Y1424648D01*
X414639Y1424578D01*
X414627Y1424548D01*
X414608Y1424522D01*
X414581Y1424435D01*
X414547Y1424350D01*
X414543Y1424309D01*
X414536Y1424287D01*
X414537Y1424255D01*
X414529Y1424183D01*
X414529Y1419033D01*
X409767Y1414271D01*
X403033Y1414271D01*
G37*
%LPD*%
%LPC*%
G36*
X644388Y1740139D02*
X644388Y1740139D01*
X637988Y1741854D01*
X632251Y1745166D01*
X627566Y1749851D01*
X624254Y1755588D01*
X622539Y1761988D01*
X622539Y1768612D01*
X624254Y1775012D01*
X627566Y1780749D01*
X632251Y1785434D01*
X637988Y1788746D01*
X644388Y1790461D01*
X651012Y1790461D01*
X657412Y1788746D01*
X663149Y1785434D01*
X667834Y1780749D01*
X671146Y1775012D01*
X672861Y1768612D01*
X672861Y1761988D01*
X671146Y1755588D01*
X667834Y1749851D01*
X663149Y1745166D01*
X657412Y1741854D01*
X651012Y1740139D01*
X644388Y1740139D01*
G37*
%LPD*%
%LPC*%
G36*
X85588Y1740139D02*
X85588Y1740139D01*
X79188Y1741854D01*
X73451Y1745166D01*
X68766Y1749851D01*
X65454Y1755588D01*
X63739Y1761988D01*
X63739Y1768612D01*
X65454Y1775012D01*
X68766Y1780749D01*
X73451Y1785434D01*
X79188Y1788746D01*
X85588Y1790461D01*
X92212Y1790461D01*
X98612Y1788746D01*
X104349Y1785434D01*
X109034Y1780749D01*
X112346Y1775012D01*
X114061Y1768612D01*
X114061Y1761988D01*
X112346Y1755588D01*
X109034Y1749851D01*
X104349Y1745166D01*
X98612Y1741854D01*
X92212Y1740139D01*
X85588Y1740139D01*
G37*
%LPD*%
%LPC*%
G36*
X85588Y355839D02*
X85588Y355839D01*
X79188Y357554D01*
X73451Y360866D01*
X68766Y365551D01*
X65454Y371288D01*
X63739Y377688D01*
X63739Y384312D01*
X65454Y390712D01*
X68766Y396449D01*
X73451Y401134D01*
X79188Y404446D01*
X85588Y406161D01*
X92212Y406161D01*
X98612Y404446D01*
X104349Y401134D01*
X109034Y396449D01*
X112346Y390712D01*
X114061Y384312D01*
X114061Y377688D01*
X112346Y371288D01*
X109034Y365551D01*
X104349Y360866D01*
X98612Y357554D01*
X92212Y355839D01*
X85588Y355839D01*
G37*
%LPD*%
%LPC*%
G36*
X644388Y355839D02*
X644388Y355839D01*
X637988Y357554D01*
X632251Y360866D01*
X627566Y365551D01*
X624254Y371288D01*
X622539Y377688D01*
X622539Y384312D01*
X624254Y390712D01*
X627566Y396449D01*
X632251Y401134D01*
X637988Y404446D01*
X644388Y406161D01*
X651012Y406161D01*
X657412Y404446D01*
X663149Y401134D01*
X667834Y396449D01*
X671146Y390712D01*
X672861Y384312D01*
X672861Y377688D01*
X671146Y371288D01*
X667834Y365551D01*
X663149Y360866D01*
X657412Y357554D01*
X651012Y355839D01*
X644388Y355839D01*
G37*
%LPD*%
%LPC*%
G36*
X277783Y1267967D02*
X277783Y1267967D01*
X274795Y1269205D01*
X272509Y1271491D01*
X271271Y1274479D01*
X271271Y1276404D01*
X271268Y1276424D01*
X271270Y1276443D01*
X271248Y1276545D01*
X271232Y1276647D01*
X271222Y1276664D01*
X271218Y1276684D01*
X271165Y1276773D01*
X271116Y1276864D01*
X271102Y1276878D01*
X271092Y1276895D01*
X271013Y1276962D01*
X270938Y1277034D01*
X270920Y1277042D01*
X270905Y1277055D01*
X270809Y1277094D01*
X270715Y1277137D01*
X270695Y1277139D01*
X270677Y1277147D01*
X270510Y1277165D01*
X241439Y1277165D01*
X239478Y1277977D01*
X237870Y1279585D01*
X196816Y1320640D01*
X196800Y1320651D01*
X196787Y1320667D01*
X196700Y1320723D01*
X196616Y1320783D01*
X196597Y1320789D01*
X196580Y1320800D01*
X196480Y1320825D01*
X196381Y1320856D01*
X196361Y1320855D01*
X196342Y1320860D01*
X196239Y1320852D01*
X196135Y1320849D01*
X196116Y1320842D01*
X196097Y1320841D01*
X196002Y1320800D01*
X195904Y1320765D01*
X195889Y1320752D01*
X195870Y1320744D01*
X195739Y1320640D01*
X195105Y1320005D01*
X192117Y1318767D01*
X188883Y1318767D01*
X185895Y1320005D01*
X183609Y1322291D01*
X182371Y1325279D01*
X182371Y1341721D01*
X183609Y1344709D01*
X185895Y1346995D01*
X188883Y1348233D01*
X192117Y1348233D01*
X195105Y1346995D01*
X197391Y1344709D01*
X198629Y1341721D01*
X198629Y1334231D01*
X198643Y1334141D01*
X198651Y1334050D01*
X198663Y1334020D01*
X198668Y1333988D01*
X198711Y1333908D01*
X198747Y1333824D01*
X198773Y1333792D01*
X198784Y1333771D01*
X198807Y1333749D01*
X198852Y1333693D01*
X244487Y1288058D01*
X244561Y1288005D01*
X244630Y1287945D01*
X244660Y1287933D01*
X244687Y1287914D01*
X244773Y1287887D01*
X244858Y1287853D01*
X244899Y1287849D01*
X244922Y1287842D01*
X244954Y1287843D01*
X245025Y1287835D01*
X270510Y1287835D01*
X270530Y1287838D01*
X270549Y1287836D01*
X270651Y1287858D01*
X270753Y1287874D01*
X270770Y1287884D01*
X270790Y1287888D01*
X270879Y1287941D01*
X270970Y1287990D01*
X270984Y1288004D01*
X271001Y1288014D01*
X271068Y1288093D01*
X271140Y1288168D01*
X271148Y1288186D01*
X271161Y1288201D01*
X271200Y1288297D01*
X271243Y1288391D01*
X271245Y1288411D01*
X271253Y1288429D01*
X271271Y1288596D01*
X271271Y1290921D01*
X272509Y1293909D01*
X274795Y1296195D01*
X277783Y1297433D01*
X281017Y1297433D01*
X284005Y1296195D01*
X286291Y1293909D01*
X287529Y1290921D01*
X287529Y1274479D01*
X286291Y1271491D01*
X284005Y1269205D01*
X281017Y1267967D01*
X277783Y1267967D01*
G37*
%LPD*%
%LPC*%
G36*
X125383Y1318767D02*
X125383Y1318767D01*
X122395Y1320005D01*
X120109Y1322291D01*
X118871Y1325279D01*
X118871Y1341721D01*
X120109Y1344709D01*
X122395Y1346995D01*
X125383Y1348233D01*
X128617Y1348233D01*
X131605Y1346995D01*
X132497Y1346103D01*
X132513Y1346092D01*
X132525Y1346076D01*
X132612Y1346020D01*
X132696Y1345960D01*
X132715Y1345954D01*
X132732Y1345943D01*
X132833Y1345918D01*
X132931Y1345887D01*
X132951Y1345888D01*
X132971Y1345883D01*
X133074Y1345891D01*
X133177Y1345894D01*
X133196Y1345900D01*
X133216Y1345902D01*
X133311Y1345942D01*
X133408Y1345978D01*
X133424Y1345991D01*
X133442Y1345998D01*
X133573Y1346103D01*
X184247Y1396777D01*
X184258Y1396793D01*
X184274Y1396805D01*
X184330Y1396893D01*
X184390Y1396977D01*
X184396Y1396996D01*
X184407Y1397012D01*
X184432Y1397113D01*
X184463Y1397212D01*
X184462Y1397232D01*
X184467Y1397251D01*
X184459Y1397354D01*
X184456Y1397458D01*
X184450Y1397476D01*
X184448Y1397496D01*
X184408Y1397591D01*
X184372Y1397689D01*
X184359Y1397704D01*
X184352Y1397722D01*
X184247Y1397853D01*
X183609Y1398491D01*
X182371Y1401479D01*
X182371Y1417921D01*
X183609Y1420909D01*
X185895Y1423195D01*
X188883Y1424433D01*
X192117Y1424433D01*
X195105Y1423195D01*
X197391Y1420909D01*
X198629Y1417921D01*
X198629Y1401479D01*
X197391Y1398491D01*
X195105Y1396205D01*
X192906Y1395294D01*
X192850Y1395260D01*
X192790Y1395234D01*
X192725Y1395182D01*
X192697Y1395165D01*
X192685Y1395149D01*
X192659Y1395129D01*
X191250Y1393720D01*
X135352Y1337822D01*
X135299Y1337748D01*
X135239Y1337678D01*
X135227Y1337648D01*
X135208Y1337622D01*
X135181Y1337535D01*
X135147Y1337450D01*
X135143Y1337409D01*
X135136Y1337387D01*
X135137Y1337355D01*
X135129Y1337283D01*
X135129Y1325279D01*
X133891Y1322291D01*
X131605Y1320005D01*
X128617Y1318767D01*
X125383Y1318767D01*
G37*
%LPD*%
%LPC*%
G36*
X555433Y1096771D02*
X555433Y1096771D01*
X550671Y1101533D01*
X550671Y1108267D01*
X555433Y1113029D01*
X560169Y1113029D01*
X560259Y1113043D01*
X560350Y1113051D01*
X560380Y1113063D01*
X560412Y1113068D01*
X560492Y1113111D01*
X560576Y1113147D01*
X560608Y1113173D01*
X560629Y1113184D01*
X560651Y1113207D01*
X560707Y1113252D01*
X601978Y1154523D01*
X603939Y1155335D01*
X646090Y1155335D01*
X646113Y1155325D01*
X646196Y1155316D01*
X646228Y1155309D01*
X646248Y1155310D01*
X646280Y1155307D01*
X647198Y1155307D01*
X647847Y1154658D01*
X647901Y1154619D01*
X647947Y1154573D01*
X648000Y1154544D01*
X649543Y1153002D01*
X649553Y1152978D01*
X649605Y1152913D01*
X649622Y1152885D01*
X649637Y1152873D01*
X649658Y1152847D01*
X650307Y1152198D01*
X650307Y1151280D01*
X650317Y1151216D01*
X650318Y1151150D01*
X650335Y1151092D01*
X650335Y1148910D01*
X650325Y1148887D01*
X650316Y1148804D01*
X650309Y1148772D01*
X650310Y1148752D01*
X650307Y1148720D01*
X650307Y1147802D01*
X649658Y1147153D01*
X649619Y1147099D01*
X649573Y1147053D01*
X649544Y1147000D01*
X648002Y1145457D01*
X647978Y1145447D01*
X647913Y1145395D01*
X647885Y1145378D01*
X647873Y1145363D01*
X647847Y1145342D01*
X647198Y1144693D01*
X646280Y1144693D01*
X646216Y1144683D01*
X646150Y1144682D01*
X646092Y1144665D01*
X607525Y1144665D01*
X607435Y1144651D01*
X607344Y1144643D01*
X607314Y1144631D01*
X607282Y1144626D01*
X607202Y1144583D01*
X607118Y1144547D01*
X607086Y1144521D01*
X607065Y1144510D01*
X607043Y1144487D01*
X606987Y1144442D01*
X567152Y1104607D01*
X567099Y1104533D01*
X567039Y1104464D01*
X567027Y1104434D01*
X567008Y1104407D01*
X566981Y1104321D01*
X566947Y1104236D01*
X566943Y1104195D01*
X566936Y1104172D01*
X566937Y1104140D01*
X566929Y1104069D01*
X566929Y1101533D01*
X562167Y1096771D01*
X555433Y1096771D01*
G37*
%LPD*%
%LPC*%
G36*
X341106Y613282D02*
X341106Y613282D01*
X337792Y614655D01*
X335255Y617192D01*
X333882Y620506D01*
X333882Y620682D01*
X333879Y620702D01*
X333881Y620721D01*
X333859Y620823D01*
X333843Y620925D01*
X333833Y620942D01*
X333829Y620962D01*
X333776Y621051D01*
X333727Y621142D01*
X333713Y621156D01*
X333703Y621173D01*
X333624Y621240D01*
X333549Y621312D01*
X333531Y621320D01*
X333516Y621333D01*
X333420Y621372D01*
X333326Y621415D01*
X333306Y621417D01*
X333288Y621425D01*
X333121Y621443D01*
X251027Y621443D01*
X248720Y623750D01*
X233153Y639317D01*
X233059Y639384D01*
X232965Y639455D01*
X232959Y639457D01*
X232954Y639460D01*
X232843Y639494D01*
X232731Y639531D01*
X232725Y639531D01*
X232719Y639533D01*
X232602Y639530D01*
X232485Y639528D01*
X232478Y639526D01*
X232473Y639526D01*
X232455Y639520D01*
X232324Y639482D01*
X230394Y638682D01*
X226806Y638682D01*
X223492Y640055D01*
X220955Y642592D01*
X219582Y645906D01*
X219582Y649494D01*
X220955Y652808D01*
X223492Y655345D01*
X226806Y656718D01*
X230394Y656718D01*
X233708Y655345D01*
X236245Y652808D01*
X237618Y649494D01*
X237618Y645906D01*
X237521Y645673D01*
X237495Y645560D01*
X237466Y645446D01*
X237467Y645440D01*
X237465Y645434D01*
X237476Y645317D01*
X237485Y645201D01*
X237488Y645195D01*
X237488Y645189D01*
X237536Y645081D01*
X237581Y644975D01*
X237586Y644969D01*
X237588Y644964D01*
X237601Y644950D01*
X237686Y644844D01*
X253750Y628780D01*
X253824Y628727D01*
X253894Y628667D01*
X253924Y628655D01*
X253950Y628636D01*
X254037Y628609D01*
X254122Y628575D01*
X254163Y628571D01*
X254185Y628564D01*
X254217Y628565D01*
X254289Y628557D01*
X336088Y628557D01*
X336178Y628571D01*
X336269Y628579D01*
X336299Y628591D01*
X336331Y628596D01*
X336412Y628639D01*
X336496Y628675D01*
X336528Y628701D01*
X336549Y628712D01*
X336571Y628735D01*
X336627Y628780D01*
X337792Y629945D01*
X341106Y631318D01*
X344694Y631318D01*
X348008Y629945D01*
X350545Y627408D01*
X351918Y624094D01*
X351918Y620506D01*
X350545Y617192D01*
X348008Y614655D01*
X344694Y613282D01*
X341106Y613282D01*
G37*
%LPD*%
%LPC*%
G36*
X314133Y1160271D02*
X314133Y1160271D01*
X309371Y1165033D01*
X309371Y1165283D01*
X309357Y1165374D01*
X309349Y1165464D01*
X309337Y1165494D01*
X309332Y1165526D01*
X309289Y1165607D01*
X309253Y1165691D01*
X309227Y1165723D01*
X309216Y1165744D01*
X309193Y1165766D01*
X309148Y1165822D01*
X308720Y1166250D01*
X293750Y1181220D01*
X293676Y1181273D01*
X293606Y1181333D01*
X293576Y1181345D01*
X293550Y1181364D01*
X293463Y1181391D01*
X293378Y1181425D01*
X293337Y1181429D01*
X293315Y1181436D01*
X293283Y1181435D01*
X293211Y1181443D01*
X226027Y1181443D01*
X223720Y1183750D01*
X207306Y1200164D01*
X207211Y1200232D01*
X207118Y1200302D01*
X207112Y1200304D01*
X207107Y1200307D01*
X206995Y1200342D01*
X206884Y1200378D01*
X206877Y1200378D01*
X206871Y1200380D01*
X206755Y1200377D01*
X206638Y1200376D01*
X206631Y1200373D01*
X206626Y1200373D01*
X206608Y1200367D01*
X206477Y1200329D01*
X204817Y1199641D01*
X201583Y1199641D01*
X198595Y1200879D01*
X196309Y1203165D01*
X195071Y1206153D01*
X195071Y1209387D01*
X196309Y1212375D01*
X198595Y1214661D01*
X201583Y1215899D01*
X204817Y1215899D01*
X207805Y1214661D01*
X210091Y1212375D01*
X211329Y1209387D01*
X211329Y1206517D01*
X211343Y1206426D01*
X211351Y1206336D01*
X211363Y1206306D01*
X211368Y1206274D01*
X211411Y1206193D01*
X211447Y1206109D01*
X211473Y1206077D01*
X211484Y1206056D01*
X211507Y1206034D01*
X211552Y1205978D01*
X228750Y1188780D01*
X228824Y1188727D01*
X228894Y1188667D01*
X228924Y1188655D01*
X228950Y1188636D01*
X229037Y1188609D01*
X229122Y1188575D01*
X229163Y1188571D01*
X229185Y1188564D01*
X229217Y1188565D01*
X229289Y1188557D01*
X296473Y1188557D01*
X310779Y1174251D01*
X310795Y1174240D01*
X310807Y1174224D01*
X310895Y1174168D01*
X310979Y1174108D01*
X310998Y1174102D01*
X311014Y1174091D01*
X311115Y1174066D01*
X311214Y1174035D01*
X311234Y1174036D01*
X311253Y1174031D01*
X311356Y1174039D01*
X311460Y1174042D01*
X311478Y1174048D01*
X311498Y1174050D01*
X311593Y1174090D01*
X311691Y1174126D01*
X311706Y1174139D01*
X311724Y1174146D01*
X311855Y1174251D01*
X314133Y1176529D01*
X320867Y1176529D01*
X325629Y1171767D01*
X325629Y1165033D01*
X320867Y1160271D01*
X314133Y1160271D01*
G37*
%LPD*%
%LPC*%
G36*
X314133Y1223771D02*
X314133Y1223771D01*
X309371Y1228533D01*
X309371Y1230283D01*
X309357Y1230374D01*
X309349Y1230464D01*
X309337Y1230494D01*
X309332Y1230526D01*
X309289Y1230607D01*
X309253Y1230691D01*
X309227Y1230723D01*
X309216Y1230744D01*
X309193Y1230766D01*
X309148Y1230822D01*
X296250Y1243720D01*
X296176Y1243773D01*
X296106Y1243833D01*
X296076Y1243845D01*
X296050Y1243864D01*
X295963Y1243891D01*
X295878Y1243925D01*
X295837Y1243929D01*
X295815Y1243936D01*
X295783Y1243935D01*
X295711Y1243943D01*
X211027Y1243943D01*
X206769Y1248201D01*
X206675Y1248269D01*
X206580Y1248339D01*
X206574Y1248341D01*
X206569Y1248345D01*
X206458Y1248379D01*
X206346Y1248415D01*
X206340Y1248415D01*
X206334Y1248417D01*
X206217Y1248414D01*
X206100Y1248413D01*
X206093Y1248411D01*
X206088Y1248411D01*
X206071Y1248404D01*
X205939Y1248366D01*
X204817Y1247901D01*
X201583Y1247901D01*
X198595Y1249139D01*
X196309Y1251425D01*
X195071Y1254413D01*
X195071Y1257647D01*
X196309Y1260635D01*
X198595Y1262921D01*
X201583Y1264159D01*
X204817Y1264159D01*
X207805Y1262921D01*
X210091Y1260635D01*
X211329Y1257647D01*
X211329Y1254413D01*
X211315Y1254380D01*
X211305Y1254338D01*
X211291Y1254307D01*
X211285Y1254251D01*
X211260Y1254153D01*
X211260Y1254146D01*
X211259Y1254140D01*
X211265Y1254074D01*
X211264Y1254063D01*
X211268Y1254043D01*
X211270Y1254023D01*
X211279Y1253907D01*
X211281Y1253902D01*
X211282Y1253895D01*
X211330Y1253788D01*
X211375Y1253681D01*
X211380Y1253675D01*
X211382Y1253671D01*
X211394Y1253657D01*
X211480Y1253550D01*
X213750Y1251280D01*
X213824Y1251227D01*
X213894Y1251167D01*
X213924Y1251155D01*
X213950Y1251136D01*
X214037Y1251109D01*
X214122Y1251075D01*
X214163Y1251071D01*
X214185Y1251064D01*
X214217Y1251065D01*
X214289Y1251057D01*
X298973Y1251057D01*
X311529Y1238501D01*
X311545Y1238490D01*
X311557Y1238474D01*
X311645Y1238418D01*
X311729Y1238358D01*
X311748Y1238352D01*
X311764Y1238341D01*
X311865Y1238316D01*
X311964Y1238285D01*
X311984Y1238286D01*
X312003Y1238281D01*
X312106Y1238289D01*
X312210Y1238292D01*
X312228Y1238298D01*
X312248Y1238300D01*
X312343Y1238340D01*
X312441Y1238376D01*
X312456Y1238389D01*
X312474Y1238396D01*
X312605Y1238501D01*
X314133Y1240029D01*
X320867Y1240029D01*
X325629Y1235267D01*
X325629Y1228533D01*
X320867Y1223771D01*
X314133Y1223771D01*
G37*
%LPD*%
%LPC*%
G36*
X502802Y1552193D02*
X502802Y1552193D01*
X499693Y1555302D01*
X499693Y1557461D01*
X499679Y1557552D01*
X499671Y1557642D01*
X499659Y1557672D01*
X499654Y1557704D01*
X499611Y1557785D01*
X499575Y1557869D01*
X499549Y1557901D01*
X499538Y1557922D01*
X499515Y1557944D01*
X499470Y1558000D01*
X461016Y1596454D01*
X460929Y1596516D01*
X460885Y1596554D01*
X460870Y1596560D01*
X460827Y1596592D01*
X460821Y1596594D01*
X460816Y1596597D01*
X460706Y1596632D01*
X460594Y1596668D01*
X460587Y1596668D01*
X460581Y1596670D01*
X460465Y1596667D01*
X460348Y1596666D01*
X460340Y1596664D01*
X460335Y1596663D01*
X460318Y1596657D01*
X460209Y1596625D01*
X460205Y1596625D01*
X460204Y1596624D01*
X460187Y1596619D01*
X459019Y1596135D01*
X455381Y1596135D01*
X452020Y1597527D01*
X449447Y1600100D01*
X448055Y1603461D01*
X448055Y1622339D01*
X449447Y1625700D01*
X452020Y1628273D01*
X455381Y1629665D01*
X459019Y1629665D01*
X462380Y1628273D01*
X464953Y1625700D01*
X466345Y1622339D01*
X466345Y1603461D01*
X465873Y1602322D01*
X465846Y1602208D01*
X465818Y1602095D01*
X465818Y1602088D01*
X465817Y1602082D01*
X465828Y1601965D01*
X465837Y1601849D01*
X465839Y1601844D01*
X465840Y1601837D01*
X465888Y1601730D01*
X465933Y1601623D01*
X465938Y1601617D01*
X465940Y1601613D01*
X465952Y1601599D01*
X466038Y1601492D01*
X504500Y1563030D01*
X504574Y1562977D01*
X504644Y1562917D01*
X504674Y1562905D01*
X504700Y1562886D01*
X504787Y1562859D01*
X504872Y1562825D01*
X504913Y1562821D01*
X504935Y1562814D01*
X504967Y1562815D01*
X505039Y1562807D01*
X507198Y1562807D01*
X510307Y1559698D01*
X510307Y1555302D01*
X507198Y1552193D01*
X502802Y1552193D01*
G37*
%LPD*%
%LPC*%
G36*
X225233Y1414271D02*
X225233Y1414271D01*
X220471Y1419033D01*
X220471Y1425767D01*
X225233Y1430529D01*
X231969Y1430529D01*
X231973Y1430524D01*
X232060Y1430468D01*
X232144Y1430408D01*
X232163Y1430402D01*
X232180Y1430391D01*
X232280Y1430366D01*
X232379Y1430335D01*
X232399Y1430336D01*
X232419Y1430331D01*
X232522Y1430339D01*
X232625Y1430342D01*
X232644Y1430348D01*
X232664Y1430350D01*
X232759Y1430391D01*
X232856Y1430426D01*
X232872Y1430439D01*
X232890Y1430446D01*
X233021Y1430551D01*
X238720Y1436250D01*
X241027Y1438557D01*
X293237Y1438557D01*
X293327Y1438571D01*
X293418Y1438579D01*
X293447Y1438591D01*
X293479Y1438596D01*
X293560Y1438639D01*
X293644Y1438675D01*
X293676Y1438701D01*
X293697Y1438712D01*
X293719Y1438735D01*
X293775Y1438780D01*
X295302Y1440307D01*
X299698Y1440307D01*
X302807Y1437198D01*
X302807Y1432802D01*
X301833Y1431828D01*
X301791Y1431770D01*
X301742Y1431718D01*
X301720Y1431671D01*
X301690Y1431629D01*
X301668Y1431560D01*
X301638Y1431495D01*
X301633Y1431443D01*
X301617Y1431393D01*
X301619Y1431322D01*
X301611Y1431251D01*
X301622Y1431200D01*
X301624Y1431148D01*
X301648Y1431080D01*
X301663Y1431010D01*
X301690Y1430965D01*
X301708Y1430917D01*
X301753Y1430861D01*
X301790Y1430799D01*
X301829Y1430765D01*
X301862Y1430725D01*
X301922Y1430686D01*
X301977Y1430639D01*
X302025Y1430620D01*
X302069Y1430592D01*
X302138Y1430574D01*
X302205Y1430547D01*
X302276Y1430539D01*
X302307Y1430531D01*
X302330Y1430533D01*
X302371Y1430529D01*
X308167Y1430529D01*
X312929Y1425767D01*
X312929Y1419033D01*
X308167Y1414271D01*
X301433Y1414271D01*
X296671Y1419033D01*
X296671Y1425767D01*
X299298Y1428394D01*
X299340Y1428452D01*
X299389Y1428504D01*
X299411Y1428551D01*
X299442Y1428593D01*
X299463Y1428662D01*
X299493Y1428727D01*
X299499Y1428779D01*
X299514Y1428829D01*
X299512Y1428900D01*
X299520Y1428971D01*
X299509Y1429022D01*
X299508Y1429074D01*
X299483Y1429142D01*
X299468Y1429212D01*
X299441Y1429257D01*
X299423Y1429305D01*
X299378Y1429361D01*
X299341Y1429423D01*
X299302Y1429457D01*
X299269Y1429497D01*
X299209Y1429536D01*
X299155Y1429583D01*
X299106Y1429602D01*
X299062Y1429630D01*
X298993Y1429648D01*
X298926Y1429675D01*
X298855Y1429683D01*
X298824Y1429691D01*
X298801Y1429689D01*
X298760Y1429693D01*
X295302Y1429693D01*
X293775Y1431220D01*
X293701Y1431273D01*
X293631Y1431333D01*
X293601Y1431345D01*
X293575Y1431364D01*
X293488Y1431391D01*
X293403Y1431425D01*
X293362Y1431429D01*
X293340Y1431436D01*
X293308Y1431435D01*
X293237Y1431443D01*
X244289Y1431443D01*
X244198Y1431429D01*
X244108Y1431421D01*
X244078Y1431409D01*
X244046Y1431404D01*
X243965Y1431361D01*
X243881Y1431325D01*
X243849Y1431299D01*
X243828Y1431288D01*
X243806Y1431265D01*
X243750Y1431220D01*
X236952Y1424422D01*
X236899Y1424348D01*
X236839Y1424278D01*
X236827Y1424248D01*
X236808Y1424222D01*
X236781Y1424135D01*
X236747Y1424050D01*
X236743Y1424009D01*
X236736Y1423987D01*
X236737Y1423955D01*
X236729Y1423883D01*
X236729Y1419033D01*
X231967Y1414271D01*
X225233Y1414271D01*
G37*
%LPD*%
%LPC*%
G36*
X305208Y1720275D02*
X305208Y1720275D01*
X300972Y1722030D01*
X297730Y1725272D01*
X295975Y1729508D01*
X295975Y1734092D01*
X297730Y1738328D01*
X300972Y1741570D01*
X305208Y1743325D01*
X329792Y1743325D01*
X334028Y1741570D01*
X337270Y1738328D01*
X339025Y1734092D01*
X339025Y1729508D01*
X337270Y1725272D01*
X334028Y1722030D01*
X329792Y1720275D01*
X305208Y1720275D01*
G37*
%LPD*%
%LPC*%
G36*
X267208Y1680275D02*
X267208Y1680275D01*
X262972Y1682030D01*
X259730Y1685272D01*
X257975Y1689508D01*
X257975Y1714092D01*
X259730Y1718328D01*
X262972Y1721570D01*
X267208Y1723325D01*
X271792Y1723325D01*
X276028Y1721570D01*
X279270Y1718328D01*
X281025Y1714092D01*
X281025Y1689508D01*
X279270Y1685272D01*
X276028Y1682030D01*
X271792Y1680275D01*
X267208Y1680275D01*
G37*
%LPD*%
%LPC*%
G36*
X99629Y917193D02*
X99629Y917193D01*
X95988Y918701D01*
X93201Y921488D01*
X91693Y925129D01*
X91693Y929071D01*
X93201Y932712D01*
X95988Y935499D01*
X99629Y937007D01*
X103571Y937007D01*
X105509Y936204D01*
X105623Y936177D01*
X105736Y936148D01*
X105743Y936149D01*
X105749Y936148D01*
X105865Y936159D01*
X105981Y936168D01*
X105987Y936170D01*
X105994Y936171D01*
X106101Y936218D01*
X106208Y936264D01*
X106214Y936269D01*
X106218Y936271D01*
X106232Y936283D01*
X106339Y936369D01*
X121220Y951250D01*
X123527Y953557D01*
X153237Y953557D01*
X153327Y953571D01*
X153418Y953579D01*
X153447Y953591D01*
X153479Y953596D01*
X153560Y953639D01*
X153644Y953675D01*
X153676Y953701D01*
X153697Y953712D01*
X153719Y953735D01*
X153775Y953780D01*
X155302Y955307D01*
X159698Y955307D01*
X162807Y952198D01*
X162807Y947802D01*
X159698Y944693D01*
X155302Y944693D01*
X153775Y946220D01*
X153701Y946273D01*
X153631Y946333D01*
X153601Y946345D01*
X153575Y946364D01*
X153488Y946391D01*
X153403Y946425D01*
X153362Y946429D01*
X153340Y946436D01*
X153308Y946435D01*
X153237Y946443D01*
X126789Y946443D01*
X126698Y946429D01*
X126608Y946421D01*
X126578Y946409D01*
X126546Y946404D01*
X126465Y946361D01*
X126381Y946325D01*
X126349Y946299D01*
X126328Y946288D01*
X126306Y946265D01*
X126250Y946220D01*
X111162Y931132D01*
X111093Y931037D01*
X111024Y930943D01*
X111022Y930937D01*
X111018Y930932D01*
X110984Y930821D01*
X110948Y930709D01*
X110948Y930703D01*
X110946Y930697D01*
X110949Y930580D01*
X110949Y930532D01*
X110949Y930531D01*
X110950Y930463D01*
X110952Y930456D01*
X110952Y930451D01*
X110958Y930434D01*
X110997Y930302D01*
X111507Y929071D01*
X111507Y925129D01*
X109999Y921488D01*
X107212Y918701D01*
X103571Y917193D01*
X99629Y917193D01*
G37*
%LPD*%
%LPC*%
G36*
X457802Y552193D02*
X457802Y552193D01*
X456275Y553720D01*
X456201Y553773D01*
X456171Y553799D01*
X453720Y556250D01*
X422098Y587872D01*
X422003Y587940D01*
X421909Y588010D01*
X421903Y588012D01*
X421898Y588016D01*
X421787Y588050D01*
X421675Y588086D01*
X421669Y588086D01*
X421663Y588088D01*
X421546Y588085D01*
X421429Y588084D01*
X421422Y588082D01*
X421417Y588082D01*
X421400Y588076D01*
X421268Y588037D01*
X420894Y587882D01*
X417306Y587882D01*
X413992Y589255D01*
X411455Y591792D01*
X410082Y595106D01*
X410082Y598694D01*
X411455Y602008D01*
X413992Y604545D01*
X417306Y605918D01*
X420894Y605918D01*
X424208Y604545D01*
X426745Y602008D01*
X428118Y598694D01*
X428118Y595106D01*
X427377Y593318D01*
X427350Y593204D01*
X427322Y593091D01*
X427322Y593084D01*
X427321Y593078D01*
X427332Y592962D01*
X427341Y592845D01*
X427343Y592840D01*
X427344Y592833D01*
X427392Y592726D01*
X427437Y592619D01*
X427442Y592613D01*
X427444Y592609D01*
X427456Y592595D01*
X427542Y592488D01*
X457000Y563030D01*
X457074Y562977D01*
X457144Y562917D01*
X457174Y562905D01*
X457200Y562886D01*
X457287Y562859D01*
X457372Y562825D01*
X457413Y562821D01*
X457435Y562814D01*
X457467Y562815D01*
X457539Y562807D01*
X462198Y562807D01*
X465307Y559698D01*
X465307Y555302D01*
X462198Y552193D01*
X457802Y552193D01*
G37*
%LPD*%
%LPC*%
G36*
X193306Y1682275D02*
X193306Y1682275D01*
X189621Y1683801D01*
X186801Y1686621D01*
X185275Y1690306D01*
X185275Y1711294D01*
X186801Y1714979D01*
X189621Y1717799D01*
X193306Y1719325D01*
X197294Y1719325D01*
X200979Y1717799D01*
X203799Y1714979D01*
X205325Y1711294D01*
X205325Y1690306D01*
X203799Y1686621D01*
X200979Y1683801D01*
X197294Y1682275D01*
X193306Y1682275D01*
G37*
%LPD*%
%LPC*%
G36*
X158306Y1682275D02*
X158306Y1682275D01*
X154621Y1683801D01*
X151801Y1686621D01*
X150275Y1690306D01*
X150275Y1711294D01*
X151801Y1714979D01*
X154621Y1717799D01*
X158306Y1719325D01*
X162294Y1719325D01*
X165979Y1717799D01*
X168799Y1714979D01*
X170325Y1711294D01*
X170325Y1690306D01*
X168799Y1686621D01*
X165979Y1683801D01*
X162294Y1682275D01*
X158306Y1682275D01*
G37*
%LPD*%
%LPC*%
G36*
X482802Y1387193D02*
X482802Y1387193D01*
X479693Y1390302D01*
X479693Y1394698D01*
X482802Y1397807D01*
X484961Y1397807D01*
X485052Y1397821D01*
X485142Y1397829D01*
X485172Y1397841D01*
X485204Y1397846D01*
X485285Y1397889D01*
X485369Y1397925D01*
X485401Y1397951D01*
X485422Y1397962D01*
X485444Y1397985D01*
X485500Y1398030D01*
X511220Y1423750D01*
X512348Y1424878D01*
X512395Y1424944D01*
X512406Y1424955D01*
X512409Y1424961D01*
X512461Y1425022D01*
X512473Y1425052D01*
X512492Y1425078D01*
X512519Y1425165D01*
X512553Y1425250D01*
X512557Y1425291D01*
X512564Y1425313D01*
X512563Y1425345D01*
X512571Y1425417D01*
X512571Y1425767D01*
X517333Y1430529D01*
X524067Y1430529D01*
X528829Y1425767D01*
X528829Y1419033D01*
X524067Y1414271D01*
X517333Y1414271D01*
X515105Y1416499D01*
X515089Y1416510D01*
X515077Y1416526D01*
X514990Y1416582D01*
X514906Y1416642D01*
X514887Y1416648D01*
X514870Y1416659D01*
X514769Y1416684D01*
X514671Y1416715D01*
X514651Y1416714D01*
X514631Y1416719D01*
X514528Y1416711D01*
X514425Y1416708D01*
X514406Y1416702D01*
X514386Y1416700D01*
X514291Y1416660D01*
X514194Y1416624D01*
X514178Y1416611D01*
X514160Y1416604D01*
X514029Y1416499D01*
X490530Y1393000D01*
X490477Y1392926D01*
X490417Y1392856D01*
X490405Y1392826D01*
X490386Y1392800D01*
X490359Y1392713D01*
X490325Y1392628D01*
X490321Y1392587D01*
X490314Y1392565D01*
X490315Y1392533D01*
X490307Y1392461D01*
X490307Y1390302D01*
X487198Y1387193D01*
X482802Y1387193D01*
G37*
%LPD*%
%LPC*%
G36*
X480781Y1685035D02*
X480781Y1685035D01*
X477420Y1686427D01*
X474847Y1689000D01*
X473455Y1692361D01*
X473455Y1711239D01*
X474847Y1714600D01*
X477420Y1717173D01*
X480781Y1718565D01*
X484419Y1718565D01*
X487780Y1717173D01*
X490353Y1714600D01*
X491745Y1711239D01*
X491745Y1692361D01*
X490353Y1689000D01*
X487780Y1686427D01*
X484419Y1685035D01*
X480781Y1685035D01*
G37*
%LPD*%
%LPC*%
G36*
X252181Y1596135D02*
X252181Y1596135D01*
X248820Y1597527D01*
X246247Y1600100D01*
X244855Y1603461D01*
X244855Y1622339D01*
X246247Y1625700D01*
X248820Y1628273D01*
X252181Y1629665D01*
X255819Y1629665D01*
X259180Y1628273D01*
X261753Y1625700D01*
X263145Y1622339D01*
X263145Y1603461D01*
X261753Y1600100D01*
X259180Y1597527D01*
X255819Y1596135D01*
X252181Y1596135D01*
G37*
%LPD*%
%LPC*%
G36*
X353781Y1596135D02*
X353781Y1596135D01*
X350420Y1597527D01*
X347847Y1600100D01*
X346455Y1603461D01*
X346455Y1622339D01*
X347847Y1625700D01*
X350420Y1628273D01*
X353781Y1629665D01*
X357419Y1629665D01*
X360780Y1628273D01*
X363353Y1625700D01*
X364745Y1622339D01*
X364745Y1603461D01*
X363353Y1600100D01*
X360780Y1597527D01*
X357419Y1596135D01*
X353781Y1596135D01*
G37*
%LPD*%
%LPC*%
G36*
X150581Y1596135D02*
X150581Y1596135D01*
X147220Y1597527D01*
X144647Y1600100D01*
X143255Y1603461D01*
X143255Y1622339D01*
X144647Y1625700D01*
X147220Y1628273D01*
X150581Y1629665D01*
X154219Y1629665D01*
X157580Y1628273D01*
X160153Y1625700D01*
X161545Y1622339D01*
X161545Y1603461D01*
X160153Y1600100D01*
X157580Y1597527D01*
X154219Y1596135D01*
X150581Y1596135D01*
G37*
%LPD*%
%LPC*%
G36*
X429981Y1685035D02*
X429981Y1685035D01*
X426620Y1686427D01*
X424047Y1689000D01*
X422655Y1692361D01*
X422655Y1711239D01*
X424047Y1714600D01*
X426620Y1717173D01*
X429981Y1718565D01*
X433619Y1718565D01*
X436980Y1717173D01*
X439553Y1714600D01*
X440945Y1711239D01*
X440945Y1692361D01*
X439553Y1689000D01*
X436980Y1686427D01*
X433619Y1685035D01*
X429981Y1685035D01*
G37*
%LPD*%
%LPC*%
G36*
X502802Y1519693D02*
X502802Y1519693D01*
X501275Y1521220D01*
X501201Y1521273D01*
X501131Y1521333D01*
X501101Y1521345D01*
X501075Y1521364D01*
X500988Y1521391D01*
X500903Y1521425D01*
X500862Y1521429D01*
X500840Y1521436D01*
X500808Y1521435D01*
X500737Y1521443D01*
X478527Y1521443D01*
X471622Y1528348D01*
X471548Y1528401D01*
X471478Y1528461D01*
X471448Y1528473D01*
X471422Y1528492D01*
X471335Y1528519D01*
X471250Y1528553D01*
X471209Y1528557D01*
X471187Y1528564D01*
X471155Y1528563D01*
X471083Y1528571D01*
X466533Y1528571D01*
X461771Y1533333D01*
X461771Y1540067D01*
X466533Y1544829D01*
X473267Y1544829D01*
X478029Y1540067D01*
X478029Y1533333D01*
X477901Y1533205D01*
X477890Y1533189D01*
X477874Y1533177D01*
X477818Y1533090D01*
X477758Y1533006D01*
X477752Y1532987D01*
X477741Y1532970D01*
X477716Y1532870D01*
X477685Y1532771D01*
X477686Y1532751D01*
X477681Y1532731D01*
X477689Y1532628D01*
X477692Y1532525D01*
X477698Y1532506D01*
X477700Y1532486D01*
X477740Y1532391D01*
X477776Y1532294D01*
X477789Y1532278D01*
X477796Y1532260D01*
X477901Y1532129D01*
X481250Y1528780D01*
X481324Y1528727D01*
X481394Y1528667D01*
X481424Y1528655D01*
X481450Y1528636D01*
X481537Y1528609D01*
X481622Y1528575D01*
X481663Y1528571D01*
X481685Y1528564D01*
X481717Y1528565D01*
X481789Y1528557D01*
X500737Y1528557D01*
X500827Y1528571D01*
X500918Y1528579D01*
X500947Y1528591D01*
X500979Y1528596D01*
X501060Y1528639D01*
X501144Y1528675D01*
X501176Y1528701D01*
X501197Y1528712D01*
X501219Y1528735D01*
X501275Y1528780D01*
X502802Y1530307D01*
X507198Y1530307D01*
X510307Y1527198D01*
X510307Y1522802D01*
X507198Y1519693D01*
X502802Y1519693D01*
G37*
%LPD*%
%LPC*%
G36*
X506383Y1267967D02*
X506383Y1267967D01*
X503395Y1269205D01*
X501109Y1271491D01*
X499871Y1274479D01*
X499871Y1290921D01*
X501109Y1293909D01*
X503395Y1296195D01*
X506383Y1297433D01*
X509617Y1297433D01*
X512605Y1296195D01*
X514891Y1293909D01*
X516129Y1290921D01*
X516129Y1274479D01*
X514891Y1271491D01*
X512605Y1269205D01*
X509617Y1267967D01*
X506383Y1267967D01*
G37*
%LPD*%
%LPC*%
G36*
X207802Y864693D02*
X207802Y864693D01*
X204693Y867802D01*
X204693Y872198D01*
X207802Y875307D01*
X209961Y875307D01*
X210052Y875321D01*
X210142Y875329D01*
X210172Y875341D01*
X210204Y875346D01*
X210285Y875389D01*
X210369Y875425D01*
X210401Y875451D01*
X210422Y875462D01*
X210444Y875485D01*
X210500Y875530D01*
X220248Y885278D01*
X220301Y885352D01*
X220361Y885422D01*
X220373Y885452D01*
X220392Y885478D01*
X220419Y885565D01*
X220453Y885650D01*
X220457Y885691D01*
X220464Y885713D01*
X220463Y885745D01*
X220471Y885817D01*
X220471Y892367D01*
X225233Y897129D01*
X231967Y897129D01*
X236729Y892367D01*
X236729Y885633D01*
X231967Y880871D01*
X226217Y880871D01*
X226126Y880857D01*
X226036Y880849D01*
X226006Y880837D01*
X225974Y880832D01*
X225893Y880789D01*
X225809Y880753D01*
X225777Y880727D01*
X225756Y880716D01*
X225734Y880693D01*
X225678Y880648D01*
X215530Y870500D01*
X215477Y870426D01*
X215417Y870356D01*
X215405Y870326D01*
X215386Y870300D01*
X215359Y870213D01*
X215325Y870128D01*
X215321Y870087D01*
X215314Y870065D01*
X215315Y870033D01*
X215307Y869961D01*
X215307Y867802D01*
X212198Y864693D01*
X207802Y864693D01*
G37*
%LPD*%
%LPC*%
G36*
X92586Y1145793D02*
X92586Y1145793D01*
X91693Y1146686D01*
X91693Y1164714D01*
X92586Y1165607D01*
X110614Y1165607D01*
X111507Y1164714D01*
X111507Y1146686D01*
X110614Y1145793D01*
X92586Y1145793D01*
G37*
%LPD*%
%LPC*%
G36*
X474428Y835485D02*
X474428Y835485D01*
X473535Y836378D01*
X473535Y852722D01*
X474428Y853615D01*
X490772Y853615D01*
X491665Y852722D01*
X491665Y836378D01*
X490772Y835485D01*
X474428Y835485D01*
G37*
%LPD*%
%LPC*%
G36*
X525275Y740282D02*
X525275Y740282D01*
X524382Y741175D01*
X524382Y757425D01*
X525275Y758318D01*
X541525Y758318D01*
X542418Y757425D01*
X542418Y741175D01*
X541525Y740282D01*
X525275Y740282D01*
G37*
%LPD*%
%LPC*%
G36*
X175829Y1120393D02*
X175829Y1120393D01*
X172188Y1121901D01*
X169401Y1124688D01*
X167893Y1128329D01*
X167893Y1132271D01*
X169401Y1135912D01*
X172188Y1138699D01*
X175829Y1140207D01*
X179771Y1140207D01*
X183412Y1138699D01*
X186199Y1135912D01*
X187707Y1132271D01*
X187707Y1128329D01*
X186199Y1124688D01*
X183412Y1121901D01*
X179771Y1120393D01*
X175829Y1120393D01*
G37*
%LPD*%
%LPC*%
G36*
X99629Y891793D02*
X99629Y891793D01*
X95988Y893301D01*
X93201Y896088D01*
X91693Y899729D01*
X91693Y903671D01*
X93201Y907312D01*
X95988Y910099D01*
X99629Y911607D01*
X103571Y911607D01*
X107212Y910099D01*
X109999Y907312D01*
X111507Y903671D01*
X111507Y899729D01*
X109999Y896088D01*
X107212Y893301D01*
X103571Y891793D01*
X99629Y891793D01*
G37*
%LPD*%
%LPC*%
G36*
X175829Y1145793D02*
X175829Y1145793D01*
X172188Y1147301D01*
X169401Y1150088D01*
X167893Y1153729D01*
X167893Y1157671D01*
X169401Y1161312D01*
X172188Y1164099D01*
X175829Y1165607D01*
X179771Y1165607D01*
X183412Y1164099D01*
X186199Y1161312D01*
X187707Y1157671D01*
X187707Y1153729D01*
X186199Y1150088D01*
X183412Y1147301D01*
X179771Y1145793D01*
X175829Y1145793D01*
G37*
%LPD*%
%LPC*%
G36*
X99629Y815593D02*
X99629Y815593D01*
X95988Y817101D01*
X93201Y819888D01*
X91693Y823529D01*
X91693Y827471D01*
X93201Y831112D01*
X95988Y833899D01*
X99629Y835407D01*
X103571Y835407D01*
X107212Y833899D01*
X109999Y831112D01*
X111507Y827471D01*
X111507Y823529D01*
X109999Y819888D01*
X107212Y817101D01*
X103571Y815593D01*
X99629Y815593D01*
G37*
%LPD*%
%LPC*%
G36*
X99629Y840993D02*
X99629Y840993D01*
X95988Y842501D01*
X93201Y845288D01*
X91693Y848929D01*
X91693Y852871D01*
X93201Y856512D01*
X95988Y859299D01*
X99629Y860807D01*
X103571Y860807D01*
X107212Y859299D01*
X109999Y856512D01*
X111507Y852871D01*
X111507Y848929D01*
X109999Y845288D01*
X107212Y842501D01*
X103571Y840993D01*
X99629Y840993D01*
G37*
%LPD*%
%LPC*%
G36*
X175829Y866393D02*
X175829Y866393D01*
X172188Y867901D01*
X169401Y870688D01*
X167893Y874329D01*
X167893Y878271D01*
X169401Y881912D01*
X172188Y884699D01*
X175829Y886207D01*
X179771Y886207D01*
X183412Y884699D01*
X186199Y881912D01*
X187707Y878271D01*
X187707Y874329D01*
X186199Y870688D01*
X183412Y867901D01*
X179771Y866393D01*
X175829Y866393D01*
G37*
%LPD*%
%LPC*%
G36*
X99629Y866393D02*
X99629Y866393D01*
X95988Y867901D01*
X93201Y870688D01*
X91693Y874329D01*
X91693Y878271D01*
X93201Y881912D01*
X95988Y884699D01*
X99629Y886207D01*
X103571Y886207D01*
X107212Y884699D01*
X109999Y881912D01*
X111507Y878271D01*
X111507Y874329D01*
X109999Y870688D01*
X107212Y867901D01*
X103571Y866393D01*
X99629Y866393D01*
G37*
%LPD*%
%LPC*%
G36*
X175829Y891793D02*
X175829Y891793D01*
X172188Y893301D01*
X169401Y896088D01*
X167893Y899729D01*
X167893Y903671D01*
X169401Y907312D01*
X172188Y910099D01*
X175829Y911607D01*
X179771Y911607D01*
X183412Y910099D01*
X186199Y907312D01*
X187707Y903671D01*
X187707Y899729D01*
X186199Y896088D01*
X183412Y893301D01*
X179771Y891793D01*
X175829Y891793D01*
G37*
%LPD*%
%LPC*%
G36*
X99629Y993393D02*
X99629Y993393D01*
X95988Y994901D01*
X93201Y997688D01*
X91693Y1001329D01*
X91693Y1005271D01*
X93201Y1008912D01*
X95988Y1011699D01*
X99629Y1013207D01*
X103571Y1013207D01*
X107212Y1011699D01*
X109999Y1008912D01*
X111507Y1005271D01*
X111507Y1001329D01*
X109999Y997688D01*
X107212Y994901D01*
X103571Y993393D01*
X99629Y993393D01*
G37*
%LPD*%
%LPC*%
G36*
X175829Y1018793D02*
X175829Y1018793D01*
X172188Y1020301D01*
X169401Y1023088D01*
X167893Y1026729D01*
X167893Y1030671D01*
X169401Y1034312D01*
X172188Y1037099D01*
X175829Y1038607D01*
X179771Y1038607D01*
X183412Y1037099D01*
X186199Y1034312D01*
X187707Y1030671D01*
X187707Y1026729D01*
X186199Y1023088D01*
X183412Y1020301D01*
X179771Y1018793D01*
X175829Y1018793D01*
G37*
%LPD*%
%LPC*%
G36*
X99629Y1018793D02*
X99629Y1018793D01*
X95988Y1020301D01*
X93201Y1023088D01*
X91693Y1026729D01*
X91693Y1030671D01*
X93201Y1034312D01*
X95988Y1037099D01*
X99629Y1038607D01*
X103571Y1038607D01*
X107212Y1037099D01*
X109999Y1034312D01*
X111507Y1030671D01*
X111507Y1026729D01*
X109999Y1023088D01*
X107212Y1020301D01*
X103571Y1018793D01*
X99629Y1018793D01*
G37*
%LPD*%
%LPC*%
G36*
X99629Y1044193D02*
X99629Y1044193D01*
X95988Y1045701D01*
X93201Y1048488D01*
X91693Y1052129D01*
X91693Y1056071D01*
X93201Y1059712D01*
X95988Y1062499D01*
X99629Y1064007D01*
X103571Y1064007D01*
X107212Y1062499D01*
X109999Y1059712D01*
X111507Y1056071D01*
X111507Y1052129D01*
X109999Y1048488D01*
X107212Y1045701D01*
X103571Y1044193D01*
X99629Y1044193D01*
G37*
%LPD*%
%LPC*%
G36*
X99629Y1069593D02*
X99629Y1069593D01*
X95988Y1071101D01*
X93201Y1073888D01*
X91693Y1077529D01*
X91693Y1081471D01*
X93201Y1085112D01*
X95988Y1087899D01*
X99629Y1089407D01*
X103571Y1089407D01*
X107212Y1087899D01*
X109999Y1085112D01*
X111507Y1081471D01*
X111507Y1077529D01*
X109999Y1073888D01*
X107212Y1071101D01*
X103571Y1069593D01*
X99629Y1069593D01*
G37*
%LPD*%
%LPC*%
G36*
X175829Y1094993D02*
X175829Y1094993D01*
X172188Y1096501D01*
X169401Y1099288D01*
X167893Y1102929D01*
X167893Y1106871D01*
X169401Y1110512D01*
X172188Y1113299D01*
X175829Y1114807D01*
X179771Y1114807D01*
X183412Y1113299D01*
X186199Y1110512D01*
X187707Y1106871D01*
X187707Y1102929D01*
X186199Y1099288D01*
X183412Y1096501D01*
X179771Y1094993D01*
X175829Y1094993D01*
G37*
%LPD*%
%LPC*%
G36*
X366356Y434725D02*
X366356Y434725D01*
X362763Y436213D01*
X360013Y438963D01*
X358525Y442556D01*
X358525Y446444D01*
X360013Y450037D01*
X362763Y452787D01*
X366356Y454275D01*
X370244Y454275D01*
X373837Y452787D01*
X376587Y450037D01*
X378075Y446444D01*
X378075Y442556D01*
X376587Y438963D01*
X373837Y436213D01*
X370244Y434725D01*
X366356Y434725D01*
G37*
%LPD*%
%LPC*%
G36*
X582397Y835485D02*
X582397Y835485D01*
X579065Y836865D01*
X576515Y839415D01*
X575135Y842747D01*
X575135Y846353D01*
X576515Y849685D01*
X579065Y852235D01*
X582397Y853615D01*
X586003Y853615D01*
X589335Y852235D01*
X591885Y849685D01*
X593265Y846353D01*
X593265Y842747D01*
X591885Y839415D01*
X589335Y836865D01*
X586003Y835485D01*
X582397Y835485D01*
G37*
%LPD*%
%LPC*%
G36*
X531597Y835485D02*
X531597Y835485D01*
X528265Y836865D01*
X525715Y839415D01*
X524335Y842747D01*
X524335Y846353D01*
X525715Y849685D01*
X528265Y852235D01*
X531597Y853615D01*
X535203Y853615D01*
X538535Y852235D01*
X541085Y849685D01*
X542465Y846353D01*
X542465Y842747D01*
X541085Y839415D01*
X538535Y836865D01*
X535203Y835485D01*
X531597Y835485D01*
G37*
%LPD*%
%LPC*%
G36*
X506197Y835485D02*
X506197Y835485D01*
X502865Y836865D01*
X500315Y839415D01*
X498935Y842747D01*
X498935Y846353D01*
X500315Y849685D01*
X502865Y852235D01*
X506197Y853615D01*
X509803Y853615D01*
X513135Y852235D01*
X515685Y849685D01*
X517065Y846353D01*
X517065Y842747D01*
X515685Y839415D01*
X513135Y836865D01*
X509803Y835485D01*
X506197Y835485D01*
G37*
%LPD*%
%LPC*%
G36*
X226806Y740282D02*
X226806Y740282D01*
X223492Y741655D01*
X220955Y744192D01*
X219582Y747506D01*
X219582Y751094D01*
X220955Y754408D01*
X223492Y756945D01*
X226806Y758318D01*
X230394Y758318D01*
X233708Y756945D01*
X236245Y754408D01*
X237618Y751094D01*
X237618Y747506D01*
X236245Y744192D01*
X233708Y741655D01*
X230394Y740282D01*
X226806Y740282D01*
G37*
%LPD*%
%LPC*%
G36*
X607806Y714882D02*
X607806Y714882D01*
X604492Y716255D01*
X601955Y718792D01*
X600582Y722106D01*
X600582Y725694D01*
X601955Y729008D01*
X604492Y731545D01*
X607806Y732918D01*
X611394Y732918D01*
X614708Y731545D01*
X617245Y729008D01*
X618618Y725694D01*
X618618Y722106D01*
X617245Y718792D01*
X614708Y716255D01*
X611394Y714882D01*
X607806Y714882D01*
G37*
%LPD*%
%LPC*%
G36*
X150606Y664082D02*
X150606Y664082D01*
X147292Y665455D01*
X144755Y667992D01*
X143382Y671306D01*
X143382Y674894D01*
X144755Y678208D01*
X147292Y680745D01*
X150606Y682118D01*
X154194Y682118D01*
X157508Y680745D01*
X160045Y678208D01*
X161418Y674894D01*
X161418Y671306D01*
X160045Y667992D01*
X157508Y665455D01*
X154194Y664082D01*
X150606Y664082D01*
G37*
%LPD*%
%LPC*%
G36*
X607806Y664082D02*
X607806Y664082D01*
X604492Y665455D01*
X601955Y667992D01*
X600582Y671306D01*
X600582Y674894D01*
X601955Y678208D01*
X604492Y680745D01*
X607806Y682118D01*
X611394Y682118D01*
X614708Y680745D01*
X617245Y678208D01*
X618618Y674894D01*
X618618Y671306D01*
X617245Y667992D01*
X614708Y665455D01*
X611394Y664082D01*
X607806Y664082D01*
G37*
%LPD*%
%LPC*%
G36*
X607806Y638682D02*
X607806Y638682D01*
X604492Y640055D01*
X601955Y642592D01*
X600582Y645906D01*
X600582Y649494D01*
X601955Y652808D01*
X604492Y655345D01*
X607806Y656718D01*
X611394Y656718D01*
X614708Y655345D01*
X617245Y652808D01*
X618618Y649494D01*
X618618Y645906D01*
X617245Y642592D01*
X614708Y640055D01*
X611394Y638682D01*
X607806Y638682D01*
G37*
%LPD*%
%LPC*%
G36*
X531606Y638682D02*
X531606Y638682D01*
X528292Y640055D01*
X525755Y642592D01*
X524382Y645906D01*
X524382Y649494D01*
X525755Y652808D01*
X528292Y655345D01*
X531606Y656718D01*
X535194Y656718D01*
X538508Y655345D01*
X541045Y652808D01*
X542418Y649494D01*
X542418Y645906D01*
X541045Y642592D01*
X538508Y640055D01*
X535194Y638682D01*
X531606Y638682D01*
G37*
%LPD*%
%LPC*%
G36*
X341106Y714882D02*
X341106Y714882D01*
X337792Y716255D01*
X335255Y718792D01*
X333882Y722106D01*
X333882Y725694D01*
X335255Y729008D01*
X337792Y731545D01*
X341106Y732918D01*
X344694Y732918D01*
X348008Y731545D01*
X350545Y729008D01*
X351918Y725694D01*
X351918Y722106D01*
X350545Y718792D01*
X348008Y716255D01*
X344694Y714882D01*
X341106Y714882D01*
G37*
%LPD*%
%LPC*%
G36*
X607806Y613282D02*
X607806Y613282D01*
X604492Y614655D01*
X601955Y617192D01*
X600582Y620506D01*
X600582Y624094D01*
X601955Y627408D01*
X604492Y629945D01*
X607806Y631318D01*
X611394Y631318D01*
X614708Y629945D01*
X617245Y627408D01*
X618618Y624094D01*
X618618Y620506D01*
X617245Y617192D01*
X614708Y614655D01*
X611394Y613282D01*
X607806Y613282D01*
G37*
%LPD*%
%LPC*%
G36*
X531606Y613282D02*
X531606Y613282D01*
X528292Y614655D01*
X525755Y617192D01*
X524382Y620506D01*
X524382Y624094D01*
X525755Y627408D01*
X528292Y629945D01*
X531606Y631318D01*
X535194Y631318D01*
X538508Y629945D01*
X541045Y627408D01*
X542418Y624094D01*
X542418Y620506D01*
X541045Y617192D01*
X538508Y614655D01*
X535194Y613282D01*
X531606Y613282D01*
G37*
%LPD*%
%LPC*%
G36*
X226806Y613282D02*
X226806Y613282D01*
X223492Y614655D01*
X220955Y617192D01*
X219582Y620506D01*
X219582Y624094D01*
X220955Y627408D01*
X223492Y629945D01*
X226806Y631318D01*
X230394Y631318D01*
X233708Y629945D01*
X236245Y627408D01*
X237618Y624094D01*
X237618Y620506D01*
X236245Y617192D01*
X233708Y614655D01*
X230394Y613282D01*
X226806Y613282D01*
G37*
%LPD*%
%LPC*%
G36*
X417306Y689482D02*
X417306Y689482D01*
X413992Y690855D01*
X411455Y693392D01*
X410082Y696706D01*
X410082Y700294D01*
X411455Y703608D01*
X413992Y706145D01*
X417306Y707518D01*
X420894Y707518D01*
X424208Y706145D01*
X426745Y703608D01*
X428118Y700294D01*
X428118Y696706D01*
X426745Y693392D01*
X424208Y690855D01*
X420894Y689482D01*
X417306Y689482D01*
G37*
%LPD*%
%LPC*%
G36*
X417306Y714882D02*
X417306Y714882D01*
X413992Y716255D01*
X411455Y718792D01*
X410082Y722106D01*
X410082Y725694D01*
X411455Y729008D01*
X413992Y731545D01*
X417306Y732918D01*
X420894Y732918D01*
X424208Y731545D01*
X426745Y729008D01*
X428118Y725694D01*
X428118Y722106D01*
X426745Y718792D01*
X424208Y716255D01*
X420894Y714882D01*
X417306Y714882D01*
G37*
%LPD*%
%LPC*%
G36*
X150606Y613282D02*
X150606Y613282D01*
X147292Y614655D01*
X144755Y617192D01*
X143382Y620506D01*
X143382Y624094D01*
X144755Y627408D01*
X147292Y629945D01*
X150606Y631318D01*
X154194Y631318D01*
X157508Y629945D01*
X160045Y627408D01*
X161418Y624094D01*
X161418Y620506D01*
X160045Y617192D01*
X157508Y614655D01*
X154194Y613282D01*
X150606Y613282D01*
G37*
%LPD*%
%LPC*%
G36*
X150606Y714882D02*
X150606Y714882D01*
X147292Y716255D01*
X144755Y718792D01*
X143382Y722106D01*
X143382Y725694D01*
X144755Y729008D01*
X147292Y731545D01*
X150606Y732918D01*
X154194Y732918D01*
X157508Y731545D01*
X160045Y729008D01*
X161418Y725694D01*
X161418Y722106D01*
X160045Y718792D01*
X157508Y716255D01*
X154194Y714882D01*
X150606Y714882D01*
G37*
%LPD*%
%LPC*%
G36*
X341106Y689482D02*
X341106Y689482D01*
X337792Y690855D01*
X335255Y693392D01*
X333882Y696706D01*
X333882Y700294D01*
X335255Y703608D01*
X337792Y706145D01*
X341106Y707518D01*
X344694Y707518D01*
X348008Y706145D01*
X350545Y703608D01*
X351918Y700294D01*
X351918Y696706D01*
X350545Y693392D01*
X348008Y690855D01*
X344694Y689482D01*
X341106Y689482D01*
G37*
%LPD*%
%LPC*%
G36*
X607806Y587882D02*
X607806Y587882D01*
X604492Y589255D01*
X601955Y591792D01*
X600582Y595106D01*
X600582Y598694D01*
X601955Y602008D01*
X604492Y604545D01*
X607806Y605918D01*
X611394Y605918D01*
X614708Y604545D01*
X617245Y602008D01*
X618618Y598694D01*
X618618Y595106D01*
X617245Y591792D01*
X614708Y589255D01*
X611394Y587882D01*
X607806Y587882D01*
G37*
%LPD*%
%LPC*%
G36*
X341106Y587882D02*
X341106Y587882D01*
X337792Y589255D01*
X335255Y591792D01*
X333882Y595106D01*
X333882Y598694D01*
X335255Y602008D01*
X337792Y604545D01*
X341106Y605918D01*
X344694Y605918D01*
X348008Y604545D01*
X350545Y602008D01*
X351918Y598694D01*
X351918Y595106D01*
X350545Y591792D01*
X348008Y589255D01*
X344694Y587882D01*
X341106Y587882D01*
G37*
%LPD*%
%LPC*%
G36*
X531606Y689482D02*
X531606Y689482D01*
X528292Y690855D01*
X525755Y693392D01*
X524382Y696706D01*
X524382Y700294D01*
X525755Y703608D01*
X528292Y706145D01*
X531606Y707518D01*
X535194Y707518D01*
X538508Y706145D01*
X541045Y703608D01*
X542418Y700294D01*
X542418Y696706D01*
X541045Y693392D01*
X538508Y690855D01*
X535194Y689482D01*
X531606Y689482D01*
G37*
%LPD*%
%LPC*%
G36*
X341106Y638682D02*
X341106Y638682D01*
X337792Y640055D01*
X335255Y642592D01*
X333882Y645906D01*
X333882Y649494D01*
X335255Y652808D01*
X337792Y655345D01*
X341106Y656718D01*
X344694Y656718D01*
X348008Y655345D01*
X350545Y652808D01*
X351918Y649494D01*
X351918Y645906D01*
X350545Y642592D01*
X348008Y640055D01*
X344694Y638682D01*
X341106Y638682D01*
G37*
%LPD*%
%LPC*%
G36*
X150606Y587882D02*
X150606Y587882D01*
X147292Y589255D01*
X144755Y591792D01*
X143382Y595106D01*
X143382Y598694D01*
X144755Y602008D01*
X147292Y604545D01*
X150606Y605918D01*
X154194Y605918D01*
X157508Y604545D01*
X160045Y602008D01*
X161418Y598694D01*
X161418Y595106D01*
X160045Y591792D01*
X157508Y589255D01*
X154194Y587882D01*
X150606Y587882D01*
G37*
%LPD*%
%LPC*%
G36*
X341106Y664082D02*
X341106Y664082D01*
X337792Y665455D01*
X335255Y667992D01*
X333882Y671306D01*
X333882Y674894D01*
X335255Y678208D01*
X337792Y680745D01*
X341106Y682118D01*
X344694Y682118D01*
X348008Y680745D01*
X350545Y678208D01*
X351918Y674894D01*
X351918Y671306D01*
X350545Y667992D01*
X348008Y665455D01*
X344694Y664082D01*
X341106Y664082D01*
G37*
%LPD*%
%LPC*%
G36*
X607806Y740282D02*
X607806Y740282D01*
X604492Y741655D01*
X601955Y744192D01*
X600582Y747506D01*
X600582Y751094D01*
X601955Y754408D01*
X604492Y756945D01*
X607806Y758318D01*
X611394Y758318D01*
X614708Y756945D01*
X617245Y754408D01*
X618618Y751094D01*
X618618Y747506D01*
X617245Y744192D01*
X614708Y741655D01*
X611394Y740282D01*
X607806Y740282D01*
G37*
%LPD*%
%LPC*%
G36*
X150606Y689482D02*
X150606Y689482D01*
X147292Y690855D01*
X144755Y693392D01*
X143382Y696706D01*
X143382Y700294D01*
X144755Y703608D01*
X147292Y706145D01*
X150606Y707518D01*
X154194Y707518D01*
X157508Y706145D01*
X160045Y703608D01*
X161418Y700294D01*
X161418Y696706D01*
X160045Y693392D01*
X157508Y690855D01*
X154194Y689482D01*
X150606Y689482D01*
G37*
%LPD*%
%LPC*%
G36*
X531606Y664082D02*
X531606Y664082D01*
X528292Y665455D01*
X525755Y667992D01*
X524382Y671306D01*
X524382Y674894D01*
X525755Y678208D01*
X528292Y680745D01*
X531606Y682118D01*
X535194Y682118D01*
X538508Y680745D01*
X541045Y678208D01*
X542418Y674894D01*
X542418Y671306D01*
X541045Y667992D01*
X538508Y665455D01*
X535194Y664082D01*
X531606Y664082D01*
G37*
%LPD*%
%LPC*%
G36*
X364933Y1528571D02*
X364933Y1528571D01*
X360171Y1533333D01*
X360171Y1540067D01*
X364933Y1544829D01*
X371667Y1544829D01*
X376429Y1540067D01*
X376429Y1533333D01*
X371667Y1528571D01*
X364933Y1528571D01*
G37*
%LPD*%
%LPC*%
G36*
X555433Y1604771D02*
X555433Y1604771D01*
X550671Y1609533D01*
X550671Y1616267D01*
X555433Y1621029D01*
X562167Y1621029D01*
X566929Y1616267D01*
X566929Y1609533D01*
X562167Y1604771D01*
X555433Y1604771D01*
G37*
%LPD*%
%LPC*%
G36*
X263333Y1528571D02*
X263333Y1528571D01*
X258571Y1533333D01*
X258571Y1540067D01*
X263333Y1544829D01*
X270067Y1544829D01*
X274829Y1540067D01*
X274829Y1533333D01*
X270067Y1528571D01*
X263333Y1528571D01*
G37*
%LPD*%
%LPC*%
G36*
X161733Y1528571D02*
X161733Y1528571D01*
X156971Y1533333D01*
X156971Y1540067D01*
X161733Y1544829D01*
X168467Y1544829D01*
X173229Y1540067D01*
X173229Y1533333D01*
X168467Y1528571D01*
X161733Y1528571D01*
G37*
%LPD*%
%LPC*%
G36*
X555433Y1477771D02*
X555433Y1477771D01*
X550671Y1482533D01*
X550671Y1489267D01*
X555433Y1494029D01*
X562167Y1494029D01*
X566929Y1489267D01*
X566929Y1482533D01*
X562167Y1477771D01*
X555433Y1477771D01*
G37*
%LPD*%
%LPC*%
G36*
X326833Y1414271D02*
X326833Y1414271D01*
X322071Y1419033D01*
X322071Y1425767D01*
X326833Y1430529D01*
X333567Y1430529D01*
X338329Y1425767D01*
X338329Y1419033D01*
X333567Y1414271D01*
X326833Y1414271D01*
G37*
%LPD*%
%LPC*%
G36*
X606233Y1325371D02*
X606233Y1325371D01*
X601471Y1330133D01*
X601471Y1336867D01*
X606233Y1341629D01*
X612967Y1341629D01*
X617729Y1336867D01*
X617729Y1330133D01*
X612967Y1325371D01*
X606233Y1325371D01*
G37*
%LPD*%
%LPC*%
G36*
X606233Y1668271D02*
X606233Y1668271D01*
X601471Y1673033D01*
X601471Y1679767D01*
X606233Y1684529D01*
X612967Y1684529D01*
X617729Y1679767D01*
X617729Y1673033D01*
X612967Y1668271D01*
X606233Y1668271D01*
G37*
%LPD*%
%LPC*%
G36*
X555433Y1249171D02*
X555433Y1249171D01*
X550671Y1253933D01*
X550671Y1260667D01*
X555433Y1265429D01*
X562167Y1265429D01*
X566929Y1260667D01*
X566929Y1253933D01*
X562167Y1249171D01*
X555433Y1249171D01*
G37*
%LPD*%
%LPC*%
G36*
X453833Y1223771D02*
X453833Y1223771D01*
X449071Y1228533D01*
X449071Y1235267D01*
X453833Y1240029D01*
X460567Y1240029D01*
X465329Y1235267D01*
X465329Y1228533D01*
X460567Y1223771D01*
X453833Y1223771D01*
G37*
%LPD*%
%LPC*%
G36*
X390333Y1503171D02*
X390333Y1503171D01*
X385571Y1507933D01*
X385571Y1514667D01*
X390333Y1519429D01*
X397067Y1519429D01*
X401829Y1514667D01*
X401829Y1507933D01*
X397067Y1503171D01*
X390333Y1503171D01*
G37*
%LPD*%
%LPC*%
G36*
X555433Y1160271D02*
X555433Y1160271D01*
X550671Y1165033D01*
X550671Y1171767D01*
X555433Y1176529D01*
X562167Y1176529D01*
X566929Y1171767D01*
X566929Y1165033D01*
X562167Y1160271D01*
X555433Y1160271D01*
G37*
%LPD*%
%LPC*%
G36*
X415733Y1160271D02*
X415733Y1160271D01*
X410971Y1165033D01*
X410971Y1171767D01*
X415733Y1176529D01*
X422467Y1176529D01*
X427229Y1171767D01*
X427229Y1165033D01*
X422467Y1160271D01*
X415733Y1160271D01*
G37*
%LPD*%
%LPC*%
G36*
X288733Y1503171D02*
X288733Y1503171D01*
X283971Y1507933D01*
X283971Y1514667D01*
X288733Y1519429D01*
X295467Y1519429D01*
X300229Y1514667D01*
X300229Y1507933D01*
X295467Y1503171D01*
X288733Y1503171D01*
G37*
%LPD*%
%LPC*%
G36*
X187133Y1503171D02*
X187133Y1503171D01*
X182371Y1507933D01*
X182371Y1514667D01*
X187133Y1519429D01*
X193867Y1519429D01*
X198629Y1514667D01*
X198629Y1507933D01*
X193867Y1503171D01*
X187133Y1503171D01*
G37*
%LPD*%
%LPC*%
G36*
X491933Y1503171D02*
X491933Y1503171D01*
X487171Y1507933D01*
X487171Y1514667D01*
X491933Y1519429D01*
X498667Y1519429D01*
X503429Y1514667D01*
X503429Y1507933D01*
X498667Y1503171D01*
X491933Y1503171D01*
G37*
%LPD*%
%LPC*%
G36*
X225233Y1084071D02*
X225233Y1084071D01*
X220471Y1088833D01*
X220471Y1095567D01*
X225233Y1100329D01*
X231967Y1100329D01*
X236729Y1095567D01*
X236729Y1088833D01*
X231967Y1084071D01*
X225233Y1084071D01*
G37*
%LPD*%
%LPC*%
G36*
X225233Y931671D02*
X225233Y931671D01*
X220471Y936433D01*
X220471Y943167D01*
X225233Y947929D01*
X231967Y947929D01*
X236729Y943167D01*
X236729Y936433D01*
X231967Y931671D01*
X225233Y931671D01*
G37*
%LPD*%
%LPC*%
G36*
X339533Y931671D02*
X339533Y931671D01*
X334771Y936433D01*
X334771Y943167D01*
X339533Y947929D01*
X346267Y947929D01*
X351029Y943167D01*
X351029Y936433D01*
X346267Y931671D01*
X339533Y931671D01*
G37*
%LPD*%
%LPC*%
G36*
X301433Y931671D02*
X301433Y931671D01*
X296671Y936433D01*
X296671Y943167D01*
X301433Y947929D01*
X308167Y947929D01*
X312929Y943167D01*
X312929Y936433D01*
X308167Y931671D01*
X301433Y931671D01*
G37*
%LPD*%
%LPC*%
G36*
X606233Y1541271D02*
X606233Y1541271D01*
X601471Y1546033D01*
X601471Y1552767D01*
X606233Y1557529D01*
X612967Y1557529D01*
X617729Y1552767D01*
X617729Y1546033D01*
X612967Y1541271D01*
X606233Y1541271D01*
G37*
%LPD*%
%LPC*%
G36*
X339533Y880871D02*
X339533Y880871D01*
X334771Y885633D01*
X334771Y892367D01*
X339533Y897129D01*
X346267Y897129D01*
X351029Y892367D01*
X351029Y885633D01*
X346267Y880871D01*
X339533Y880871D01*
G37*
%LPD*%
%LPC*%
G36*
X301433Y830071D02*
X301433Y830071D01*
X296671Y834833D01*
X296671Y841567D01*
X301433Y846329D01*
X308167Y846329D01*
X312929Y841567D01*
X312929Y834833D01*
X308167Y830071D01*
X301433Y830071D01*
G37*
%LPD*%
%LPC*%
G36*
X339533Y830071D02*
X339533Y830071D01*
X334771Y834833D01*
X334771Y841567D01*
X339533Y846329D01*
X346267Y846329D01*
X351029Y841567D01*
X351029Y834833D01*
X346267Y830071D01*
X339533Y830071D01*
G37*
%LPD*%
%LPC*%
G36*
X319023Y1672323D02*
X319023Y1672323D01*
X319023Y1683341D01*
X328487Y1683341D01*
X330437Y1683032D01*
X332314Y1682422D01*
X334073Y1681526D01*
X335670Y1680366D01*
X337066Y1678970D01*
X338226Y1677373D01*
X339122Y1675614D01*
X339732Y1673737D01*
X339956Y1672323D01*
X319023Y1672323D01*
G37*
%LPD*%
%LPC*%
G36*
X295044Y1672323D02*
X295044Y1672323D01*
X295268Y1673737D01*
X295878Y1675614D01*
X296774Y1677373D01*
X297934Y1678970D01*
X299330Y1680366D01*
X300927Y1681526D01*
X302686Y1682422D01*
X304563Y1683032D01*
X306513Y1683341D01*
X315977Y1683341D01*
X315977Y1672323D01*
X295044Y1672323D01*
G37*
%LPD*%
%LPC*%
G36*
X319023Y1658259D02*
X319023Y1658259D01*
X319023Y1669277D01*
X339956Y1669277D01*
X339732Y1667863D01*
X339122Y1665986D01*
X338226Y1664227D01*
X337066Y1662630D01*
X335670Y1661234D01*
X334073Y1660074D01*
X332314Y1659178D01*
X330437Y1658568D01*
X328487Y1658259D01*
X319023Y1658259D01*
G37*
%LPD*%
%LPC*%
G36*
X306513Y1658259D02*
X306513Y1658259D01*
X304563Y1658568D01*
X302686Y1659178D01*
X300927Y1660074D01*
X299330Y1661234D01*
X297934Y1662630D01*
X296774Y1664227D01*
X295878Y1665986D01*
X295268Y1667863D01*
X295044Y1669277D01*
X315977Y1669277D01*
X315977Y1658259D01*
X306513Y1658259D01*
G37*
%LPD*%
%LPC*%
G36*
X401123Y477323D02*
X401123Y477323D01*
X401123Y490281D01*
X403005Y489983D01*
X405182Y489275D01*
X407221Y488236D01*
X409073Y486891D01*
X410691Y485273D01*
X412036Y483421D01*
X413075Y481382D01*
X413783Y479205D01*
X414081Y477323D01*
X401123Y477323D01*
G37*
%LPD*%
%LPC*%
G36*
X401123Y414723D02*
X401123Y414723D01*
X401123Y427681D01*
X403005Y427383D01*
X405182Y426675D01*
X407221Y425636D01*
X409073Y424291D01*
X410691Y422673D01*
X412036Y420821D01*
X413075Y418782D01*
X413783Y416605D01*
X414081Y414723D01*
X401123Y414723D01*
G37*
%LPD*%
%LPC*%
G36*
X338523Y477323D02*
X338523Y477323D01*
X338523Y490281D01*
X340405Y489983D01*
X342582Y489275D01*
X344621Y488236D01*
X346473Y486891D01*
X348091Y485273D01*
X349436Y483421D01*
X350475Y481382D01*
X351183Y479205D01*
X351481Y477323D01*
X338523Y477323D01*
G37*
%LPD*%
%LPC*%
G36*
X338523Y414723D02*
X338523Y414723D01*
X338523Y427681D01*
X340405Y427383D01*
X342582Y426675D01*
X344621Y425636D01*
X346473Y424291D01*
X348091Y422673D01*
X349436Y420821D01*
X350475Y418782D01*
X351183Y416605D01*
X351481Y414723D01*
X338523Y414723D01*
G37*
%LPD*%
%LPC*%
G36*
X401123Y411677D02*
X401123Y411677D01*
X414081Y411677D01*
X413783Y409795D01*
X413075Y407618D01*
X412036Y405579D01*
X410691Y403727D01*
X409073Y402109D01*
X407221Y400764D01*
X405182Y399725D01*
X403005Y399017D01*
X401123Y398719D01*
X401123Y411677D01*
G37*
%LPD*%
%LPC*%
G36*
X322519Y414723D02*
X322519Y414723D01*
X322817Y416605D01*
X323525Y418782D01*
X324564Y420821D01*
X325909Y422673D01*
X327527Y424291D01*
X329379Y425636D01*
X331418Y426675D01*
X333595Y427383D01*
X335477Y427681D01*
X335477Y414723D01*
X322519Y414723D01*
G37*
%LPD*%
%LPC*%
G36*
X338523Y474277D02*
X338523Y474277D01*
X351481Y474277D01*
X351183Y472395D01*
X350475Y470218D01*
X349436Y468179D01*
X348091Y466327D01*
X346473Y464709D01*
X344621Y463364D01*
X342582Y462325D01*
X340405Y461617D01*
X338523Y461319D01*
X338523Y474277D01*
G37*
%LPD*%
%LPC*%
G36*
X322519Y477323D02*
X322519Y477323D01*
X322817Y479205D01*
X323525Y481382D01*
X324564Y483421D01*
X325909Y485273D01*
X327527Y486891D01*
X329379Y488236D01*
X331418Y489275D01*
X333595Y489983D01*
X335477Y490281D01*
X335477Y477323D01*
X322519Y477323D01*
G37*
%LPD*%
%LPC*%
G36*
X401123Y474277D02*
X401123Y474277D01*
X414081Y474277D01*
X413783Y472395D01*
X413075Y470218D01*
X412036Y468179D01*
X410691Y466327D01*
X409073Y464709D01*
X407221Y463364D01*
X405182Y462325D01*
X403005Y461617D01*
X401123Y461319D01*
X401123Y474277D01*
G37*
%LPD*%
%LPC*%
G36*
X385119Y477323D02*
X385119Y477323D01*
X385417Y479205D01*
X386125Y481382D01*
X387164Y483421D01*
X388509Y485273D01*
X390127Y486891D01*
X391979Y488236D01*
X394018Y489275D01*
X396195Y489983D01*
X398077Y490281D01*
X398077Y477323D01*
X385119Y477323D01*
G37*
%LPD*%
%LPC*%
G36*
X338523Y411677D02*
X338523Y411677D01*
X351481Y411677D01*
X351183Y409795D01*
X350475Y407618D01*
X349436Y405579D01*
X348091Y403727D01*
X346473Y402109D01*
X344621Y400764D01*
X342582Y399725D01*
X340405Y399017D01*
X338523Y398719D01*
X338523Y411677D01*
G37*
%LPD*%
%LPC*%
G36*
X385119Y414723D02*
X385119Y414723D01*
X385417Y416605D01*
X386125Y418782D01*
X387164Y420821D01*
X388509Y422673D01*
X390127Y424291D01*
X391979Y425636D01*
X394018Y426675D01*
X396195Y427383D01*
X398077Y427681D01*
X398077Y414723D01*
X385119Y414723D01*
G37*
%LPD*%
%LPC*%
G36*
X333595Y399017D02*
X333595Y399017D01*
X331418Y399725D01*
X329379Y400764D01*
X327527Y402109D01*
X325909Y403727D01*
X324564Y405579D01*
X323525Y407618D01*
X322817Y409795D01*
X322519Y411677D01*
X335477Y411677D01*
X335477Y398719D01*
X333595Y399017D01*
G37*
%LPD*%
%LPC*%
G36*
X333595Y461617D02*
X333595Y461617D01*
X331418Y462325D01*
X329379Y463364D01*
X327527Y464709D01*
X325909Y466327D01*
X324564Y468179D01*
X323525Y470218D01*
X322817Y472395D01*
X322519Y474277D01*
X335477Y474277D01*
X335477Y461319D01*
X333595Y461617D01*
G37*
%LPD*%
%LPC*%
G36*
X396195Y399017D02*
X396195Y399017D01*
X394018Y399725D01*
X391979Y400764D01*
X390127Y402109D01*
X388509Y403727D01*
X387164Y405579D01*
X386125Y407618D01*
X385417Y409795D01*
X385119Y411677D01*
X398077Y411677D01*
X398077Y398719D01*
X396195Y399017D01*
G37*
%LPD*%
%LPC*%
G36*
X396195Y461617D02*
X396195Y461617D01*
X394018Y462325D01*
X391979Y463364D01*
X390127Y464709D01*
X388509Y466327D01*
X387164Y468179D01*
X386125Y470218D01*
X385417Y472395D01*
X385119Y474277D01*
X398077Y474277D01*
X398077Y461319D01*
X396195Y461617D01*
G37*
%LPD*%
%LPC*%
G36*
X458723Y1703323D02*
X458723Y1703323D01*
X458723Y1719466D01*
X459579Y1719331D01*
X461100Y1718836D01*
X462525Y1718110D01*
X463819Y1717170D01*
X464950Y1716039D01*
X465890Y1714745D01*
X466616Y1713320D01*
X467111Y1711799D01*
X467361Y1710220D01*
X467361Y1703323D01*
X458723Y1703323D01*
G37*
%LPD*%
%LPC*%
G36*
X179323Y1614423D02*
X179323Y1614423D01*
X179323Y1630566D01*
X180179Y1630431D01*
X181700Y1629936D01*
X183125Y1629210D01*
X184419Y1628270D01*
X185550Y1627139D01*
X186490Y1625845D01*
X187216Y1624420D01*
X187711Y1622899D01*
X187961Y1621320D01*
X187961Y1614423D01*
X179323Y1614423D01*
G37*
%LPD*%
%LPC*%
G36*
X484123Y1614423D02*
X484123Y1614423D01*
X484123Y1630566D01*
X484979Y1630431D01*
X486500Y1629936D01*
X487925Y1629210D01*
X489219Y1628270D01*
X490350Y1627139D01*
X491290Y1625845D01*
X492016Y1624420D01*
X492511Y1622899D01*
X492761Y1621320D01*
X492761Y1614423D01*
X484123Y1614423D01*
G37*
%LPD*%
%LPC*%
G36*
X382523Y1614423D02*
X382523Y1614423D01*
X382523Y1630566D01*
X383379Y1630431D01*
X384900Y1629936D01*
X386325Y1629210D01*
X387619Y1628270D01*
X388750Y1627139D01*
X389690Y1625845D01*
X390416Y1624420D01*
X390911Y1622899D01*
X391161Y1621320D01*
X391161Y1614423D01*
X382523Y1614423D01*
G37*
%LPD*%
%LPC*%
G36*
X280923Y1614423D02*
X280923Y1614423D01*
X280923Y1630566D01*
X281779Y1630431D01*
X283300Y1629936D01*
X284725Y1629210D01*
X286019Y1628270D01*
X287150Y1627139D01*
X288090Y1625845D01*
X288816Y1624420D01*
X289311Y1622899D01*
X289561Y1621320D01*
X289561Y1614423D01*
X280923Y1614423D01*
G37*
%LPD*%
%LPC*%
G36*
X382523Y1611377D02*
X382523Y1611377D01*
X391161Y1611377D01*
X391161Y1604480D01*
X390911Y1602901D01*
X390416Y1601380D01*
X389690Y1599955D01*
X388750Y1598661D01*
X387619Y1597530D01*
X386325Y1596590D01*
X384900Y1595864D01*
X383379Y1595369D01*
X382523Y1595234D01*
X382523Y1611377D01*
G37*
%LPD*%
%LPC*%
G36*
X458723Y1700277D02*
X458723Y1700277D01*
X467361Y1700277D01*
X467361Y1693380D01*
X467111Y1691801D01*
X466616Y1690280D01*
X465890Y1688855D01*
X464950Y1687561D01*
X463819Y1686430D01*
X462525Y1685490D01*
X461100Y1684764D01*
X459579Y1684269D01*
X458723Y1684134D01*
X458723Y1700277D01*
G37*
%LPD*%
%LPC*%
G36*
X484123Y1611377D02*
X484123Y1611377D01*
X492761Y1611377D01*
X492761Y1604480D01*
X492511Y1602901D01*
X492016Y1601380D01*
X491290Y1599955D01*
X490350Y1598661D01*
X489219Y1597530D01*
X487925Y1596590D01*
X486500Y1595864D01*
X484979Y1595369D01*
X484123Y1595234D01*
X484123Y1611377D01*
G37*
%LPD*%
%LPC*%
G36*
X280923Y1611377D02*
X280923Y1611377D01*
X289561Y1611377D01*
X289561Y1604480D01*
X289311Y1602901D01*
X288816Y1601380D01*
X288090Y1599955D01*
X287150Y1598661D01*
X286019Y1597530D01*
X284725Y1596590D01*
X283300Y1595864D01*
X281779Y1595369D01*
X280923Y1595234D01*
X280923Y1611377D01*
G37*
%LPD*%
%LPC*%
G36*
X179323Y1611377D02*
X179323Y1611377D01*
X187961Y1611377D01*
X187961Y1604480D01*
X187711Y1602901D01*
X187216Y1601380D01*
X186490Y1599955D01*
X185550Y1598661D01*
X184419Y1597530D01*
X183125Y1596590D01*
X181700Y1595864D01*
X180179Y1595369D01*
X179323Y1595234D01*
X179323Y1611377D01*
G37*
%LPD*%
%LPC*%
G36*
X472439Y1614423D02*
X472439Y1614423D01*
X472439Y1621320D01*
X472689Y1622899D01*
X473184Y1624420D01*
X473910Y1625845D01*
X474850Y1627139D01*
X475981Y1628270D01*
X477275Y1629210D01*
X478700Y1629936D01*
X480221Y1630431D01*
X481077Y1630566D01*
X481077Y1614423D01*
X472439Y1614423D01*
G37*
%LPD*%
%LPC*%
G36*
X269239Y1614423D02*
X269239Y1614423D01*
X269239Y1621320D01*
X269489Y1622899D01*
X269984Y1624420D01*
X270710Y1625845D01*
X271650Y1627139D01*
X272781Y1628270D01*
X274075Y1629210D01*
X275500Y1629936D01*
X277021Y1630431D01*
X277877Y1630566D01*
X277877Y1614423D01*
X269239Y1614423D01*
G37*
%LPD*%
%LPC*%
G36*
X370839Y1614423D02*
X370839Y1614423D01*
X370839Y1621320D01*
X371089Y1622899D01*
X371584Y1624420D01*
X372310Y1625845D01*
X373250Y1627139D01*
X374381Y1628270D01*
X375675Y1629210D01*
X377100Y1629936D01*
X378621Y1630431D01*
X379477Y1630566D01*
X379477Y1614423D01*
X370839Y1614423D01*
G37*
%LPD*%
%LPC*%
G36*
X167639Y1614423D02*
X167639Y1614423D01*
X167639Y1621320D01*
X167889Y1622899D01*
X168384Y1624420D01*
X169110Y1625845D01*
X170050Y1627139D01*
X171181Y1628270D01*
X172475Y1629210D01*
X173900Y1629936D01*
X175421Y1630431D01*
X176277Y1630566D01*
X176277Y1614423D01*
X167639Y1614423D01*
G37*
%LPD*%
%LPC*%
G36*
X447039Y1703323D02*
X447039Y1703323D01*
X447039Y1710220D01*
X447289Y1711799D01*
X447784Y1713320D01*
X448510Y1714745D01*
X449450Y1716039D01*
X450581Y1717170D01*
X451875Y1718110D01*
X453300Y1718836D01*
X454821Y1719331D01*
X455677Y1719466D01*
X455677Y1703323D01*
X447039Y1703323D01*
G37*
%LPD*%
%LPC*%
G36*
X454821Y1684269D02*
X454821Y1684269D01*
X453300Y1684764D01*
X451875Y1685490D01*
X450581Y1686430D01*
X449450Y1687561D01*
X448510Y1688855D01*
X447784Y1690280D01*
X447289Y1691801D01*
X447039Y1693380D01*
X447039Y1700277D01*
X455677Y1700277D01*
X455677Y1684134D01*
X454821Y1684269D01*
G37*
%LPD*%
%LPC*%
G36*
X480221Y1595369D02*
X480221Y1595369D01*
X478700Y1595864D01*
X477275Y1596590D01*
X475981Y1597530D01*
X474850Y1598661D01*
X473910Y1599955D01*
X473184Y1601380D01*
X472689Y1602901D01*
X472439Y1604480D01*
X472439Y1611377D01*
X481077Y1611377D01*
X481077Y1595234D01*
X480221Y1595369D01*
G37*
%LPD*%
%LPC*%
G36*
X378621Y1595369D02*
X378621Y1595369D01*
X377100Y1595864D01*
X375675Y1596590D01*
X374381Y1597530D01*
X373250Y1598661D01*
X372310Y1599955D01*
X371584Y1601380D01*
X371089Y1602901D01*
X370839Y1604480D01*
X370839Y1611377D01*
X379477Y1611377D01*
X379477Y1595234D01*
X378621Y1595369D01*
G37*
%LPD*%
%LPC*%
G36*
X277021Y1595369D02*
X277021Y1595369D01*
X275500Y1595864D01*
X274075Y1596590D01*
X272781Y1597530D01*
X271650Y1598661D01*
X270710Y1599955D01*
X269984Y1601380D01*
X269489Y1602901D01*
X269239Y1604480D01*
X269239Y1611377D01*
X277877Y1611377D01*
X277877Y1595234D01*
X277021Y1595369D01*
G37*
%LPD*%
%LPC*%
G36*
X175421Y1595369D02*
X175421Y1595369D01*
X173900Y1595864D01*
X172475Y1596590D01*
X171181Y1597530D01*
X170050Y1598661D01*
X169110Y1599955D01*
X168384Y1601380D01*
X167889Y1602901D01*
X167639Y1604480D01*
X167639Y1611377D01*
X176277Y1611377D01*
X176277Y1595234D01*
X175421Y1595369D01*
G37*
%LPD*%
%LPC*%
G36*
X128523Y1411223D02*
X128523Y1411223D01*
X128523Y1425325D01*
X129667Y1425097D01*
X131332Y1424408D01*
X132830Y1423407D01*
X134103Y1422134D01*
X135104Y1420636D01*
X135793Y1418971D01*
X136145Y1417205D01*
X136145Y1411223D01*
X128523Y1411223D01*
G37*
%LPD*%
%LPC*%
G36*
X433323Y1360423D02*
X433323Y1360423D01*
X433323Y1374525D01*
X434467Y1374297D01*
X436132Y1373608D01*
X437630Y1372607D01*
X438903Y1371334D01*
X439904Y1369836D01*
X440593Y1368171D01*
X440945Y1366405D01*
X440945Y1360423D01*
X433323Y1360423D01*
G37*
%LPD*%
%LPC*%
G36*
X357123Y1284223D02*
X357123Y1284223D01*
X357123Y1298325D01*
X358267Y1298097D01*
X359932Y1297408D01*
X361430Y1296407D01*
X362703Y1295134D01*
X363704Y1293636D01*
X364393Y1291971D01*
X364745Y1290205D01*
X364745Y1284223D01*
X357123Y1284223D01*
G37*
%LPD*%
%LPC*%
G36*
X382523Y1004823D02*
X382523Y1004823D01*
X382523Y1018925D01*
X383667Y1018697D01*
X385332Y1018008D01*
X386830Y1017007D01*
X388103Y1015734D01*
X389104Y1014236D01*
X389793Y1012571D01*
X390145Y1010805D01*
X390145Y1004823D01*
X382523Y1004823D01*
G37*
%LPD*%
%LPC*%
G36*
X382523Y1001777D02*
X382523Y1001777D01*
X390145Y1001777D01*
X390145Y995795D01*
X389793Y994029D01*
X389104Y992364D01*
X388103Y990866D01*
X386830Y989593D01*
X385332Y988592D01*
X383667Y987903D01*
X382523Y987675D01*
X382523Y1001777D01*
G37*
%LPD*%
%LPC*%
G36*
X128523Y1408177D02*
X128523Y1408177D01*
X136145Y1408177D01*
X136145Y1402195D01*
X135793Y1400429D01*
X135104Y1398764D01*
X134103Y1397266D01*
X132830Y1395993D01*
X131332Y1394992D01*
X129667Y1394303D01*
X128523Y1394075D01*
X128523Y1408177D01*
G37*
%LPD*%
%LPC*%
G36*
X433323Y1357377D02*
X433323Y1357377D01*
X440945Y1357377D01*
X440945Y1351395D01*
X440593Y1349629D01*
X439904Y1347964D01*
X438903Y1346466D01*
X437630Y1345193D01*
X436132Y1344192D01*
X434467Y1343503D01*
X433323Y1343275D01*
X433323Y1357377D01*
G37*
%LPD*%
%LPC*%
G36*
X357123Y1281177D02*
X357123Y1281177D01*
X364745Y1281177D01*
X364745Y1275195D01*
X364393Y1273429D01*
X363704Y1271764D01*
X362703Y1270266D01*
X361430Y1268993D01*
X359932Y1267992D01*
X358267Y1267303D01*
X357123Y1267075D01*
X357123Y1281177D01*
G37*
%LPD*%
%LPC*%
G36*
X422655Y1360423D02*
X422655Y1360423D01*
X422655Y1366405D01*
X423007Y1368171D01*
X423696Y1369836D01*
X424697Y1371334D01*
X425970Y1372607D01*
X427468Y1373608D01*
X429133Y1374297D01*
X430277Y1374525D01*
X430277Y1360423D01*
X422655Y1360423D01*
G37*
%LPD*%
%LPC*%
G36*
X117855Y1411223D02*
X117855Y1411223D01*
X117855Y1417205D01*
X118207Y1418971D01*
X118896Y1420636D01*
X119897Y1422134D01*
X121170Y1423407D01*
X122668Y1424408D01*
X124333Y1425097D01*
X125477Y1425325D01*
X125477Y1411223D01*
X117855Y1411223D01*
G37*
%LPD*%
%LPC*%
G36*
X346455Y1284223D02*
X346455Y1284223D01*
X346455Y1290205D01*
X346807Y1291971D01*
X347496Y1293636D01*
X348497Y1295134D01*
X349770Y1296407D01*
X351268Y1297408D01*
X352933Y1298097D01*
X354077Y1298325D01*
X354077Y1284223D01*
X346455Y1284223D01*
G37*
%LPD*%
%LPC*%
G36*
X371855Y1004823D02*
X371855Y1004823D01*
X371855Y1010805D01*
X372207Y1012571D01*
X372896Y1014236D01*
X373897Y1015734D01*
X375170Y1017007D01*
X376668Y1018008D01*
X378333Y1018697D01*
X379477Y1018925D01*
X379477Y1004823D01*
X371855Y1004823D01*
G37*
%LPD*%
%LPC*%
G36*
X378333Y987903D02*
X378333Y987903D01*
X376668Y988592D01*
X375170Y989593D01*
X373897Y990866D01*
X372896Y992364D01*
X372207Y994029D01*
X371855Y995795D01*
X371855Y1001777D01*
X379477Y1001777D01*
X379477Y987675D01*
X378333Y987903D01*
G37*
%LPD*%
%LPC*%
G36*
X429133Y1343503D02*
X429133Y1343503D01*
X427468Y1344192D01*
X425970Y1345193D01*
X424697Y1346466D01*
X423696Y1347964D01*
X423007Y1349629D01*
X422655Y1351395D01*
X422655Y1357377D01*
X430277Y1357377D01*
X430277Y1343275D01*
X429133Y1343503D01*
G37*
%LPD*%
%LPC*%
G36*
X124333Y1394303D02*
X124333Y1394303D01*
X122668Y1394992D01*
X121170Y1395993D01*
X119897Y1397266D01*
X118896Y1398764D01*
X118207Y1400429D01*
X117855Y1402195D01*
X117855Y1408177D01*
X125477Y1408177D01*
X125477Y1394075D01*
X124333Y1394303D01*
G37*
%LPD*%
%LPC*%
G36*
X352933Y1267303D02*
X352933Y1267303D01*
X351268Y1267992D01*
X349770Y1268993D01*
X348497Y1270266D01*
X347496Y1271764D01*
X346807Y1273429D01*
X346455Y1275195D01*
X346455Y1281177D01*
X354077Y1281177D01*
X354077Y1267075D01*
X352933Y1267303D01*
G37*
%LPD*%
%LPC*%
G36*
X103123Y979423D02*
X103123Y979423D01*
X103123Y988718D01*
X104158Y988554D01*
X105793Y988022D01*
X107325Y987242D01*
X108716Y986231D01*
X109931Y985016D01*
X110942Y983625D01*
X111722Y982093D01*
X112254Y980458D01*
X112418Y979423D01*
X103123Y979423D01*
G37*
%LPD*%
%LPC*%
G36*
X179323Y1004823D02*
X179323Y1004823D01*
X179323Y1014118D01*
X180358Y1013954D01*
X181993Y1013422D01*
X183525Y1012642D01*
X184916Y1011631D01*
X186131Y1010416D01*
X187142Y1009025D01*
X187922Y1007493D01*
X188454Y1005858D01*
X188618Y1004823D01*
X179323Y1004823D01*
G37*
%LPD*%
%LPC*%
G36*
X179323Y1001777D02*
X179323Y1001777D01*
X188618Y1001777D01*
X188454Y1000742D01*
X187922Y999107D01*
X187142Y997575D01*
X186131Y996184D01*
X184916Y994969D01*
X183525Y993958D01*
X181993Y993178D01*
X180358Y992646D01*
X179323Y992482D01*
X179323Y1001777D01*
G37*
%LPD*%
%LPC*%
G36*
X103123Y976377D02*
X103123Y976377D01*
X112418Y976377D01*
X112254Y975342D01*
X111722Y973707D01*
X110942Y972175D01*
X109931Y970784D01*
X108716Y969569D01*
X107325Y968558D01*
X105793Y967778D01*
X104158Y967246D01*
X103123Y967082D01*
X103123Y976377D01*
G37*
%LPD*%
%LPC*%
G36*
X90782Y979423D02*
X90782Y979423D01*
X90946Y980458D01*
X91478Y982093D01*
X92258Y983625D01*
X93269Y985016D01*
X94484Y986231D01*
X95875Y987242D01*
X97407Y988022D01*
X99042Y988554D01*
X100077Y988718D01*
X100077Y979423D01*
X90782Y979423D01*
G37*
%LPD*%
%LPC*%
G36*
X166982Y1004823D02*
X166982Y1004823D01*
X167146Y1005858D01*
X167678Y1007493D01*
X168458Y1009025D01*
X169469Y1010416D01*
X170684Y1011631D01*
X172075Y1012642D01*
X173607Y1013422D01*
X175242Y1013954D01*
X176277Y1014118D01*
X176277Y1004823D01*
X166982Y1004823D01*
G37*
%LPD*%
%LPC*%
G36*
X175242Y992646D02*
X175242Y992646D01*
X173607Y993178D01*
X172075Y993958D01*
X170684Y994969D01*
X169469Y996184D01*
X168458Y997575D01*
X167678Y999107D01*
X167146Y1000742D01*
X166982Y1001777D01*
X176277Y1001777D01*
X176277Y992482D01*
X175242Y992646D01*
G37*
%LPD*%
%LPC*%
G36*
X99042Y967246D02*
X99042Y967246D01*
X97407Y967778D01*
X95875Y968558D01*
X94484Y969569D01*
X93269Y970784D01*
X92258Y972175D01*
X91478Y973707D01*
X90946Y975342D01*
X90782Y976377D01*
X100077Y976377D01*
X100077Y967082D01*
X99042Y967246D01*
G37*
%LPD*%
%LPC*%
G36*
X560323Y846073D02*
X560323Y846073D01*
X560323Y854515D01*
X561161Y854383D01*
X562670Y853892D01*
X564083Y853172D01*
X565367Y852239D01*
X566489Y851117D01*
X567422Y849833D01*
X568142Y848420D01*
X568633Y846911D01*
X568765Y846073D01*
X560323Y846073D01*
G37*
%LPD*%
%LPC*%
G36*
X560323Y843027D02*
X560323Y843027D01*
X568765Y843027D01*
X568633Y842189D01*
X568142Y840680D01*
X567422Y839267D01*
X566489Y837983D01*
X565367Y836861D01*
X564083Y835928D01*
X562670Y835208D01*
X561161Y834717D01*
X560323Y834585D01*
X560323Y843027D01*
G37*
%LPD*%
%LPC*%
G36*
X548835Y846073D02*
X548835Y846073D01*
X548967Y846911D01*
X549458Y848420D01*
X550178Y849833D01*
X551111Y851117D01*
X552233Y852239D01*
X553517Y853172D01*
X554930Y853892D01*
X556439Y854383D01*
X557277Y854515D01*
X557277Y846073D01*
X548835Y846073D01*
G37*
%LPD*%
%LPC*%
G36*
X556439Y834717D02*
X556439Y834717D01*
X554930Y835208D01*
X553517Y835928D01*
X552233Y836861D01*
X551111Y837983D01*
X550178Y839267D01*
X549458Y840680D01*
X548967Y842189D01*
X548835Y843027D01*
X557277Y843027D01*
X557277Y834585D01*
X556439Y834717D01*
G37*
%LPD*%
%LPC*%
G36*
X534923Y598423D02*
X534923Y598423D01*
X534923Y606818D01*
X535750Y606687D01*
X537252Y606199D01*
X538659Y605482D01*
X539937Y604553D01*
X541053Y603437D01*
X541982Y602159D01*
X542699Y600752D01*
X543187Y599250D01*
X543318Y598423D01*
X534923Y598423D01*
G37*
%LPD*%
%LPC*%
G36*
X420623Y674623D02*
X420623Y674623D01*
X420623Y683018D01*
X421450Y682887D01*
X422952Y682399D01*
X424359Y681682D01*
X425637Y680753D01*
X426753Y679637D01*
X427682Y678359D01*
X428399Y676952D01*
X428887Y675450D01*
X429018Y674623D01*
X420623Y674623D01*
G37*
%LPD*%
%LPC*%
G36*
X611123Y700023D02*
X611123Y700023D01*
X611123Y708418D01*
X611950Y708287D01*
X613452Y707799D01*
X614859Y707082D01*
X616137Y706153D01*
X617253Y705037D01*
X618182Y703759D01*
X618899Y702352D01*
X619387Y700850D01*
X619518Y700023D01*
X611123Y700023D01*
G37*
%LPD*%
%LPC*%
G36*
X230123Y674623D02*
X230123Y674623D01*
X230123Y683018D01*
X230950Y682887D01*
X232452Y682399D01*
X233859Y681682D01*
X235137Y680753D01*
X236253Y679637D01*
X237182Y678359D01*
X237899Y676952D01*
X238387Y675450D01*
X238518Y674623D01*
X230123Y674623D01*
G37*
%LPD*%
%LPC*%
G36*
X523482Y598423D02*
X523482Y598423D01*
X523613Y599250D01*
X524101Y600752D01*
X524818Y602159D01*
X525747Y603437D01*
X526863Y604553D01*
X528141Y605482D01*
X529548Y606199D01*
X531050Y606687D01*
X531877Y606818D01*
X531877Y598423D01*
X523482Y598423D01*
G37*
%LPD*%
%LPC*%
G36*
X230123Y671577D02*
X230123Y671577D01*
X238518Y671577D01*
X238387Y670750D01*
X237899Y669248D01*
X237182Y667841D01*
X236253Y666563D01*
X235137Y665447D01*
X233859Y664518D01*
X232452Y663801D01*
X230950Y663313D01*
X230123Y663182D01*
X230123Y671577D01*
G37*
%LPD*%
%LPC*%
G36*
X420623Y671577D02*
X420623Y671577D01*
X429018Y671577D01*
X428887Y670750D01*
X428399Y669248D01*
X427682Y667841D01*
X426753Y666563D01*
X425637Y665447D01*
X424359Y664518D01*
X422952Y663801D01*
X421450Y663313D01*
X420623Y663182D01*
X420623Y671577D01*
G37*
%LPD*%
%LPC*%
G36*
X218682Y674623D02*
X218682Y674623D01*
X218813Y675450D01*
X219301Y676952D01*
X220018Y678359D01*
X220947Y679637D01*
X222063Y680753D01*
X223341Y681682D01*
X224748Y682399D01*
X226250Y682887D01*
X227077Y683018D01*
X227077Y674623D01*
X218682Y674623D01*
G37*
%LPD*%
%LPC*%
G36*
X409182Y674623D02*
X409182Y674623D01*
X409313Y675450D01*
X409801Y676952D01*
X410518Y678359D01*
X411447Y679637D01*
X412563Y680753D01*
X413841Y681682D01*
X415248Y682399D01*
X416750Y682887D01*
X417577Y683018D01*
X417577Y674623D01*
X409182Y674623D01*
G37*
%LPD*%
%LPC*%
G36*
X599682Y700023D02*
X599682Y700023D01*
X599813Y700850D01*
X600301Y702352D01*
X601018Y703759D01*
X601947Y705037D01*
X603063Y706153D01*
X604341Y707082D01*
X605748Y707799D01*
X607250Y708287D01*
X608077Y708418D01*
X608077Y700023D01*
X599682Y700023D01*
G37*
%LPD*%
%LPC*%
G36*
X611123Y696977D02*
X611123Y696977D01*
X619518Y696977D01*
X619387Y696150D01*
X618899Y694648D01*
X618182Y693241D01*
X617253Y691963D01*
X616137Y690847D01*
X614859Y689918D01*
X613452Y689201D01*
X611950Y688713D01*
X611123Y688582D01*
X611123Y696977D01*
G37*
%LPD*%
%LPC*%
G36*
X534923Y595377D02*
X534923Y595377D01*
X543318Y595377D01*
X543187Y594550D01*
X542699Y593048D01*
X541982Y591641D01*
X541053Y590363D01*
X539937Y589247D01*
X538659Y588318D01*
X537252Y587601D01*
X535750Y587113D01*
X534923Y586982D01*
X534923Y595377D01*
G37*
%LPD*%
%LPC*%
G36*
X607250Y688713D02*
X607250Y688713D01*
X605748Y689201D01*
X604341Y689918D01*
X603063Y690847D01*
X601947Y691963D01*
X601018Y693241D01*
X600301Y694648D01*
X599813Y696150D01*
X599682Y696977D01*
X608077Y696977D01*
X608077Y688582D01*
X607250Y688713D01*
G37*
%LPD*%
%LPC*%
G36*
X416750Y663313D02*
X416750Y663313D01*
X415248Y663801D01*
X413841Y664518D01*
X412563Y665447D01*
X411447Y666563D01*
X410518Y667841D01*
X409801Y669248D01*
X409313Y670750D01*
X409182Y671577D01*
X417577Y671577D01*
X417577Y663182D01*
X416750Y663313D01*
G37*
%LPD*%
%LPC*%
G36*
X226250Y663313D02*
X226250Y663313D01*
X224748Y663801D01*
X223341Y664518D01*
X222063Y665447D01*
X220947Y666563D01*
X220018Y667841D01*
X219301Y669248D01*
X218813Y670750D01*
X218682Y671577D01*
X227077Y671577D01*
X227077Y663182D01*
X226250Y663313D01*
G37*
%LPD*%
%LPC*%
G36*
X531050Y587113D02*
X531050Y587113D01*
X529548Y587601D01*
X528141Y588318D01*
X526863Y589247D01*
X525747Y590363D01*
X524818Y591641D01*
X524101Y593048D01*
X523613Y594550D01*
X523482Y595377D01*
X531877Y595377D01*
X531877Y586982D01*
X531050Y587113D01*
G37*
%LPD*%
%LPC*%
G36*
X611123Y1614423D02*
X611123Y1614423D01*
X611123Y1622045D01*
X613388Y1622045D01*
X618745Y1616688D01*
X618745Y1614423D01*
X611123Y1614423D01*
G37*
%LPD*%
%LPC*%
G36*
X560323Y1677923D02*
X560323Y1677923D01*
X560323Y1685545D01*
X562588Y1685545D01*
X567945Y1680188D01*
X567945Y1677923D01*
X560323Y1677923D01*
G37*
%LPD*%
%LPC*%
G36*
X344423Y1512823D02*
X344423Y1512823D01*
X344423Y1520445D01*
X346688Y1520445D01*
X352045Y1515088D01*
X352045Y1512823D01*
X344423Y1512823D01*
G37*
%LPD*%
%LPC*%
G36*
X446023Y1512823D02*
X446023Y1512823D01*
X446023Y1520445D01*
X448288Y1520445D01*
X453645Y1515088D01*
X453645Y1512823D01*
X446023Y1512823D01*
G37*
%LPD*%
%LPC*%
G36*
X420623Y941323D02*
X420623Y941323D01*
X420623Y948945D01*
X422888Y948945D01*
X428245Y943588D01*
X428245Y941323D01*
X420623Y941323D01*
G37*
%LPD*%
%LPC*%
G36*
X141223Y1512823D02*
X141223Y1512823D01*
X141223Y1520445D01*
X143488Y1520445D01*
X148845Y1515088D01*
X148845Y1512823D01*
X141223Y1512823D01*
G37*
%LPD*%
%LPC*%
G36*
X560323Y1411223D02*
X560323Y1411223D01*
X560323Y1418845D01*
X562588Y1418845D01*
X567945Y1413488D01*
X567945Y1411223D01*
X560323Y1411223D01*
G37*
%LPD*%
%LPC*%
G36*
X242823Y1512823D02*
X242823Y1512823D01*
X242823Y1520445D01*
X245088Y1520445D01*
X250445Y1515088D01*
X250445Y1512823D01*
X242823Y1512823D01*
G37*
%LPD*%
%LPC*%
G36*
X471423Y1423923D02*
X471423Y1423923D01*
X471423Y1431545D01*
X473688Y1431545D01*
X479045Y1426188D01*
X479045Y1423923D01*
X471423Y1423923D01*
G37*
%LPD*%
%LPC*%
G36*
X560323Y1335023D02*
X560323Y1335023D01*
X560323Y1342645D01*
X562588Y1342645D01*
X567945Y1337288D01*
X567945Y1335023D01*
X560323Y1335023D01*
G37*
%LPD*%
%LPC*%
G36*
X560323Y1550923D02*
X560323Y1550923D01*
X560323Y1558545D01*
X562588Y1558545D01*
X567945Y1553188D01*
X567945Y1550923D01*
X560323Y1550923D01*
G37*
%LPD*%
%LPC*%
G36*
X268223Y1169923D02*
X268223Y1169923D01*
X268223Y1177545D01*
X270488Y1177545D01*
X275845Y1172188D01*
X275845Y1169923D01*
X268223Y1169923D01*
G37*
%LPD*%
%LPC*%
G36*
X611123Y1169923D02*
X611123Y1169923D01*
X611123Y1177545D01*
X613388Y1177545D01*
X618745Y1172188D01*
X618745Y1169923D01*
X611123Y1169923D01*
G37*
%LPD*%
%LPC*%
G36*
X611123Y1258823D02*
X611123Y1258823D01*
X611123Y1266445D01*
X613388Y1266445D01*
X618745Y1261088D01*
X618745Y1258823D01*
X611123Y1258823D01*
G37*
%LPD*%
%LPC*%
G36*
X369823Y1169923D02*
X369823Y1169923D01*
X369823Y1177545D01*
X372088Y1177545D01*
X377445Y1172188D01*
X377445Y1169923D01*
X369823Y1169923D01*
G37*
%LPD*%
%LPC*%
G36*
X509523Y1233423D02*
X509523Y1233423D01*
X509523Y1241045D01*
X511788Y1241045D01*
X517145Y1235688D01*
X517145Y1233423D01*
X509523Y1233423D01*
G37*
%LPD*%
%LPC*%
G36*
X458723Y1169923D02*
X458723Y1169923D01*
X458723Y1177545D01*
X460988Y1177545D01*
X466345Y1172188D01*
X466345Y1169923D01*
X458723Y1169923D01*
G37*
%LPD*%
%LPC*%
G36*
X369823Y1233423D02*
X369823Y1233423D01*
X369823Y1241045D01*
X372088Y1241045D01*
X377445Y1235688D01*
X377445Y1233423D01*
X369823Y1233423D01*
G37*
%LPD*%
%LPC*%
G36*
X611123Y1106423D02*
X611123Y1106423D01*
X611123Y1114045D01*
X613388Y1114045D01*
X618745Y1108688D01*
X618745Y1106423D01*
X611123Y1106423D01*
G37*
%LPD*%
%LPC*%
G36*
X268223Y1233423D02*
X268223Y1233423D01*
X268223Y1241045D01*
X270488Y1241045D01*
X275845Y1235688D01*
X275845Y1233423D01*
X268223Y1233423D01*
G37*
%LPD*%
%LPC*%
G36*
X600455Y1169923D02*
X600455Y1169923D01*
X600455Y1172188D01*
X605812Y1177545D01*
X608077Y1177545D01*
X608077Y1169923D01*
X600455Y1169923D01*
G37*
%LPD*%
%LPC*%
G36*
X549655Y1677923D02*
X549655Y1677923D01*
X549655Y1680188D01*
X555012Y1685545D01*
X557277Y1685545D01*
X557277Y1677923D01*
X549655Y1677923D01*
G37*
%LPD*%
%LPC*%
G36*
X549655Y1550923D02*
X549655Y1550923D01*
X549655Y1553188D01*
X555012Y1558545D01*
X557277Y1558545D01*
X557277Y1550923D01*
X549655Y1550923D01*
G37*
%LPD*%
%LPC*%
G36*
X600455Y1614423D02*
X600455Y1614423D01*
X600455Y1616688D01*
X605812Y1622045D01*
X608077Y1622045D01*
X608077Y1614423D01*
X600455Y1614423D01*
G37*
%LPD*%
%LPC*%
G36*
X409955Y941323D02*
X409955Y941323D01*
X409955Y943588D01*
X415312Y948945D01*
X417577Y948945D01*
X417577Y941323D01*
X409955Y941323D01*
G37*
%LPD*%
%LPC*%
G36*
X359155Y1169923D02*
X359155Y1169923D01*
X359155Y1172188D01*
X364512Y1177545D01*
X366777Y1177545D01*
X366777Y1169923D01*
X359155Y1169923D01*
G37*
%LPD*%
%LPC*%
G36*
X257555Y1169923D02*
X257555Y1169923D01*
X257555Y1172188D01*
X262912Y1177545D01*
X265177Y1177545D01*
X265177Y1169923D01*
X257555Y1169923D01*
G37*
%LPD*%
%LPC*%
G36*
X460755Y1423923D02*
X460755Y1423923D01*
X460755Y1426188D01*
X466112Y1431545D01*
X468377Y1431545D01*
X468377Y1423923D01*
X460755Y1423923D01*
G37*
%LPD*%
%LPC*%
G36*
X257555Y1233423D02*
X257555Y1233423D01*
X257555Y1235688D01*
X262912Y1241045D01*
X265177Y1241045D01*
X265177Y1233423D01*
X257555Y1233423D01*
G37*
%LPD*%
%LPC*%
G36*
X359155Y1233423D02*
X359155Y1233423D01*
X359155Y1235688D01*
X364512Y1241045D01*
X366777Y1241045D01*
X366777Y1233423D01*
X359155Y1233423D01*
G37*
%LPD*%
%LPC*%
G36*
X498855Y1233423D02*
X498855Y1233423D01*
X498855Y1235688D01*
X504212Y1241045D01*
X506477Y1241045D01*
X506477Y1233423D01*
X498855Y1233423D01*
G37*
%LPD*%
%LPC*%
G36*
X549655Y1335023D02*
X549655Y1335023D01*
X549655Y1337288D01*
X555012Y1342645D01*
X557277Y1342645D01*
X557277Y1335023D01*
X549655Y1335023D01*
G37*
%LPD*%
%LPC*%
G36*
X600455Y1106423D02*
X600455Y1106423D01*
X600455Y1108688D01*
X605812Y1114045D01*
X608077Y1114045D01*
X608077Y1106423D01*
X600455Y1106423D01*
G37*
%LPD*%
%LPC*%
G36*
X549655Y1411223D02*
X549655Y1411223D01*
X549655Y1413488D01*
X555012Y1418845D01*
X557277Y1418845D01*
X557277Y1411223D01*
X549655Y1411223D01*
G37*
%LPD*%
%LPC*%
G36*
X333755Y1512823D02*
X333755Y1512823D01*
X333755Y1515088D01*
X339112Y1520445D01*
X341377Y1520445D01*
X341377Y1512823D01*
X333755Y1512823D01*
G37*
%LPD*%
%LPC*%
G36*
X448055Y1169923D02*
X448055Y1169923D01*
X448055Y1172188D01*
X453412Y1177545D01*
X455677Y1177545D01*
X455677Y1169923D01*
X448055Y1169923D01*
G37*
%LPD*%
%LPC*%
G36*
X435355Y1512823D02*
X435355Y1512823D01*
X435355Y1515088D01*
X440712Y1520445D01*
X442977Y1520445D01*
X442977Y1512823D01*
X435355Y1512823D01*
G37*
%LPD*%
%LPC*%
G36*
X232155Y1512823D02*
X232155Y1512823D01*
X232155Y1515088D01*
X237512Y1520445D01*
X239777Y1520445D01*
X239777Y1512823D01*
X232155Y1512823D01*
G37*
%LPD*%
%LPC*%
G36*
X600455Y1258823D02*
X600455Y1258823D01*
X600455Y1261088D01*
X605812Y1266445D01*
X608077Y1266445D01*
X608077Y1258823D01*
X600455Y1258823D01*
G37*
%LPD*%
%LPC*%
G36*
X130555Y1512823D02*
X130555Y1512823D01*
X130555Y1515088D01*
X135912Y1520445D01*
X138177Y1520445D01*
X138177Y1512823D01*
X130555Y1512823D01*
G37*
%LPD*%
%LPC*%
G36*
X560323Y1667255D02*
X560323Y1667255D01*
X560323Y1674877D01*
X567945Y1674877D01*
X567945Y1672612D01*
X562588Y1667255D01*
X560323Y1667255D01*
G37*
%LPD*%
%LPC*%
G36*
X560323Y1540255D02*
X560323Y1540255D01*
X560323Y1547877D01*
X567945Y1547877D01*
X567945Y1545612D01*
X562588Y1540255D01*
X560323Y1540255D01*
G37*
%LPD*%
%LPC*%
G36*
X420623Y930655D02*
X420623Y930655D01*
X420623Y938277D01*
X428245Y938277D01*
X428245Y936012D01*
X422888Y930655D01*
X420623Y930655D01*
G37*
%LPD*%
%LPC*%
G36*
X369823Y1222755D02*
X369823Y1222755D01*
X369823Y1230377D01*
X377445Y1230377D01*
X377445Y1228112D01*
X372088Y1222755D01*
X369823Y1222755D01*
G37*
%LPD*%
%LPC*%
G36*
X611123Y1159255D02*
X611123Y1159255D01*
X611123Y1166877D01*
X618745Y1166877D01*
X618745Y1164612D01*
X613388Y1159255D01*
X611123Y1159255D01*
G37*
%LPD*%
%LPC*%
G36*
X268223Y1159255D02*
X268223Y1159255D01*
X268223Y1166877D01*
X275845Y1166877D01*
X275845Y1164612D01*
X270488Y1159255D01*
X268223Y1159255D01*
G37*
%LPD*%
%LPC*%
G36*
X611123Y1248155D02*
X611123Y1248155D01*
X611123Y1255777D01*
X618745Y1255777D01*
X618745Y1253512D01*
X613388Y1248155D01*
X611123Y1248155D01*
G37*
%LPD*%
%LPC*%
G36*
X560323Y1400555D02*
X560323Y1400555D01*
X560323Y1408177D01*
X567945Y1408177D01*
X567945Y1405912D01*
X562588Y1400555D01*
X560323Y1400555D01*
G37*
%LPD*%
%LPC*%
G36*
X268223Y1222755D02*
X268223Y1222755D01*
X268223Y1230377D01*
X275845Y1230377D01*
X275845Y1228112D01*
X270488Y1222755D01*
X268223Y1222755D01*
G37*
%LPD*%
%LPC*%
G36*
X560323Y1324355D02*
X560323Y1324355D01*
X560323Y1331977D01*
X567945Y1331977D01*
X567945Y1329712D01*
X562588Y1324355D01*
X560323Y1324355D01*
G37*
%LPD*%
%LPC*%
G36*
X446023Y1502155D02*
X446023Y1502155D01*
X446023Y1509777D01*
X453645Y1509777D01*
X453645Y1507512D01*
X448288Y1502155D01*
X446023Y1502155D01*
G37*
%LPD*%
%LPC*%
G36*
X141223Y1502155D02*
X141223Y1502155D01*
X141223Y1509777D01*
X148845Y1509777D01*
X148845Y1507512D01*
X143488Y1502155D01*
X141223Y1502155D01*
G37*
%LPD*%
%LPC*%
G36*
X471423Y1413255D02*
X471423Y1413255D01*
X471423Y1420877D01*
X479045Y1420877D01*
X479045Y1418612D01*
X473688Y1413255D01*
X471423Y1413255D01*
G37*
%LPD*%
%LPC*%
G36*
X242823Y1502155D02*
X242823Y1502155D01*
X242823Y1509777D01*
X250445Y1509777D01*
X250445Y1507512D01*
X245088Y1502155D01*
X242823Y1502155D01*
G37*
%LPD*%
%LPC*%
G36*
X458723Y1159255D02*
X458723Y1159255D01*
X458723Y1166877D01*
X466345Y1166877D01*
X466345Y1164612D01*
X460988Y1159255D01*
X458723Y1159255D01*
G37*
%LPD*%
%LPC*%
G36*
X369823Y1159255D02*
X369823Y1159255D01*
X369823Y1166877D01*
X377445Y1166877D01*
X377445Y1164612D01*
X372088Y1159255D01*
X369823Y1159255D01*
G37*
%LPD*%
%LPC*%
G36*
X509523Y1222755D02*
X509523Y1222755D01*
X509523Y1230377D01*
X517145Y1230377D01*
X517145Y1228112D01*
X511788Y1222755D01*
X509523Y1222755D01*
G37*
%LPD*%
%LPC*%
G36*
X611123Y1095755D02*
X611123Y1095755D01*
X611123Y1103377D01*
X618745Y1103377D01*
X618745Y1101112D01*
X613388Y1095755D01*
X611123Y1095755D01*
G37*
%LPD*%
%LPC*%
G36*
X611123Y1603755D02*
X611123Y1603755D01*
X611123Y1611377D01*
X618745Y1611377D01*
X618745Y1609112D01*
X613388Y1603755D01*
X611123Y1603755D01*
G37*
%LPD*%
%LPC*%
G36*
X344423Y1502155D02*
X344423Y1502155D01*
X344423Y1509777D01*
X352045Y1509777D01*
X352045Y1507512D01*
X346688Y1502155D01*
X344423Y1502155D01*
G37*
%LPD*%
%LPC*%
G36*
X364512Y1159255D02*
X364512Y1159255D01*
X359155Y1164612D01*
X359155Y1166877D01*
X366777Y1166877D01*
X366777Y1159255D01*
X364512Y1159255D01*
G37*
%LPD*%
%LPC*%
G36*
X605812Y1095755D02*
X605812Y1095755D01*
X600455Y1101112D01*
X600455Y1103377D01*
X608077Y1103377D01*
X608077Y1095755D01*
X605812Y1095755D01*
G37*
%LPD*%
%LPC*%
G36*
X555012Y1324355D02*
X555012Y1324355D01*
X549655Y1329712D01*
X549655Y1331977D01*
X557277Y1331977D01*
X557277Y1324355D01*
X555012Y1324355D01*
G37*
%LPD*%
%LPC*%
G36*
X262912Y1222755D02*
X262912Y1222755D01*
X257555Y1228112D01*
X257555Y1230377D01*
X265177Y1230377D01*
X265177Y1222755D01*
X262912Y1222755D01*
G37*
%LPD*%
%LPC*%
G36*
X504212Y1222755D02*
X504212Y1222755D01*
X498855Y1228112D01*
X498855Y1230377D01*
X506477Y1230377D01*
X506477Y1222755D01*
X504212Y1222755D01*
G37*
%LPD*%
%LPC*%
G36*
X364512Y1222755D02*
X364512Y1222755D01*
X359155Y1228112D01*
X359155Y1230377D01*
X366777Y1230377D01*
X366777Y1222755D01*
X364512Y1222755D01*
G37*
%LPD*%
%LPC*%
G36*
X555012Y1400555D02*
X555012Y1400555D01*
X549655Y1405912D01*
X549655Y1408177D01*
X557277Y1408177D01*
X557277Y1400555D01*
X555012Y1400555D01*
G37*
%LPD*%
%LPC*%
G36*
X262912Y1159255D02*
X262912Y1159255D01*
X257555Y1164612D01*
X257555Y1166877D01*
X265177Y1166877D01*
X265177Y1159255D01*
X262912Y1159255D01*
G37*
%LPD*%
%LPC*%
G36*
X605812Y1159255D02*
X605812Y1159255D01*
X600455Y1164612D01*
X600455Y1166877D01*
X608077Y1166877D01*
X608077Y1159255D01*
X605812Y1159255D01*
G37*
%LPD*%
%LPC*%
G36*
X453412Y1159255D02*
X453412Y1159255D01*
X448055Y1164612D01*
X448055Y1166877D01*
X455677Y1166877D01*
X455677Y1159255D01*
X453412Y1159255D01*
G37*
%LPD*%
%LPC*%
G36*
X339112Y1502155D02*
X339112Y1502155D01*
X333755Y1507512D01*
X333755Y1509777D01*
X341377Y1509777D01*
X341377Y1502155D01*
X339112Y1502155D01*
G37*
%LPD*%
%LPC*%
G36*
X466112Y1413255D02*
X466112Y1413255D01*
X460755Y1418612D01*
X460755Y1420877D01*
X468377Y1420877D01*
X468377Y1413255D01*
X466112Y1413255D01*
G37*
%LPD*%
%LPC*%
G36*
X440712Y1502155D02*
X440712Y1502155D01*
X435355Y1507512D01*
X435355Y1509777D01*
X442977Y1509777D01*
X442977Y1502155D01*
X440712Y1502155D01*
G37*
%LPD*%
%LPC*%
G36*
X135912Y1502155D02*
X135912Y1502155D01*
X130555Y1507512D01*
X130555Y1509777D01*
X138177Y1509777D01*
X138177Y1502155D01*
X135912Y1502155D01*
G37*
%LPD*%
%LPC*%
G36*
X237512Y1502155D02*
X237512Y1502155D01*
X232155Y1507512D01*
X232155Y1509777D01*
X239777Y1509777D01*
X239777Y1502155D01*
X237512Y1502155D01*
G37*
%LPD*%
%LPC*%
G36*
X555012Y1540255D02*
X555012Y1540255D01*
X549655Y1545612D01*
X549655Y1547877D01*
X557277Y1547877D01*
X557277Y1540255D01*
X555012Y1540255D01*
G37*
%LPD*%
%LPC*%
G36*
X605812Y1603755D02*
X605812Y1603755D01*
X600455Y1609112D01*
X600455Y1611377D01*
X608077Y1611377D01*
X608077Y1603755D01*
X605812Y1603755D01*
G37*
%LPD*%
%LPC*%
G36*
X415312Y930655D02*
X415312Y930655D01*
X409955Y936012D01*
X409955Y938277D01*
X417577Y938277D01*
X417577Y930655D01*
X415312Y930655D01*
G37*
%LPD*%
%LPC*%
G36*
X555012Y1667255D02*
X555012Y1667255D01*
X549655Y1672612D01*
X549655Y1674877D01*
X557277Y1674877D01*
X557277Y1667255D01*
X555012Y1667255D01*
G37*
%LPD*%
%LPC*%
G36*
X605812Y1248155D02*
X605812Y1248155D01*
X600455Y1253512D01*
X600455Y1255777D01*
X608077Y1255777D01*
X608077Y1248155D01*
X605812Y1248155D01*
G37*
%LPD*%
%LPC*%
G36*
X609599Y1168399D02*
X609599Y1168399D01*
X609599Y1168401D01*
X609601Y1168401D01*
X609601Y1168399D01*
X609599Y1168399D01*
G37*
%LPD*%
%LPC*%
G36*
X558799Y1409699D02*
X558799Y1409699D01*
X558799Y1409701D01*
X558801Y1409701D01*
X558801Y1409699D01*
X558799Y1409699D01*
G37*
%LPD*%
%LPC*%
G36*
X126999Y1409699D02*
X126999Y1409699D01*
X126999Y1409701D01*
X127001Y1409701D01*
X127001Y1409699D01*
X126999Y1409699D01*
G37*
%LPD*%
%LPC*%
G36*
X609599Y1104899D02*
X609599Y1104899D01*
X609599Y1104901D01*
X609601Y1104901D01*
X609601Y1104899D01*
X609599Y1104899D01*
G37*
%LPD*%
%LPC*%
G36*
X469899Y1422399D02*
X469899Y1422399D01*
X469899Y1422401D01*
X469901Y1422401D01*
X469901Y1422399D01*
X469899Y1422399D01*
G37*
%LPD*%
%LPC*%
G36*
X558799Y1333499D02*
X558799Y1333499D01*
X558799Y1333501D01*
X558801Y1333501D01*
X558801Y1333499D01*
X558799Y1333499D01*
G37*
%LPD*%
%LPC*%
G36*
X241299Y1511299D02*
X241299Y1511299D01*
X241299Y1511301D01*
X241301Y1511301D01*
X241301Y1511299D01*
X241299Y1511299D01*
G37*
%LPD*%
%LPC*%
G36*
X342899Y1511299D02*
X342899Y1511299D01*
X342899Y1511301D01*
X342901Y1511301D01*
X342901Y1511299D01*
X342899Y1511299D01*
G37*
%LPD*%
%LPC*%
G36*
X558799Y844549D02*
X558799Y844549D01*
X558799Y844551D01*
X558801Y844551D01*
X558801Y844549D01*
X558799Y844549D01*
G37*
%LPD*%
%LPC*%
G36*
X444499Y1511299D02*
X444499Y1511299D01*
X444499Y1511301D01*
X444501Y1511301D01*
X444501Y1511299D01*
X444499Y1511299D01*
G37*
%LPD*%
%LPC*%
G36*
X139699Y1511299D02*
X139699Y1511299D01*
X139699Y1511301D01*
X139701Y1511301D01*
X139701Y1511299D01*
X139699Y1511299D01*
G37*
%LPD*%
%LPC*%
G36*
X609599Y698499D02*
X609599Y698499D01*
X609599Y698501D01*
X609601Y698501D01*
X609601Y698499D01*
X609599Y698499D01*
G37*
%LPD*%
%LPC*%
G36*
X101599Y977899D02*
X101599Y977899D01*
X101599Y977901D01*
X101601Y977901D01*
X101601Y977899D01*
X101599Y977899D01*
G37*
%LPD*%
%LPC*%
G36*
X431799Y1358899D02*
X431799Y1358899D01*
X431799Y1358901D01*
X431801Y1358901D01*
X431801Y1358899D01*
X431799Y1358899D01*
G37*
%LPD*%
%LPC*%
G36*
X266699Y1231899D02*
X266699Y1231899D01*
X266699Y1231901D01*
X266701Y1231901D01*
X266701Y1231899D01*
X266699Y1231899D01*
G37*
%LPD*%
%LPC*%
G36*
X355599Y1282699D02*
X355599Y1282699D01*
X355599Y1282701D01*
X355601Y1282701D01*
X355601Y1282699D01*
X355599Y1282699D01*
G37*
%LPD*%
%LPC*%
G36*
X368299Y1231899D02*
X368299Y1231899D01*
X368299Y1231901D01*
X368301Y1231901D01*
X368301Y1231899D01*
X368299Y1231899D01*
G37*
%LPD*%
%LPC*%
G36*
X507999Y1231899D02*
X507999Y1231899D01*
X507999Y1231901D01*
X508001Y1231901D01*
X508001Y1231899D01*
X507999Y1231899D01*
G37*
%LPD*%
%LPC*%
G36*
X482599Y1612899D02*
X482599Y1612899D01*
X482599Y1612901D01*
X482601Y1612901D01*
X482601Y1612899D01*
X482599Y1612899D01*
G37*
%LPD*%
%LPC*%
G36*
X177799Y1003299D02*
X177799Y1003299D01*
X177799Y1003301D01*
X177801Y1003301D01*
X177801Y1003299D01*
X177799Y1003299D01*
G37*
%LPD*%
%LPC*%
G36*
X380999Y1003299D02*
X380999Y1003299D01*
X380999Y1003301D01*
X381001Y1003301D01*
X381001Y1003299D01*
X380999Y1003299D01*
G37*
%LPD*%
%LPC*%
G36*
X609599Y1257299D02*
X609599Y1257299D01*
X609599Y1257301D01*
X609601Y1257301D01*
X609601Y1257299D01*
X609599Y1257299D01*
G37*
%LPD*%
%LPC*%
G36*
X399599Y475799D02*
X399599Y475799D01*
X399599Y475801D01*
X399601Y475801D01*
X399601Y475799D01*
X399599Y475799D01*
G37*
%LPD*%
%LPC*%
G36*
X336999Y475799D02*
X336999Y475799D01*
X336999Y475801D01*
X337001Y475801D01*
X337001Y475799D01*
X336999Y475799D01*
G37*
%LPD*%
%LPC*%
G36*
X419099Y939799D02*
X419099Y939799D01*
X419099Y939801D01*
X419101Y939801D01*
X419101Y939799D01*
X419099Y939799D01*
G37*
%LPD*%
%LPC*%
G36*
X419099Y673099D02*
X419099Y673099D01*
X419099Y673101D01*
X419101Y673101D01*
X419101Y673099D01*
X419099Y673099D01*
G37*
%LPD*%
%LPC*%
G36*
X558799Y1549399D02*
X558799Y1549399D01*
X558799Y1549401D01*
X558801Y1549401D01*
X558801Y1549399D01*
X558799Y1549399D01*
G37*
%LPD*%
%LPC*%
G36*
X558799Y1676399D02*
X558799Y1676399D01*
X558799Y1676401D01*
X558801Y1676401D01*
X558801Y1676399D01*
X558799Y1676399D01*
G37*
%LPD*%
%LPC*%
G36*
X457199Y1701799D02*
X457199Y1701799D01*
X457199Y1701801D01*
X457201Y1701801D01*
X457201Y1701799D01*
X457199Y1701799D01*
G37*
%LPD*%
%LPC*%
G36*
X228599Y673099D02*
X228599Y673099D01*
X228599Y673101D01*
X228601Y673101D01*
X228601Y673099D01*
X228599Y673099D01*
G37*
%LPD*%
%LPC*%
G36*
X266699Y1168399D02*
X266699Y1168399D01*
X266699Y1168401D01*
X266701Y1168401D01*
X266701Y1168399D01*
X266699Y1168399D01*
G37*
%LPD*%
%LPC*%
G36*
X177799Y1612899D02*
X177799Y1612899D01*
X177799Y1612901D01*
X177801Y1612901D01*
X177801Y1612899D01*
X177799Y1612899D01*
G37*
%LPD*%
%LPC*%
G36*
X279399Y1612899D02*
X279399Y1612899D01*
X279399Y1612901D01*
X279401Y1612901D01*
X279401Y1612899D01*
X279399Y1612899D01*
G37*
%LPD*%
%LPC*%
G36*
X399599Y413199D02*
X399599Y413199D01*
X399599Y413201D01*
X399601Y413201D01*
X399601Y413199D01*
X399599Y413199D01*
G37*
%LPD*%
%LPC*%
G36*
X336999Y413199D02*
X336999Y413199D01*
X336999Y413201D01*
X337001Y413201D01*
X337001Y413199D01*
X336999Y413199D01*
G37*
%LPD*%
%LPC*%
G36*
X380999Y1612899D02*
X380999Y1612899D01*
X380999Y1612901D01*
X381001Y1612901D01*
X381001Y1612899D01*
X380999Y1612899D01*
G37*
%LPD*%
%LPC*%
G36*
X609599Y1612899D02*
X609599Y1612899D01*
X609599Y1612901D01*
X609601Y1612901D01*
X609601Y1612899D01*
X609599Y1612899D01*
G37*
%LPD*%
%LPC*%
G36*
X317499Y1670799D02*
X317499Y1670799D01*
X317499Y1670801D01*
X317501Y1670801D01*
X317501Y1670799D01*
X317499Y1670799D01*
G37*
%LPD*%
%LPC*%
G36*
X368299Y1168399D02*
X368299Y1168399D01*
X368299Y1168401D01*
X368301Y1168401D01*
X368301Y1168399D01*
X368299Y1168399D01*
G37*
%LPD*%
%LPC*%
G36*
X457199Y1168399D02*
X457199Y1168399D01*
X457199Y1168401D01*
X457201Y1168401D01*
X457201Y1168399D01*
X457199Y1168399D01*
G37*
%LPD*%
%LPC*%
G36*
X533399Y596899D02*
X533399Y596899D01*
X533399Y596901D01*
X533401Y596901D01*
X533401Y596899D01*
X533399Y596899D01*
G37*
%LPD*%
D10*
X241300Y1511300D03*
X292100Y1511300D03*
X266700Y1536700D03*
D11*
X307500Y1670800D02*
X327500Y1670800D01*
X327500Y1731800D02*
X307500Y1731800D01*
X269500Y1711800D02*
X269500Y1691800D01*
D10*
X139700Y1511300D03*
X190500Y1511300D03*
X165100Y1536700D03*
X266700Y1231900D03*
X317500Y1231900D03*
X558800Y1104900D03*
X609600Y1104900D03*
X457200Y1168400D03*
X508000Y1168400D03*
X457200Y1231900D03*
X508000Y1231900D03*
X368300Y1231900D03*
X419100Y1231900D03*
X368300Y1168400D03*
X419100Y1168400D03*
X558800Y1676400D03*
X609600Y1676400D03*
X558800Y1333500D03*
X609600Y1333500D03*
X558800Y1612900D03*
X609600Y1612900D03*
D12*
X609600Y1549400D03*
X558800Y1549400D03*
D10*
X558800Y1485900D03*
X609600Y1485900D03*
X558800Y1409700D03*
X609600Y1409700D03*
X266700Y1168400D03*
X317500Y1168400D03*
X469900Y1422400D03*
X520700Y1422400D03*
X558800Y1257300D03*
X609600Y1257300D03*
X558800Y1168400D03*
X609600Y1168400D03*
D13*
X508000Y1276096D02*
X508000Y1289304D01*
X508000Y1352296D02*
X508000Y1365504D01*
X127000Y1340104D02*
X127000Y1326896D01*
X127000Y1403096D02*
X127000Y1416304D01*
X431800Y1289304D02*
X431800Y1276096D01*
X431800Y1352296D02*
X431800Y1365504D01*
X355600Y1365504D02*
X355600Y1352296D01*
X355600Y1289304D02*
X355600Y1276096D01*
X279400Y1276096D02*
X279400Y1289304D01*
X279400Y1352296D02*
X279400Y1365504D01*
X190500Y1340104D02*
X190500Y1326896D01*
X190500Y1403096D02*
X190500Y1416304D01*
D14*
X508000Y844550D03*
D15*
X482600Y844550D03*
D14*
X533400Y844550D03*
X558800Y844550D03*
X584200Y844550D03*
X609600Y844550D03*
D16*
X431800Y1694180D02*
X431800Y1709420D01*
X457200Y1709420D02*
X457200Y1694180D01*
X482600Y1694180D02*
X482600Y1709420D01*
D17*
X368300Y444500D03*
D18*
X337000Y475800D03*
X399600Y475800D03*
X399600Y413200D03*
X337000Y413200D03*
D13*
X381000Y996696D02*
X381000Y1009904D01*
X381000Y1072896D02*
X381000Y1086104D01*
D19*
X203200Y1207770D03*
X203200Y1256030D03*
D10*
X342900Y889000D03*
X419100Y889000D03*
X228600Y1041400D03*
X304800Y1041400D03*
X342900Y939800D03*
X419100Y939800D03*
X228600Y838200D03*
X304800Y838200D03*
X228600Y1092200D03*
X304800Y1092200D03*
X342900Y838200D03*
X419100Y838200D03*
X330200Y1422400D03*
X406400Y1422400D03*
X228600Y1422400D03*
X304800Y1422400D03*
X228600Y939800D03*
X304800Y939800D03*
X228600Y990600D03*
X304800Y990600D03*
D12*
X304800Y889000D03*
X228600Y889000D03*
D20*
X160300Y1692300D02*
X160300Y1709300D01*
X195300Y1709300D02*
X195300Y1692300D01*
D21*
X533400Y749300D03*
D22*
X533400Y723900D03*
X533400Y698500D03*
X533400Y673100D03*
X533400Y647700D03*
X533400Y622300D03*
X533400Y596900D03*
X609600Y596900D03*
X609600Y622300D03*
X609600Y647700D03*
X609600Y673100D03*
X609600Y698500D03*
X609600Y723900D03*
X609600Y749300D03*
D23*
X101600Y1155700D03*
D24*
X101600Y1130300D03*
X101600Y1104900D03*
X101600Y1079500D03*
X101600Y1054100D03*
X101600Y1028700D03*
X101600Y1003300D03*
X101600Y977900D03*
X101600Y952500D03*
X101600Y927100D03*
X101600Y901700D03*
X101600Y876300D03*
X101600Y850900D03*
X101600Y825500D03*
X177800Y825500D03*
X177800Y850900D03*
X177800Y876300D03*
X177800Y901700D03*
X177800Y927100D03*
X177800Y952500D03*
X177800Y977900D03*
X177800Y1003300D03*
X177800Y1028700D03*
X177800Y1054100D03*
X177800Y1079500D03*
X177800Y1104900D03*
X177800Y1130300D03*
X177800Y1155700D03*
D21*
X152400Y749300D03*
D22*
X152400Y723900D03*
X152400Y698500D03*
X152400Y673100D03*
X152400Y647700D03*
X152400Y622300D03*
X152400Y596900D03*
X228600Y596900D03*
X228600Y622300D03*
X228600Y647700D03*
X228600Y673100D03*
X228600Y698500D03*
X228600Y723900D03*
X228600Y749300D03*
D21*
X342900Y749300D03*
D22*
X342900Y723900D03*
X342900Y698500D03*
X342900Y673100D03*
X342900Y647700D03*
X342900Y622300D03*
X342900Y596900D03*
X419100Y596900D03*
X419100Y622300D03*
X419100Y647700D03*
X419100Y673100D03*
X419100Y698500D03*
X419100Y723900D03*
X419100Y749300D03*
D10*
X342900Y1511300D03*
X393700Y1511300D03*
X368300Y1536700D03*
X444500Y1511300D03*
X495300Y1511300D03*
X469900Y1536700D03*
D16*
X254000Y1605280D02*
X254000Y1620520D01*
X279400Y1620520D02*
X279400Y1605280D01*
X152400Y1605280D02*
X152400Y1620520D01*
X177800Y1620520D02*
X177800Y1605280D01*
X355600Y1605280D02*
X355600Y1620520D01*
X381000Y1620520D02*
X381000Y1605280D01*
X457200Y1605280D02*
X457200Y1620520D01*
X482600Y1620520D02*
X482600Y1605280D01*
D25*
X205000Y1255000D02*
X212500Y1247500D01*
X297500Y1247500D01*
X312500Y1232500D01*
X317500Y1232500D01*
X205000Y1255000D02*
X203200Y1256030D01*
X317500Y1232500D02*
X317500Y1231900D01*
X115000Y965000D02*
X102500Y952500D01*
X115000Y965000D02*
X187500Y965000D01*
X202500Y980000D01*
X102500Y952500D02*
X101600Y952500D01*
D26*
X202500Y980000D03*
D25*
X227500Y1185000D02*
X205000Y1207500D01*
X227500Y1185000D02*
X295000Y1185000D01*
X312500Y1167500D01*
X317500Y1167500D01*
X205000Y1207500D02*
X203200Y1207770D01*
X317500Y1168400D02*
X317500Y1167500D01*
X125000Y950000D02*
X102500Y927500D01*
X125000Y950000D02*
X157500Y950000D01*
X102500Y927500D02*
X101600Y927100D01*
D26*
X157500Y950000D03*
D25*
X432500Y1092500D02*
X507500Y1167500D01*
X432500Y1092500D02*
X432500Y1025000D01*
X350000Y1025000D01*
X330000Y1005000D01*
X205000Y1005000D01*
X180000Y980000D01*
X507500Y1167500D02*
X508000Y1168400D01*
X180000Y980000D02*
X177800Y977900D01*
D27*
X242500Y1282500D02*
X192500Y1332500D01*
X242500Y1282500D02*
X277500Y1282500D01*
X192500Y1332500D02*
X190500Y1333500D01*
X277500Y1282500D02*
X279400Y1282700D01*
D25*
X352500Y955000D02*
X417500Y890000D01*
X352500Y955000D02*
X182500Y955000D01*
X180000Y952500D01*
X417500Y890000D02*
X419100Y889000D01*
X180000Y952500D02*
X177800Y952500D01*
X422500Y890000D02*
X627500Y1095000D01*
X422500Y890000D02*
X420000Y890000D01*
X419100Y889000D01*
D26*
X627500Y1095000D03*
D25*
X417500Y837500D02*
X390000Y810000D01*
X112500Y810000D01*
X417500Y837500D02*
X419100Y838200D01*
D26*
X112500Y810000D03*
D25*
X435000Y1285000D02*
X507500Y1357500D01*
X435000Y1285000D02*
X432500Y1285000D01*
X507500Y1357500D02*
X508000Y1358900D01*
X432500Y1285000D02*
X431800Y1282700D01*
X205000Y965000D02*
X202500Y962500D01*
X205000Y965000D02*
X275000Y965000D01*
X300000Y990000D01*
X302500Y990000D01*
X304800Y990600D01*
X560000Y1360000D02*
X607500Y1407500D01*
X560000Y1360000D02*
X510000Y1360000D01*
X607500Y1407500D02*
X609600Y1409700D01*
X510000Y1360000D02*
X508000Y1358900D01*
D26*
X202500Y962500D03*
D25*
X127500Y1335000D02*
X190000Y1397500D01*
X190000Y1407500D01*
X127500Y1335000D02*
X127000Y1333500D01*
X190000Y1407500D02*
X190500Y1409700D01*
X372500Y767500D02*
X370000Y765000D01*
X177500Y765000D01*
X162500Y750000D01*
X152500Y750000D01*
X152400Y749300D01*
D26*
X372500Y767500D03*
D25*
X355000Y1360000D02*
X280000Y1360000D01*
X279400Y1358900D01*
X355000Y1360000D02*
X355600Y1358900D01*
X532500Y722500D02*
X445000Y635000D01*
X402500Y635000D01*
X350000Y582500D01*
X242500Y582500D01*
X230000Y595000D01*
X532500Y722500D02*
X533400Y723900D01*
X230000Y595000D02*
X228600Y596900D01*
X275000Y1355000D02*
X277500Y1357500D01*
X275000Y1355000D02*
X252500Y1355000D01*
X277500Y1357500D02*
X279400Y1358900D01*
D26*
X252500Y1355000D03*
D25*
X228600Y1041400D02*
X247500Y1022500D01*
X335000Y1022500D01*
D26*
X335000Y1022500D03*
D25*
X425000Y1065000D02*
X337500Y1152500D01*
X205000Y1152500D01*
X185000Y1172500D01*
X147500Y1172500D01*
X107500Y1132500D01*
X102500Y1132500D01*
X101600Y1130300D01*
D26*
X425000Y1065000D03*
D25*
X302500Y1042500D02*
X277500Y1067500D01*
X142500Y1067500D01*
X107500Y1102500D01*
X102500Y1102500D01*
X302500Y1042500D02*
X304800Y1041400D01*
X102500Y1102500D02*
X101600Y1104900D01*
X407500Y1422500D02*
X457500Y1472500D01*
X592500Y1472500D01*
X605000Y1485000D01*
X607500Y1485000D01*
X407500Y1422500D02*
X406400Y1422400D01*
X607500Y1485000D02*
X609600Y1485900D01*
X615000Y1485000D02*
X637500Y1462500D01*
X615000Y1485000D02*
X610000Y1485000D01*
X609600Y1485900D01*
D26*
X637500Y1462500D03*
D25*
X227500Y837500D02*
X142500Y837500D01*
X227500Y837500D02*
X228600Y838200D01*
X180000Y1077500D02*
X380000Y1077500D01*
X381000Y1079500D01*
X180000Y1077500D02*
X177800Y1079500D01*
D26*
X142500Y837500D03*
D27*
X560000Y1105000D02*
X605000Y1150000D01*
X645000Y1150000D01*
X560000Y1105000D02*
X558800Y1104900D01*
D26*
X645000Y1150000D03*
D25*
X357500Y802500D02*
X372500Y787500D01*
X357500Y802500D02*
X182500Y802500D01*
D26*
X372500Y787500D03*
X182500Y802500D03*
D25*
X372500Y780000D02*
X390000Y762500D01*
X372500Y780000D02*
X192500Y780000D01*
D26*
X390000Y762500D03*
X192500Y780000D03*
D25*
X360000Y875000D02*
X375000Y860000D01*
X360000Y875000D02*
X262500Y875000D01*
X215000Y922500D01*
X185000Y922500D01*
X182500Y925000D01*
X180000Y925000D01*
X177800Y927100D01*
D26*
X375000Y860000D03*
D25*
X525000Y830000D02*
X527500Y827500D01*
X525000Y830000D02*
X447500Y830000D01*
X425000Y852500D01*
X180000Y852500D01*
X177800Y850900D01*
D26*
X527500Y827500D03*
D25*
X290000Y887500D02*
X285000Y882500D01*
X290000Y887500D02*
X302500Y887500D01*
X304800Y889000D01*
D26*
X285000Y882500D03*
D25*
X227500Y887500D02*
X210000Y870000D01*
X227500Y887500D02*
X228600Y889000D01*
X210000Y972500D02*
X227500Y990000D01*
X228600Y990600D01*
D26*
X210000Y870000D03*
X210000Y972500D03*
D25*
X297500Y1085000D02*
X302500Y1090000D01*
X297500Y1085000D02*
X270000Y1085000D01*
X302500Y1090000D02*
X304800Y1092200D01*
D26*
X270000Y1085000D03*
D25*
X215000Y712500D02*
X152500Y650000D01*
X215000Y712500D02*
X297500Y712500D01*
X332500Y747500D01*
X342500Y747500D01*
X152500Y650000D02*
X152400Y647700D01*
X342500Y747500D02*
X342900Y749300D01*
X360000Y1247500D02*
X260000Y1347500D01*
X360000Y1247500D02*
X402500Y1247500D01*
X417500Y1232500D01*
X419100Y1231900D01*
D26*
X260000Y1347500D03*
D25*
X230000Y647500D02*
X252500Y625000D01*
X335000Y625000D01*
X337500Y622500D01*
X342500Y622500D01*
X230000Y647500D02*
X228600Y647700D01*
X342500Y622500D02*
X342900Y622300D01*
X485000Y1392500D02*
X515000Y1422500D01*
X520000Y1422500D01*
X520700Y1422400D01*
X242500Y1435000D02*
X230000Y1422500D01*
X242500Y1435000D02*
X297500Y1435000D01*
X230000Y1422500D02*
X228600Y1422400D01*
D26*
X485000Y1392500D03*
X297500Y1435000D03*
D25*
X420000Y595000D02*
X457500Y557500D01*
X460000Y557500D01*
X420000Y595000D02*
X419100Y596900D01*
D26*
X460000Y557500D03*
D25*
X505000Y1557500D02*
X457500Y1605000D01*
X457500Y1612500D01*
X457200Y1612900D01*
X490000Y820000D02*
X420000Y750000D01*
X490000Y820000D02*
X605000Y820000D01*
X617500Y832500D01*
X420000Y750000D02*
X419100Y749300D01*
D26*
X505000Y1557500D03*
X617500Y832500D03*
D25*
X480000Y1525000D02*
X470000Y1535000D01*
X480000Y1525000D02*
X505000Y1525000D01*
X470000Y1535000D02*
X469900Y1536700D01*
D26*
X505000Y1525000D03*
M02*
