G04 EAGLE Gerber RS-274X export*
G75*
%MOMM*%
%FSLAX34Y34*%
%LPD*%
%IN*%
%IPPOS*%
%AMOC8*
5,1,8,0,0,1.08239X$1,22.5*%
G01*
%ADD10C,0.254000*%


D10*
X25400Y317500D02*
X711000Y317500D01*
X711000Y1820000D01*
X25400Y1820000D01*
X25400Y317500D01*
X303500Y1726800D02*
X331500Y1726800D01*
X331500Y1736800D01*
X303500Y1736800D01*
X303500Y1726800D01*
X301000Y1665800D02*
X334000Y1665800D01*
X334000Y1675800D01*
X301000Y1675800D01*
X301000Y1665800D01*
X264500Y1687800D02*
X274500Y1687800D01*
X274500Y1715800D01*
X264500Y1715800D01*
X264500Y1687800D01*
X103900Y380464D02*
X103824Y379396D01*
X103671Y378335D01*
X103443Y377288D01*
X103141Y376260D01*
X102767Y375256D01*
X102322Y374281D01*
X101808Y373341D01*
X101229Y372440D01*
X100587Y371582D01*
X99885Y370772D01*
X99128Y370015D01*
X98318Y369313D01*
X97460Y368671D01*
X96559Y368092D01*
X95619Y367578D01*
X94644Y367133D01*
X93640Y366759D01*
X92612Y366457D01*
X91565Y366229D01*
X90504Y366076D01*
X89436Y366000D01*
X88364Y366000D01*
X87296Y366076D01*
X86235Y366229D01*
X85188Y366457D01*
X84160Y366759D01*
X83156Y367133D01*
X82181Y367578D01*
X81241Y368092D01*
X80340Y368671D01*
X79482Y369313D01*
X78672Y370015D01*
X77915Y370772D01*
X77213Y371582D01*
X76571Y372440D01*
X75992Y373341D01*
X75478Y374281D01*
X75033Y375256D01*
X74659Y376260D01*
X74357Y377288D01*
X74129Y378335D01*
X73976Y379396D01*
X73900Y380464D01*
X73900Y381536D01*
X73976Y382604D01*
X74129Y383665D01*
X74357Y384712D01*
X74659Y385740D01*
X75033Y386744D01*
X75478Y387719D01*
X75992Y388659D01*
X76571Y389560D01*
X77213Y390418D01*
X77915Y391228D01*
X78672Y391985D01*
X79482Y392687D01*
X80340Y393329D01*
X81241Y393908D01*
X82181Y394422D01*
X83156Y394867D01*
X84160Y395241D01*
X85188Y395543D01*
X86235Y395771D01*
X87296Y395924D01*
X88364Y396000D01*
X89436Y396000D01*
X90504Y395924D01*
X91565Y395771D01*
X92612Y395543D01*
X93640Y395241D01*
X94644Y394867D01*
X95619Y394422D01*
X96559Y393908D01*
X97460Y393329D01*
X98318Y392687D01*
X99128Y391985D01*
X99885Y391228D01*
X100587Y390418D01*
X101229Y389560D01*
X101808Y388659D01*
X102322Y387719D01*
X102767Y386744D01*
X103141Y385740D01*
X103443Y384712D01*
X103671Y383665D01*
X103824Y382604D01*
X103900Y381536D01*
X103900Y380464D01*
X662700Y380464D02*
X662624Y379396D01*
X662471Y378335D01*
X662243Y377288D01*
X661941Y376260D01*
X661567Y375256D01*
X661122Y374281D01*
X660608Y373341D01*
X660029Y372440D01*
X659387Y371582D01*
X658685Y370772D01*
X657928Y370015D01*
X657118Y369313D01*
X656260Y368671D01*
X655359Y368092D01*
X654419Y367578D01*
X653444Y367133D01*
X652440Y366759D01*
X651412Y366457D01*
X650365Y366229D01*
X649304Y366076D01*
X648236Y366000D01*
X647164Y366000D01*
X646096Y366076D01*
X645035Y366229D01*
X643988Y366457D01*
X642960Y366759D01*
X641956Y367133D01*
X640981Y367578D01*
X640041Y368092D01*
X639140Y368671D01*
X638282Y369313D01*
X637472Y370015D01*
X636715Y370772D01*
X636013Y371582D01*
X635371Y372440D01*
X634792Y373341D01*
X634278Y374281D01*
X633833Y375256D01*
X633459Y376260D01*
X633157Y377288D01*
X632929Y378335D01*
X632776Y379396D01*
X632700Y380464D01*
X632700Y381536D01*
X632776Y382604D01*
X632929Y383665D01*
X633157Y384712D01*
X633459Y385740D01*
X633833Y386744D01*
X634278Y387719D01*
X634792Y388659D01*
X635371Y389560D01*
X636013Y390418D01*
X636715Y391228D01*
X637472Y391985D01*
X638282Y392687D01*
X639140Y393329D01*
X640041Y393908D01*
X640981Y394422D01*
X641956Y394867D01*
X642960Y395241D01*
X643988Y395543D01*
X645035Y395771D01*
X646096Y395924D01*
X647164Y396000D01*
X648236Y396000D01*
X649304Y395924D01*
X650365Y395771D01*
X651412Y395543D01*
X652440Y395241D01*
X653444Y394867D01*
X654419Y394422D01*
X655359Y393908D01*
X656260Y393329D01*
X657118Y392687D01*
X657928Y391985D01*
X658685Y391228D01*
X659387Y390418D01*
X660029Y389560D01*
X660608Y388659D01*
X661122Y387719D01*
X661567Y386744D01*
X661941Y385740D01*
X662243Y384712D01*
X662471Y383665D01*
X662624Y382604D01*
X662700Y381536D01*
X662700Y380464D01*
X662700Y1764764D02*
X662624Y1763696D01*
X662471Y1762635D01*
X662243Y1761588D01*
X661941Y1760560D01*
X661567Y1759556D01*
X661122Y1758581D01*
X660608Y1757641D01*
X660029Y1756740D01*
X659387Y1755882D01*
X658685Y1755072D01*
X657928Y1754315D01*
X657118Y1753613D01*
X656260Y1752971D01*
X655359Y1752392D01*
X654419Y1751878D01*
X653444Y1751433D01*
X652440Y1751059D01*
X651412Y1750757D01*
X650365Y1750529D01*
X649304Y1750376D01*
X648236Y1750300D01*
X647164Y1750300D01*
X646096Y1750376D01*
X645035Y1750529D01*
X643988Y1750757D01*
X642960Y1751059D01*
X641956Y1751433D01*
X640981Y1751878D01*
X640041Y1752392D01*
X639140Y1752971D01*
X638282Y1753613D01*
X637472Y1754315D01*
X636715Y1755072D01*
X636013Y1755882D01*
X635371Y1756740D01*
X634792Y1757641D01*
X634278Y1758581D01*
X633833Y1759556D01*
X633459Y1760560D01*
X633157Y1761588D01*
X632929Y1762635D01*
X632776Y1763696D01*
X632700Y1764764D01*
X632700Y1765836D01*
X632776Y1766904D01*
X632929Y1767965D01*
X633157Y1769012D01*
X633459Y1770040D01*
X633833Y1771044D01*
X634278Y1772019D01*
X634792Y1772959D01*
X635371Y1773860D01*
X636013Y1774718D01*
X636715Y1775528D01*
X637472Y1776285D01*
X638282Y1776987D01*
X639140Y1777629D01*
X640041Y1778208D01*
X640981Y1778722D01*
X641956Y1779167D01*
X642960Y1779541D01*
X643988Y1779843D01*
X645035Y1780071D01*
X646096Y1780224D01*
X647164Y1780300D01*
X648236Y1780300D01*
X649304Y1780224D01*
X650365Y1780071D01*
X651412Y1779843D01*
X652440Y1779541D01*
X653444Y1779167D01*
X654419Y1778722D01*
X655359Y1778208D01*
X656260Y1777629D01*
X657118Y1776987D01*
X657928Y1776285D01*
X658685Y1775528D01*
X659387Y1774718D01*
X660029Y1773860D01*
X660608Y1772959D01*
X661122Y1772019D01*
X661567Y1771044D01*
X661941Y1770040D01*
X662243Y1769012D01*
X662471Y1767965D01*
X662624Y1766904D01*
X662700Y1765836D01*
X662700Y1764764D01*
X103900Y1764764D02*
X103824Y1763696D01*
X103671Y1762635D01*
X103443Y1761588D01*
X103141Y1760560D01*
X102767Y1759556D01*
X102322Y1758581D01*
X101808Y1757641D01*
X101229Y1756740D01*
X100587Y1755882D01*
X99885Y1755072D01*
X99128Y1754315D01*
X98318Y1753613D01*
X97460Y1752971D01*
X96559Y1752392D01*
X95619Y1751878D01*
X94644Y1751433D01*
X93640Y1751059D01*
X92612Y1750757D01*
X91565Y1750529D01*
X90504Y1750376D01*
X89436Y1750300D01*
X88364Y1750300D01*
X87296Y1750376D01*
X86235Y1750529D01*
X85188Y1750757D01*
X84160Y1751059D01*
X83156Y1751433D01*
X82181Y1751878D01*
X81241Y1752392D01*
X80340Y1752971D01*
X79482Y1753613D01*
X78672Y1754315D01*
X77915Y1755072D01*
X77213Y1755882D01*
X76571Y1756740D01*
X75992Y1757641D01*
X75478Y1758581D01*
X75033Y1759556D01*
X74659Y1760560D01*
X74357Y1761588D01*
X74129Y1762635D01*
X73976Y1763696D01*
X73900Y1764764D01*
X73900Y1765836D01*
X73976Y1766904D01*
X74129Y1767965D01*
X74357Y1769012D01*
X74659Y1770040D01*
X75033Y1771044D01*
X75478Y1772019D01*
X75992Y1772959D01*
X76571Y1773860D01*
X77213Y1774718D01*
X77915Y1775528D01*
X78672Y1776285D01*
X79482Y1776987D01*
X80340Y1777629D01*
X81241Y1778208D01*
X82181Y1778722D01*
X83156Y1779167D01*
X84160Y1779541D01*
X85188Y1779843D01*
X86235Y1780071D01*
X87296Y1780224D01*
X88364Y1780300D01*
X89436Y1780300D01*
X90504Y1780224D01*
X91565Y1780071D01*
X92612Y1779843D01*
X93640Y1779541D01*
X94644Y1779167D01*
X95619Y1778722D01*
X96559Y1778208D01*
X97460Y1777629D01*
X98318Y1776987D01*
X99128Y1776285D01*
X99885Y1775528D01*
X100587Y1774718D01*
X101229Y1773860D01*
X101808Y1772959D01*
X102322Y1772019D01*
X102767Y1771044D01*
X103141Y1770040D01*
X103443Y1769012D01*
X103671Y1767965D01*
X103824Y1766904D01*
X103900Y1765836D01*
X103900Y1764764D01*
M02*
